<svg width="14" height="14" viewBox="0 0 14 14" fill="none" xmlns="http://www.w3.org/2000/svg">
<path d="M10.1376 7L7.25628 9.88128C6.91457 10.223 6.91457 10.777 7.25628 11.1187C7.59799 11.4604 8.15201 11.4604 8.49372 11.1187L11.9937 7.61872C12.3354 7.27701 12.3354 6.72299 11.9937 6.38128L8.49372 2.88128C8.15201 2.53957 7.59799 2.53957 7.25628 2.88128C6.91457 3.22299 6.91457 3.77701 7.25628 4.11872L10.1376 7Z" fill="#2087E4"/>
<path d="M2.625 7.875H11.375C11.8582 7.875 12.25 7.48325 12.25 7C12.25 6.51675 11.8582 6.125 11.375 6.125H2.625C2.14175 6.125 1.75 6.51675 1.75 7C1.75 7.48325 2.14175 7.875 2.625 7.875Z" fill="#2087E4"/>
</svg>
