<svg width="36" height="36" viewBox="0 0 36 36" fill="none" xmlns="http://www.w3.org/2000/svg">
<path fill-rule="evenodd" clip-rule="evenodd" d="M11.1838 9C9.8636 9 9 9.86852 9 11.0106C9 12.1279 9.8386 13.0227 11.1326 13.0227H11.1584C12.5042 13.0227 13.3412 12.1281 13.3412 11.0106C13.3158 9.86852 12.5042 9 11.1838 9ZM27 19.5761V26.25H23.142V20.023C23.142 18.4586 22.584 17.3911 21.1878 17.3911C20.1216 17.3911 19.4872 18.1106 19.2082 18.8066C19.1064 19.0553 19.0802 19.4017 19.0802 19.75V26.25H15.2208C15.2208 26.25 15.2728 15.7034 15.2208 14.6107H19.0796V16.2604C19.0758 16.2665 19.0715 16.2727 19.0672 16.2788L19.0672 16.2789C19.0626 16.2854 19.058 16.2919 19.0542 16.2982H19.0796V16.2604C19.5922 15.4685 20.508 14.3373 22.5574 14.3373C25.0964 14.3373 27 16.0009 27 19.5761ZM13.087 26.25H9.2292V14.6107H13.087V26.25Z" fill="#112950"/>
</svg>
