<svg width="36" height="36" viewBox="0 0 36 36" fill="none" xmlns="http://www.w3.org/2000/svg">
<path d="M27.75 11.6333C27.0698 11.9788 26.2762 12.2092 25.4826 12.3244C26.3328 11.8061 26.9564 10.9998 27.2965 10.0208C26.5029 10.4815 25.6526 10.8271 24.7456 10.9998C23.4785 9.68139 21.507 9.37066 19.9062 10.2371C18.3055 11.1035 17.4596 12.9393 17.8299 14.7431C14.6555 14.5704 11.5945 13.073 9.61047 10.4815C9.0652 11.3663 8.89021 12.4356 9.12437 13.4521C9.35852 14.4685 9.98243 15.3478 10.8576 15.8949C10.234 15.8949 9.61047 15.7797 9.0436 15.4918C9.10029 17.3922 10.4041 19.0623 12.218 19.4654C11.6512 19.6382 11.0276 19.6382 10.4041 19.523C10.9709 21.1931 12.5015 22.3449 14.202 22.4024C12.5581 23.7846 10.3474 24.4181 8.25 24.0725C11.8255 26.4964 16.4463 26.6453 20.1658 24.4563C23.8853 22.2673 26.0569 18.1211 25.766 13.7641C26.5596 13.1882 27.2398 12.4971 27.75 11.6333Z" fill="#112950"/>
</svg>
