<svg width="235" height="32" viewBox="0 0 235 32" fill="none" xmlns="http://www.w3.org/2000/svg">
<path fill-rule="evenodd" clip-rule="evenodd" d="M96.399 15.9206C96.3943 17.1333 96.5295 18.3288 96.841 19.5006C97.8508 23.293 100.084 26.0819 103.674 27.7115C106.394 28.9447 109.245 29.1508 112.154 28.5404C114.534 28.0418 116.616 26.9439 118.323 25.2058C120.7 22.7834 121.804 19.8105 121.944 16.4554C122.018 14.6763 121.776 12.9335 121.17 11.2551C119.984 7.96292 117.821 5.55157 114.614 4.12332C111.963 2.94202 109.193 2.72023 106.368 3.28178C103.474 3.85748 101.052 5.26843 99.1957 7.58698C97.25 10.0204 96.421 12.8375 96.399 15.9206M93.791 16.3846C93.8382 12.0636 94.9644 8.60784 97.5095 5.67583C99.7526 3.0946 102.593 1.51377 105.936 0.871997C109.393 0.208206 112.769 0.51808 115.973 2.02655C119.89 3.87164 122.543 6.89016 123.795 11.0239C125.198 15.6531 124.749 20.1345 122.216 24.3107C120.607 26.9659 118.306 28.8582 115.444 30.0678C113.183 31.0242 110.814 31.4017 108.372 31.2805C104.685 31.0965 101.399 29.868 98.6531 27.3544C96.1221 25.039 94.6168 22.1558 94.0537 18.7849C93.8933 17.838 93.8429 16.8738 93.791 16.3846" fill="#112950"/>
<path fill-rule="evenodd" clip-rule="evenodd" d="M9.89365 9.58208C9.86848 9.57893 9.84489 9.57421 9.81815 9.57106C9.082 11.9746 8.34743 14.378 7.60184 16.8114H11.8394C11.1851 14.3828 10.5401 11.9824 9.89365 9.58208M19.171 24.9405H14.4914C13.9204 24.9405 13.9173 24.9405 13.7663 24.4057C13.3951 23.0797 13.016 21.7568 12.6605 20.4261C12.5881 20.1555 12.4654 20.0848 12.1996 20.0879C10.5228 20.0989 8.8492 20.0989 7.174 20.0879C6.93019 20.0863 6.82008 20.154 6.7493 20.3962C6.34347 21.8056 5.91248 23.2087 5.50508 24.618C5.43272 24.8666 5.32419 24.9499 5.06308 24.9468C3.68201 24.9326 2.30095 24.9405 0.919887 24.9405H0.558105C0.649337 24.6464 0.723267 24.3915 0.808207 24.1383C1.45155 22.1973 2.09647 20.2562 2.74295 18.3167C3.82201 15.089 4.90263 11.866 5.9754 8.63672C6.07921 8.32213 6.15943 7.99024 6.18932 7.66149C6.23808 7.07949 5.94708 6.74917 5.35722 6.67524C5.04735 6.63749 4.73275 6.62962 4.39299 6.60603V4.93868C4.49366 4.93397 4.59276 4.92453 4.69186 4.92453C7.09849 4.92453 9.50513 4.92295 11.9102 4.92453C12.9767 4.9261 13.6169 5.40114 13.9141 6.43772C14.8312 9.64185 15.7419 12.8475 16.6558 16.0517C17.4659 18.8956 18.2791 21.7395 19.0908 24.5819C19.1191 24.6873 19.138 24.7926 19.171 24.9405" fill="#112950"/>
<path fill-rule="evenodd" clip-rule="evenodd" d="M136.246 8.32295C136.246 10.2813 136.243 12.1987 136.255 14.1177C136.257 14.1775 136.411 14.2908 136.491 14.2876C137.13 14.2688 137.771 14.2656 138.402 14.1822C139.333 14.058 140.145 13.6883 140.595 12.7933C140.93 12.1279 140.963 11.4044 140.897 10.6824C140.79 9.49638 140.224 8.82472 139.126 8.51957C138.191 8.2616 137.24 8.31508 136.246 8.32295M136.244 17.6978V18.2169C136.244 20.3388 136.239 22.4608 136.249 24.5811C136.25 24.8517 136.191 24.9492 135.898 24.946C134.548 24.9319 133.199 24.9397 131.848 24.9397C131.758 24.9397 131.67 24.9319 131.557 24.9256V4.93163C131.654 4.92377 131.753 4.91118 131.849 4.91118C134.308 4.91433 136.763 4.90175 139.22 4.93163C140.494 4.94736 141.748 5.14398 142.885 5.77317C144.497 6.66819 145.369 8.09801 145.685 9.86917C146 11.6388 145.71 13.3187 144.752 14.8618C143.967 16.128 142.762 16.8217 141.391 17.2668C140.208 17.6506 138.976 17.6664 137.749 17.6962C137.263 17.7088 136.777 17.6978 136.244 17.6978" fill="#112950"/>
<path fill-rule="evenodd" clip-rule="evenodd" d="M72.8907 24.9189H68.2221V24.5445C68.2205 21.386 68.2237 18.2291 68.2111 15.0706C68.2095 14.7434 68.1372 14.4083 68.0554 14.089C67.9751 13.776 67.7313 13.6093 67.4167 13.5527C66.539 13.3985 65.7824 13.6801 65.0793 14.185C64.6184 14.5137 64.4139 14.9023 64.4218 15.5047C64.4564 18.5091 64.4375 21.515 64.4375 24.5209V24.9205H59.7989V24.5162V13.1547V12.9722C59.791 11.9514 59.5315 11.6777 58.5201 11.61C58.4917 11.6085 58.4634 11.5959 58.4272 11.5864V9.92697H58.712C60.0631 9.92697 61.4127 9.92383 62.7639 9.93169C62.9841 9.93169 63.2122 9.95371 63.423 10.0103C63.9908 10.1629 64.2614 10.5986 64.2865 11.3552C64.2913 11.5172 64.2865 11.6777 64.2865 11.9152C64.5775 11.673 64.8182 11.4716 65.0589 11.2687C66.3109 10.207 67.7486 9.67058 69.3987 9.75709C70.4211 9.81057 71.3507 10.0827 72.0586 10.8959C72.5729 11.4858 72.7711 12.1842 72.8262 12.9361C72.8655 13.4819 72.8875 14.0293 72.8875 14.5767C72.8938 17.8972 72.8907 21.2177 72.8907 24.5382V24.9189Z" fill="#112950"/>
<path fill-rule="evenodd" clip-rule="evenodd" d="M183.774 9.93583H188.035V12.0184C188.063 12.0326 188.09 12.0452 188.118 12.0593C188.21 11.9807 188.313 11.9115 188.395 11.825C189.455 10.6924 190.714 9.92482 192.285 9.76753C193.21 9.67315 194.118 9.76438 194.934 10.2489C195.909 10.8277 196.336 11.7715 196.51 12.8364C196.605 13.4231 196.638 14.0271 196.641 14.6217C196.652 17.9123 196.645 21.203 196.645 24.492V24.9136H192.163C192.155 24.7925 192.14 24.6651 192.139 24.5392C192.139 21.7567 192.144 18.9741 192.134 16.1931C192.133 15.707 192.098 15.2178 192.023 14.7397C191.903 13.9705 191.489 13.6402 190.709 13.6244C189.923 13.6103 189.293 13.9485 188.707 14.4455C188.356 14.7412 188.233 15.059 188.236 15.5151C188.257 18.5211 188.247 21.5254 188.247 24.5314V24.9246C188.123 24.9309 188.024 24.9403 187.928 24.9403C186.648 24.9419 185.369 24.9325 184.088 24.9466C183.81 24.9498 183.752 24.857 183.753 24.5974C183.76 19.8156 183.758 15.0322 183.76 10.2504C183.76 10.1513 183.768 10.0522 183.774 9.93583" fill="#112950"/>
<path fill-rule="evenodd" clip-rule="evenodd" d="M51.7707 17.7235C50.7231 17.9186 49.7227 18.1451 48.7978 18.6217C48.4518 18.801 48.2111 19.0999 48.1686 19.4695C48.1057 20.0059 48.0727 20.558 48.1325 21.0928C48.1985 21.7047 48.5336 21.9391 49.1533 21.9407C50.2025 21.9422 50.9905 21.3996 51.7031 20.7059C51.7408 20.6681 51.7676 20.5989 51.7676 20.5439C51.7723 19.6143 51.7707 18.6831 51.7707 17.7235M51.8053 15.147C51.7613 14.7396 51.7471 14.3543 51.6732 13.983C51.5835 13.5237 51.2737 13.2406 50.8191 13.1289C50.1034 12.9527 49.3893 13.0503 48.6783 13.1667C47.6543 13.3334 46.6743 13.6543 45.7242 14.0727C45.6346 14.1136 45.5402 14.1498 45.4207 14.2001C45.0746 13.2469 44.7349 12.3094 44.3888 11.3515C45.2948 10.8717 46.2087 10.4738 47.1855 10.2284C48.79 9.82569 50.418 9.63065 52.0664 9.75491C52.7176 9.80367 53.3814 9.92322 53.9965 10.134C55.302 10.5839 55.9218 11.6283 56.1294 12.9323C56.2254 13.5395 56.2647 14.1624 56.2678 14.7774C56.2836 17.0834 56.2726 19.3877 56.2773 21.6921C56.2773 21.9454 56.2946 22.2002 56.3245 22.4503C56.389 23.0134 56.7004 23.295 57.2667 23.3265C57.3673 23.3312 57.4664 23.3359 57.5844 23.3422V24.9262C57.4712 24.9324 57.3642 24.9403 57.2541 24.9403C55.9768 24.9403 54.6964 24.9419 53.4176 24.9372C53.2257 24.9372 53.0322 24.9183 52.8451 24.879C52.3291 24.7704 52.002 24.3898 51.9469 23.8581C51.9327 23.7087 51.917 23.5577 51.895 23.3422C51.7566 23.4444 51.6543 23.5136 51.5584 23.5907C50.2544 24.6619 48.7569 25.1275 47.077 25.0787C45.1281 25.0237 43.8697 23.8691 43.6652 21.9312C43.5598 20.923 43.5598 19.9257 43.8729 18.9505C44.2661 17.7298 45.1092 16.9339 46.2685 16.4353C47.5457 15.8848 48.9064 15.6504 50.2623 15.405C50.7499 15.3169 51.2406 15.2414 51.8053 15.147" fill="#112950"/>
<path fill-rule="evenodd" clip-rule="evenodd" d="M154.309 18.3124C153.464 18.2495 152.689 18.3439 151.926 18.5861C150.806 18.9432 150.463 19.8052 150.598 20.8386C150.674 21.4238 151.078 21.8343 151.647 21.9114C152.627 22.0451 153.494 21.7981 154.181 21.0494C154.239 20.9865 154.302 20.8984 154.302 20.8213C154.312 19.9924 154.309 19.1634 154.309 18.3124M147.753 14.3171C147.443 13.3655 147.138 12.4531 146.858 11.5345C146.836 11.4637 146.946 11.308 147.034 11.2561C148.051 10.6537 149.149 10.2431 150.302 9.98202C151.63 9.68315 152.973 9.61394 154.326 9.68472C155.101 9.72562 155.849 9.89865 156.552 10.2431C157.915 10.9085 158.553 12.0536 158.675 13.5196C158.729 14.1457 158.751 14.7748 158.752 15.4025C158.76 18.4383 158.757 21.4741 158.757 24.5083V24.9189H154.496C154.496 24.4847 154.501 24.0632 154.491 23.6401C154.49 23.5284 154.446 23.4183 154.419 23.3082C154.321 23.3648 154.203 23.4041 154.128 23.4843C152.519 25.1643 150.548 25.3719 148.432 24.8277C147.43 24.5697 146.732 23.8666 146.408 22.8819C145.863 21.2303 145.901 19.5991 146.836 18.0812C147.424 17.1264 148.341 16.5664 149.376 16.1937C150.433 15.813 151.529 15.6384 152.648 15.5881C153.124 15.5676 153.601 15.5535 154.079 15.5503C154.244 15.5487 154.321 15.5015 154.312 15.3254C154.299 15.0407 154.332 14.7528 154.29 14.4744C154.156 13.5684 153.555 13.1106 152.486 13.0713C151.046 13.021 149.689 13.3309 148.413 13.9962C148.207 14.1032 147.996 14.1991 147.753 14.3171" fill="#112950"/>
<path fill-rule="evenodd" clip-rule="evenodd" d="M203.279 15.812H207.471C207.369 15.1812 207.316 14.5725 207.163 13.9905C206.973 13.2827 206.501 12.8013 205.736 12.718C204.931 12.6299 204.245 12.8721 203.798 13.5878C203.377 14.2626 203.275 15.0192 203.279 15.812M211.832 18.6197H211.405C208.807 18.6197 206.207 18.6182 203.608 18.6182C203.224 18.6182 203.229 18.6182 203.268 19.0051C203.334 19.6799 203.482 20.3295 203.896 20.8848C204.398 21.5612 205.12 21.816 205.916 21.9261C207.498 22.1416 208.953 21.7861 210.304 20.954C210.373 20.9131 210.446 20.8769 210.545 20.8219C210.62 21.0547 210.693 21.2717 210.762 21.4904C210.955 22.107 211.138 22.7299 211.349 23.3418C211.415 23.5352 211.355 23.606 211.204 23.702C209.656 24.6977 207.94 25.0909 206.125 25.1397C204.755 25.1774 203.433 24.9902 202.202 24.3579C200.39 23.422 199.361 21.8821 198.935 19.9379C198.463 17.7861 198.568 15.65 199.484 13.624C200.629 11.0852 202.641 9.77023 205.426 9.66484C206.535 9.62394 207.614 9.76551 208.62 10.2736C209.868 10.9091 210.652 11.9488 211.139 13.2339C211.668 14.6275 211.821 16.0841 211.832 17.5611C211.832 17.904 211.832 18.2454 211.832 18.6197" fill="#112950"/>
<path fill-rule="evenodd" clip-rule="evenodd" d="M86.7695 24.9408H86.4124C82.738 24.9408 79.0619 24.9361 75.3859 24.9487C75.0713 24.9487 74.9911 24.8622 74.9974 24.557C75.0163 23.7359 74.999 22.9117 75.0084 22.0906C75.0116 21.9491 75.0572 21.7855 75.1358 21.6722C77.102 18.9006 79.0745 16.1338 81.0455 13.367C81.121 13.26 81.1902 13.1499 81.2657 13.0351C81.2279 13.0083 81.2059 12.9769 81.1823 12.9769C80.0859 12.9721 78.9896 12.9454 77.8932 12.9784C77.1272 13.0005 76.8881 13.2773 76.8126 14.0465C76.8079 14.1063 76.8032 14.166 76.7969 14.2478H75.1028V12.1982C75.1028 11.9544 75.1012 11.7106 75.1044 11.4668C75.1154 10.4617 75.5794 9.98036 76.5861 9.93003C76.7088 9.92374 76.8315 9.92846 76.9526 9.92846H86.1513H86.4848C86.4848 10.5985 86.4407 11.2482 86.4958 11.8899C86.5618 12.6811 86.3259 13.3088 85.854 13.9521C84.0105 16.4594 82.2236 19.0092 80.4178 21.5448C80.3738 21.6061 80.3392 21.6769 80.2716 21.7933H86.7695V24.9408Z" fill="#112950"/>
<path fill-rule="evenodd" clip-rule="evenodd" d="M234.58 11.3189C234.162 12.3665 233.772 13.3417 233.407 14.2587C232.844 13.952 232.309 13.595 231.725 13.3637C230.807 13.0004 229.835 12.9139 228.858 13.1341C228.441 13.2285 228.089 13.4251 228.024 13.9017C227.96 14.3783 228.18 14.7558 228.705 14.9666C229.484 15.278 230.289 15.5234 231.069 15.8364C231.677 16.0802 232.289 16.3366 232.852 16.6685C234.248 17.488 234.823 18.7527 234.736 20.354C234.615 22.5483 233.327 24.1889 231.154 24.7662C228.386 25.5023 225.769 25.1657 223.37 23.5267C223.338 23.5046 223.307 23.4763 223.253 23.4338C223.636 22.4492 224.019 21.4629 224.411 20.4547C225.166 21.0524 226.011 21.4157 226.907 21.6485C227.681 21.8483 228.473 21.8861 229.256 21.6847C230.097 21.4692 230.231 20.8605 230.091 20.2392C229.992 19.8019 229.556 19.6226 229.163 19.481C228.515 19.2482 227.846 19.0673 227.208 18.8109C226.561 18.5514 225.92 18.2651 225.316 17.9222C224.281 17.3339 223.618 16.4546 223.499 15.2371C223.367 13.9048 223.557 12.6433 224.441 11.569C225.152 10.7023 226.096 10.2052 227.172 9.97242C229.158 9.53828 231.123 9.58862 233.011 10.4223C233.552 10.6629 234.046 11.009 234.58 11.3189" fill="#112950"/>
<path fill-rule="evenodd" clip-rule="evenodd" d="M174.054 13.0179H171.946V9.92077H172.588C173.044 9.92077 173.501 9.91133 173.958 9.92549C174.164 9.93021 174.238 9.861 174.266 9.65808C174.431 8.44375 174.61 7.23257 174.785 6.01982C174.829 5.71938 174.861 5.4158 174.922 5.12008C174.938 5.03986 175.048 4.92189 175.115 4.92189C176.21 4.91245 177.306 4.91874 178.404 4.92346C178.42 4.92346 178.439 4.93919 178.499 4.96908V5.36389C178.499 6.77484 178.505 8.18579 178.496 9.59674C178.492 9.84369 178.559 9.92863 178.818 9.92549C179.844 9.91133 180.868 9.9192 181.917 9.9192V13.1233H178.497V13.515C178.497 15.5142 178.492 17.515 178.502 19.5143C178.503 19.8572 178.543 20.2032 178.609 20.5399C178.738 21.1989 179.139 21.545 179.815 21.5607C180.32 21.5733 180.827 21.5277 181.333 21.5072C181.402 21.5057 181.472 21.5072 181.56 21.5072C181.566 21.6095 181.575 21.7007 181.575 21.7888C181.577 22.591 181.568 23.3932 181.582 24.1954C181.585 24.4046 181.52 24.5273 181.327 24.5777C180.68 24.7397 180.039 24.9709 179.383 25.0354C178.582 25.114 177.753 25.1534 176.964 25.0307C175.369 24.7821 174.552 23.6795 174.25 22.1726C174.126 21.5497 174.069 20.9064 174.063 20.2709C174.041 17.9979 174.054 15.7234 174.054 13.4489V13.0179Z" fill="#112950"/>
<path fill-rule="evenodd" clip-rule="evenodd" d="M20.5758 24.9235V24.6042C20.5774 19.0202 20.5758 13.4361 20.5774 7.85211C20.5774 6.96653 20.2943 6.66609 19.4103 6.62519C19.3426 6.62205 19.2734 6.61261 19.1885 6.60474V4.92324H19.5267C20.9376 4.92324 22.3501 4.92167 23.7611 4.92482C24.7442 4.92639 25.2617 5.4439 25.2617 6.43015C25.2617 12.4703 25.2617 18.5121 25.2617 24.5538V24.9235H20.5758Z" fill="#112950"/>
<path fill-rule="evenodd" clip-rule="evenodd" d="M27.2192 6.61673V4.94152C27.3262 4.93523 27.4253 4.92422 27.5228 4.92422C28.9637 4.92422 30.4061 4.92265 31.8485 4.92579C32.7183 4.92737 33.2877 5.47319 33.2877 6.34775C33.294 12.4807 33.2909 18.6137 33.2909 24.7467C33.2909 24.7971 33.2814 24.8474 33.2767 24.9182H28.6019V24.4746V8.05599C28.6019 7.95532 28.6034 7.85308 28.6019 7.75241C28.5846 7.00368 28.3062 6.70324 27.5669 6.63403C27.4583 6.62302 27.3482 6.62302 27.2192 6.61673" fill="#112950"/>
<path fill-rule="evenodd" clip-rule="evenodd" d="M213.812 9.93449H218.044C218.044 10.4929 218.039 11.0371 218.047 11.5814C218.05 11.6899 218.108 11.7969 218.14 11.9038C218.233 11.8378 218.346 11.789 218.41 11.7041C218.841 11.1331 219.321 10.6172 219.949 10.2522C220.804 9.7536 221.704 9.75045 222.624 10.0131C222.693 10.032 222.788 10.1437 222.788 10.2129C222.797 11.52 222.796 12.8287 222.796 14.1626C222.347 14.0698 221.929 13.9581 221.504 13.9015C220.358 13.7536 219.332 14.0415 218.468 14.8264C218.38 14.9051 218.338 15.0718 218.338 15.1961C218.33 18.3121 218.332 21.4297 218.332 24.5458V24.9186C218.225 24.9264 218.146 24.9374 218.067 24.9374C216.779 24.939 215.489 24.9406 214.201 24.9406C213.8 24.9406 213.8 24.939 213.8 24.5473V13.5838C213.8 12.467 213.798 11.3517 213.798 10.2349C213.798 10.1453 213.806 10.0556 213.812 9.93449" fill="#112950"/>
<path fill-rule="evenodd" clip-rule="evenodd" d="M161.213 9.93778H165.449C165.449 10.4962 165.445 11.042 165.454 11.5862C165.456 11.6932 165.514 11.7986 165.547 11.904C165.637 11.8348 165.747 11.7797 165.813 11.6916C166.223 11.1427 166.684 10.6503 167.276 10.2917C168.15 9.76003 169.075 9.73486 170.028 10.0227C170.097 10.0432 170.193 10.1486 170.193 10.2146C170.204 11.5233 170.201 12.832 170.201 14.1643C169.756 14.0747 169.336 13.9677 168.913 13.9079C167.752 13.7459 166.717 14.0401 165.849 14.836C165.751 14.9272 165.71 15.1223 165.709 15.2686C165.701 16.9532 165.703 18.6394 165.703 20.3256V24.527V24.914H161.213V9.93778Z" fill="#112950"/>
<path fill-rule="evenodd" clip-rule="evenodd" d="M36.7677 24.9401V24.4981C36.7677 20.6522 36.7677 16.8063 36.7693 12.9604C36.7693 12.9101 36.7693 12.8582 36.7677 12.8079C36.7551 11.9773 36.4421 11.6549 35.61 11.6124C35.5502 11.6093 35.4889 11.6045 35.4023 11.5998V9.94978C35.4653 9.94349 35.5439 9.92933 35.621 9.92933C37.0414 9.92776 38.4618 9.92304 39.8806 9.93248C40.1102 9.93405 40.3493 9.9718 40.5648 10.0489C41.1641 10.2612 41.4331 10.7457 41.4347 11.5668C41.4394 13.1791 41.4362 14.7929 41.4362 16.4068V24.5359C41.4362 24.9401 41.4362 24.9401 41.0461 24.9401H37.2411H36.7677Z" fill="#112950"/>
<path fill-rule="evenodd" clip-rule="evenodd" d="M38.8353 8.93544C38.1322 8.89611 37.4637 8.77971 36.8974 8.3613C35.7334 7.49932 35.8876 5.59289 37.1806 4.94483C38.1951 4.43833 39.2616 4.45249 40.3013 4.86303C41.1743 5.20751 41.5581 5.92006 41.5125 6.90317C41.4732 7.75571 40.9683 8.4258 40.1094 8.68848C39.6989 8.81432 39.2616 8.85679 38.8353 8.93544" fill="#112950"/>
<path fill-rule="evenodd" clip-rule="evenodd" d="M111.385 24.5432H109.265C108.636 24.5432 108.007 24.5432 107.378 24.5432C106.959 24.5432 106.959 24.5432 106.959 24.1326C106.959 20.6501 106.959 17.1691 106.961 13.6881V9.0589V8.84498C106.958 7.88704 106.766 7.68885 105.812 7.6511C105.764 7.64795 105.716 7.64166 105.65 7.63537V5.78399H105.989C107.208 5.78399 108.425 5.78084 109.644 5.78714C109.875 5.78871 110.11 5.80916 110.339 5.85163C110.89 5.95387 111.242 6.33138 111.33 6.90551C111.363 7.13517 111.381 7.36954 111.381 7.60076C111.385 13.1234 111.385 18.6461 111.385 24.1688V24.5432Z" fill="#112950"/>
<path fill-rule="evenodd" clip-rule="evenodd" d="M104.972 24.5229C104.883 24.5307 104.823 24.5417 104.763 24.5417C103.475 24.5433 102.187 24.5386 100.897 24.548C100.662 24.5496 100.587 24.4788 100.587 24.2334C100.595 19.9015 100.592 15.568 100.596 11.2329C100.596 11.0315 100.614 10.8255 100.658 10.6304C100.807 9.95405 101.252 9.58283 101.984 9.56239C102.907 9.53879 103.829 9.55295 104.752 9.53722C105.01 9.5325 104.99 9.68193 104.99 9.85181C104.988 13.8204 104.988 17.7874 104.988 21.756V24.1925C104.986 24.3011 104.977 24.4096 104.972 24.5229" fill="#112950"/>
<path fill-rule="evenodd" clip-rule="evenodd" d="M113.389 9.5634C114.428 9.5634 115.445 9.52564 116.456 9.57598C117.261 9.61688 117.684 10.1187 117.739 10.9303C117.749 11.0923 117.755 11.2543 117.755 11.4163V24.1133V24.5223H113.389V9.5634Z" fill="#112950"/>
</svg>
