<svg width="110" height="32" viewBox="0 0 110 32" fill="none" xmlns="http://www.w3.org/2000/svg">
<path fill-rule="evenodd" clip-rule="evenodd" d="M43.2788 15.9007C43.2788 19.7798 41.9609 23.3506 39.7599 26.1894L41.985 27.8449C44.5234 24.542 46.0408 20.3984 46.0408 15.9007C46.0408 11.4898 44.5838 7.41808 42.1335 4.14734L39.9045 5.80556C42.0174 8.61266 43.2788 12.1087 43.2788 15.9007Z" fill="#112950"/>
<path fill-rule="evenodd" clip-rule="evenodd" d="M47.8648 0.799316L45.6363 2.45731C48.2928 6.2622 49.859 10.8986 49.859 15.9004C49.859 20.9889 48.2385 25.7 45.4973 29.5412L47.724 31.1978C50.803 26.893 52.6209 21.6078 52.6209 15.9004C52.6209 10.28 50.8589 5.06784 47.8648 0.799316Z" fill="#112950"/>
<path fill-rule="evenodd" clip-rule="evenodd" d="M10.244 15.9012C10.244 12.1057 11.5079 8.60651 13.6243 5.79825L11.3955 4.14026C8.94175 7.41238 7.48218 11.4869 7.48218 15.9012C7.48218 20.4028 9.00192 24.5497 11.5444 27.8539L13.7695 26.1985C11.5644 23.3585 10.244 19.7842 10.244 15.9012Z" fill="#112950"/>
<mask id="mask0_1314_5937" style="mask-type:alpha" maskUnits="userSpaceOnUse" x="0" y="0" width="9" height="32">
<path fill-rule="evenodd" clip-rule="evenodd" d="M0.901001 0.793091H8.03054V31.2069H0.901001V0.793091Z" fill="white"/>
</mask>
<g mask="url(#mask0_1314_5937)">
<path fill-rule="evenodd" clip-rule="evenodd" d="M8.03064 29.5515C5.28585 25.7087 3.66304 20.9942 3.66304 15.9019C3.66304 10.8967 5.23137 6.25735 7.89125 2.45108L5.66295 0.79332L5.66249 0.793091C2.66502 5.063 0.901001 10.2779 0.901001 15.9019C0.901001 21.6126 2.7211 26.901 5.80325 31.2069L5.81211 31.2019L8.03064 29.5515Z" fill="#112950"/>
</g>
<path fill-rule="evenodd" clip-rule="evenodd" d="M35.8587 7.81159L29.2712 11.6585V3.98742C28.4543 3.8145 27.6079 3.72241 26.7402 3.72241C25.8939 3.72241 25.0675 3.80922 24.2692 3.97387V11.6585L17.6425 7.7884C16.5198 9.03465 15.6471 10.5138 15.0961 12.1437L21.7683 16.0402L15.0237 19.979C15.5449 21.6209 16.3945 23.1129 17.4938 24.3789L24.2692 20.422V28.3659C25.0675 28.5305 25.8939 28.6171 26.7402 28.6171C27.6079 28.6171 28.4543 28.5253 29.2712 28.3523V20.422L36.0067 24.3552C37.1026 23.0869 37.9492 21.5931 38.4666 19.9494L31.7724 16.0402L38.3939 12.1731C37.8472 10.5415 36.9781 9.06037 35.8587 7.81159Z" fill="#112950"/>
<path fill-rule="evenodd" clip-rule="evenodd" d="M72.2126 17.7944L69.4446 11.3521L66.6759 17.7944H72.2126ZM61.9051 22.3041L67.7568 9.10054C68.0717 8.39463 68.6348 7.96222 69.4223 7.96222H69.5572C70.3452 7.96222 70.8853 8.39463 71.2 9.10054L77.0515 22.3041C77.1643 22.5089 77.2092 22.714 77.2092 22.8961C77.2092 23.6474 76.6469 24.239 75.904 24.239C75.2511 24.239 74.8009 23.852 74.5537 23.2603L73.2705 20.2784H65.6184L64.2908 23.3512C64.0658 23.9205 63.5933 24.239 63.0078 24.239C62.2875 24.239 61.7251 23.6699 61.7251 22.9415C61.7251 22.7369 61.7928 22.5319 61.9051 22.3041Z" fill="#112950"/>
<path fill-rule="evenodd" clip-rule="evenodd" d="M79.5203 9.50901C79.5203 8.7349 80.1283 8.09766 80.9156 8.09766H81.2085C81.816 8.09766 82.221 8.41639 82.491 8.84857L87.2624 16.4064L92.056 8.82607C92.3488 8.34819 92.7541 8.09766 93.3164 8.09766H93.6091C94.3966 8.09766 95.0046 8.7349 95.0046 9.50901V22.8492C95.0046 23.623 94.3966 24.2376 93.6091 24.2376C92.8662 24.2376 92.236 23.6001 92.236 22.8492V13.2879L88.3878 19.1382C88.095 19.5936 87.7349 19.8666 87.2173 19.8666C86.7223 19.8666 86.3623 19.5936 86.0699 19.1382L82.2433 13.3334V22.8717C82.2433 23.6462 81.6357 24.2376 80.8706 24.2376C80.1055 24.2376 79.5203 23.6462 79.5203 22.8717V9.50901Z" fill="#112950"/>
<path fill-rule="evenodd" clip-rule="evenodd" d="M98.4238 22.3487C98.1087 22.1211 97.8837 21.7342 97.8837 21.2791C97.8837 20.5504 98.4687 19.9811 99.1891 19.9811C99.5719 19.9811 99.8191 20.0953 99.9991 20.2314C101.305 21.2791 102.7 21.8704 104.411 21.8704C106.121 21.8704 107.201 21.051 107.201 19.867V19.822C107.201 18.6834 106.571 18.0689 103.645 17.386C100.292 16.5664 98.4015 15.5647 98.4015 12.6283V12.5824C98.4015 9.85061 100.652 7.96136 103.78 7.96136C105.761 7.96136 107.359 8.48471 108.777 9.44116C109.092 9.62326 109.385 10.0102 109.385 10.5565C109.385 11.2849 108.799 11.854 108.079 11.854C107.809 11.854 107.584 11.7858 107.359 11.6491C106.144 10.8523 104.973 10.4428 103.735 10.4428C102.115 10.4428 101.17 11.2849 101.17 12.3321V12.3778C101.17 13.607 101.89 14.1534 104.928 14.8818C108.259 15.7013 109.969 16.9081 109.969 19.549V19.594C109.969 22.5763 107.651 24.3521 104.343 24.3521C102.205 24.3521 100.179 23.6691 98.4238 22.3487Z" fill="#112950"/>
</svg>
