<svg width="206" height="35" viewBox="0 0 206 35" fill="none" xmlns="http://www.w3.org/2000/svg">
<g clip-path="url(#clip0_5961_7561)">
<mask id="mask0_5961_7561" style="mask-type:alpha" maskUnits="userSpaceOnUse" x="199" y="19" width="7" height="7">
<path d="M199.469 19.9385H205.052V25.3773H199.469V19.9385Z" fill="white"/>
</mask>
<g mask="url(#mask0_5961_7561)">
<path fill-rule="evenodd" clip-rule="evenodd" d="M199.469 22.6579C199.469 21.1936 200.757 19.9385 202.26 19.9385C203.794 19.9385 205.052 21.1936 205.052 22.6579C205.052 24.1524 203.794 25.3773 202.26 25.3773C200.757 25.3773 199.469 24.1524 199.469 22.6579Z" fill="#112950"/>
</g>
<mask id="mask1_5961_7561" style="mask-type:alpha" maskUnits="userSpaceOnUse" x="0" y="0" width="16" height="25">
<path d="M0.0585938 0.625H15.3286V24.7143H0.0585938V0.625Z" fill="white"/>
</mask>
<g mask="url(#mask1_5961_7561)">
<path fill-rule="evenodd" clip-rule="evenodd" d="M4.2316 16.8917C4.21294 19.4614 5.92011 20.9087 7.97505 20.9232C9.17019 20.9323 10.155 20.6105 10.9564 20.2281L11.0005 14.4008C10.0231 13.8256 8.95182 13.4293 7.78716 13.4208C6.28406 13.4099 4.25089 14.322 4.23098 16.8917H4.2316ZM13.8363 0.643206C14.7253 0.649873 15.3356 1.22199 15.3289 2.02866L15.1602 23.9941C15.1577 24.2935 14.8796 24.5602 14.5735 24.5577L12.979 24.5462C12.3948 24.542 11.5387 24.1777 11.1449 23.5765C10.1575 24.2268 8.86534 24.7262 7.27078 24.7143C2.94501 24.6826 0.0252849 21.2547 0.0588807 16.8614C0.0943429 12.4087 3.6443 9.56563 7.20172 9.59108C8.82863 9.60321 10.0511 10.0608 11.0292 10.6353L11.0839 3.52321C11.0914 2.44684 10.8811 1.93775 10.7623 1.36927C10.6733 0.97957 10.8294 0.6226 11.1368 0.625012L13.8363 0.644418V0.643206Z" fill="#112950"/>
</g>
<path fill-rule="evenodd" clip-rule="evenodd" d="M20.0251 9.80388C19.6872 9.80147 19.4409 10.0681 19.4384 10.3675L19.34 23.0675C19.3345 23.9342 19.882 24.596 20.8326 24.6027L23.0107 24.6185C23.3168 24.6209 23.5638 24.3845 23.5669 24.0251L23.6715 10.3978C23.6733 10.099 23.4002 9.82874 23.0941 9.82632L20.0251 9.80388ZM19.3121 2.9251C19.3208 1.69904 20.3411 0.691165 21.5985 0.700256C22.8564 0.709347 23.8923 1.73238 23.8817 2.95844C23.8736 4.18329 22.8216 5.16147 21.5655 5.15238C20.3063 5.14329 19.3027 4.14995 19.3121 2.9251Z" fill="#112950"/>
<path fill-rule="evenodd" clip-rule="evenodd" d="M33.1879 21.6141C34.2916 21.622 35.7673 21.1844 36.6949 20.4438C36.6682 19.8759 36.675 18.8602 36.7111 18.2032C34.5293 18.6359 31.6108 19.2117 31.5995 20.5566C31.594 21.3341 32.2373 21.6075 33.1879 21.6141ZM41.1775 24.0038C41.2366 24.3638 41.1097 24.7505 40.7719 24.7481L38.4718 24.7311C37.7059 24.7256 37.342 24.1263 37.1342 23.2269C36.1761 24.1172 35.0052 24.8559 32.3972 24.8366C29.2361 24.8135 27.2545 23.3063 27.2751 20.5863C27.3068 16.4917 31.8242 15.5681 36.8007 14.7681C36.8387 13.602 36.1039 13.3578 34.9081 13.3493C33.4349 13.3384 31.8988 13.7759 30.0517 14.539C29.5907 14.7153 29.3456 14.5935 29.1944 14.2638L28.2301 11.9863C28.0789 11.6863 28.3277 11.359 28.6357 11.1814C30.1438 10.3856 32.758 9.71656 35.2422 9.73474C38.9844 9.76201 41.0537 12.0487 40.8733 15.6032C40.7283 18.442 40.7389 21.0717 41.1769 24.0038H41.1775Z" fill="#112950"/>
<path fill-rule="evenodd" clip-rule="evenodd" d="M77.2953 24.2661C77.3538 24.6552 77.2287 25.0122 76.9201 25.0103L74.3444 24.9915C73.3627 24.9843 72.8158 24.3231 72.8221 23.4855L72.878 16.1049C72.8917 14.4316 71.5778 13.6449 70.1356 13.6346C68.7856 13.6243 67.6153 14.214 66.5658 15.1322L66.4955 24.3667C66.493 24.6661 66.2136 24.9328 65.9069 24.9303L62.8093 24.9079C62.5032 24.9055 62.2587 24.6352 62.2617 24.3358L62.3663 10.6794C62.3688 10.38 62.6152 10.1134 62.9219 10.1152L65.0397 10.1309C65.8061 10.1364 66.3219 10.7679 66.5017 11.3661C67.6128 10.6279 69.0288 9.95034 70.7771 9.96307C73.9376 9.9861 77.1428 12.0716 77.1149 15.7473L77.0645 22.3225C77.0881 23.1588 77.1764 23.7273 77.2947 24.2661H77.2953Z" fill="#112950"/>
<path fill-rule="evenodd" clip-rule="evenodd" d="M87.6847 21.4732C89.8634 21.489 91.4723 19.7671 91.4866 17.7647C91.5034 15.7029 89.9219 13.9586 87.7432 13.9429C85.565 13.9271 83.9568 15.6477 83.94 17.7102C83.9244 19.7126 85.5065 21.4574 87.6847 21.4732ZM87.6554 25.2986C83.3614 25.2671 79.827 21.9544 79.8606 17.6508C79.8942 13.2877 83.4765 10.0562 87.7724 10.0871C92.0671 10.1186 95.6015 13.4017 95.5673 17.7653C95.5337 22.0683 91.9501 25.3296 87.6554 25.2986Z" fill="#112950"/>
<path fill-rule="evenodd" clip-rule="evenodd" d="M99.495 20.8723C99.7432 20.456 99.9902 20.3378 100.357 20.519C100.357 20.5499 102.191 21.4596 103.969 21.4723C105.074 21.4802 105.537 21.1554 105.541 20.6772C105.545 20.079 104.901 19.8657 102.881 19.3426C100.126 18.6051 98.2364 16.9778 98.2538 14.7069C98.2699 12.4354 100.342 10.2087 104.117 10.2366C106.386 10.253 107.671 10.8596 109.106 11.6469C109.473 11.8596 109.654 12.219 109.437 12.5166L107.979 14.6578C107.761 14.9554 107.454 15.0717 107.148 14.9802C106.689 14.7681 105.343 14.1899 104.086 14.1802C103.104 14.1736 102.671 14.5293 102.669 14.8875C102.665 15.3657 103.492 15.6414 104.9 16.0099C107.624 16.7469 110.314 18.1711 110.292 20.8614C110.274 23.3711 107.681 25.4439 103.939 25.4172C101.423 25.3984 99.0999 24.1863 98.339 23.5833C98.125 23.4323 98.0043 23.1026 98.1598 22.8942L99.495 20.8723Z" fill="#112950"/>
<path fill-rule="evenodd" clip-rule="evenodd" d="M122.663 24.3286C122.722 24.5686 122.568 24.7462 122.352 24.9243C121.857 25.2789 120.659 25.4789 119.556 25.471C116.18 25.4462 114.627 23.9413 114.659 19.9371L114.7 14.468L112.952 14.4552C112.644 14.4534 112.37 14.2122 112.373 13.8837L112.378 13.2849C112.381 12.9862 112.442 12.7777 112.628 12.5698C114.36 10.7001 116.247 8.7401 117.892 6.21222C118.047 5.97464 118.171 5.85525 118.325 5.85645L118.632 5.85889C118.908 5.86071 119.029 6.01101 119.026 6.3104L118.995 10.5243L121.725 10.5437C122.062 10.5468 122.367 10.8177 122.365 11.1462L122.343 13.9249C122.34 14.254 122.031 14.5213 121.694 14.5189L119.516 14.5031C119.271 14.5013 119.056 14.4692 118.935 14.4092L118.894 19.6692C118.885 20.894 119.185 21.5825 120.382 21.5916C120.781 21.594 121.149 21.5383 121.458 21.4801C121.856 21.3934 122.1 21.6346 122.189 22.0237L122.663 24.3274V24.3286Z" fill="#112950"/>
<path fill-rule="evenodd" clip-rule="evenodd" d="M126.787 10.5802C126.449 10.5778 126.202 10.8445 126.2 11.1439L126.101 23.8439C126.096 24.7106 126.643 25.3724 127.594 25.3791L129.772 25.3948C130.079 25.3972 130.326 25.1609 130.328 24.8015L130.433 11.1742C130.435 10.8754 130.161 10.6051 129.855 10.6027L126.787 10.5802ZM126.073 3.70147C126.081 2.47541 127.103 1.46753 128.36 1.47662C129.618 1.48571 130.654 2.50874 130.643 3.73481C130.635 4.95965 129.583 5.93784 128.327 5.92875C127.068 5.91965 126.063 4.92632 126.073 3.70147Z" fill="#112950"/>
<path fill-rule="evenodd" clip-rule="evenodd" d="M149.53 25.5093L146.432 25.4869C146.124 25.4844 145.94 25.3929 145.729 25.1523L139.124 18.0808L139.073 24.8953C139.071 25.1941 138.792 25.4608 138.485 25.459L135.448 25.4366C135.111 25.4341 134.837 25.1632 134.839 24.8644L134.996 4.42262C135.004 3.31777 134.793 2.80747 134.675 2.26989C134.586 1.8802 134.741 1.52201 135.079 1.52443L137.749 1.54444C138.638 1.5505 139.248 2.12262 139.241 2.92929L139.133 16.976L144.61 11.0081C144.825 10.7705 145.041 10.7129 145.287 10.7147L148.354 10.7372C148.937 10.7414 149.299 11.5202 148.836 12.0257L143.578 17.576L150.031 24.2578C150.517 24.7996 150.267 25.5147 149.53 25.5093Z" fill="#112950"/>
<path fill-rule="evenodd" clip-rule="evenodd" d="M157.658 22.519C158.761 22.5269 160.237 22.0893 161.165 21.3487C161.139 20.7808 161.145 19.7651 161.181 19.1081C159 19.5408 156.081 20.1166 156.07 21.4614C156.064 22.239 156.707 22.5117 157.658 22.519ZM165.648 24.9087C165.707 25.2687 165.58 25.6554 165.243 25.6529L162.942 25.636C162.176 25.6305 161.812 25.0311 161.604 24.1317C160.646 25.022 159.474 25.7602 156.867 25.7414C153.706 25.7184 151.725 24.2105 151.745 21.4911C151.777 17.3966 156.294 16.4729 161.27 15.6729C161.309 14.5069 160.574 14.2626 159.378 14.2542C157.905 14.2433 156.369 14.6808 154.522 15.4439C154.061 15.6202 153.815 15.4984 153.665 15.1687L152.7 12.8911C152.549 12.5905 152.797 12.2639 153.105 12.0863C154.614 11.2905 157.228 10.6214 159.713 10.639C163.455 10.6663 165.523 12.9536 165.344 16.5081C165.198 19.3469 165.209 21.9766 165.647 24.9087H165.648Z" fill="#112950"/>
<path fill-rule="evenodd" clip-rule="evenodd" d="M180.538 11.5982C180.935 11.8697 181.086 12.0801 180.777 12.4964L179.163 14.7564C178.977 15.0237 178.732 15.1116 178.364 15.0194C177.935 14.8667 177.508 14.654 176.586 14.6473C175.667 14.6407 173.945 15.0164 173.471 16.9564L173.408 25.1443C173.405 25.4431 173.158 25.7098 172.821 25.7073L169.721 25.6849C169.415 25.6825 169.171 25.4122 169.174 25.1134L169.278 11.4564C169.281 11.1582 169.529 10.8904 169.836 10.8928L171.952 10.9079C172.78 10.914 173.327 11.6352 173.475 12.2643C174.402 11.4934 175.604 10.8146 177.353 10.8273C178.917 10.8388 180.018 11.2352 180.537 11.5982H180.538Z" fill="#112950"/>
<path fill-rule="evenodd" clip-rule="evenodd" d="M186.464 16.6316L192.57 16.6759C192.423 15.6892 191.326 14.6043 189.548 14.5916C187.8 14.5789 186.626 15.6765 186.464 16.6316ZM194.722 19.8601L186.409 19.7995C186.764 21.4759 188.415 22.3547 190.256 22.368C191.759 22.3789 193.357 21.9122 194.189 21.4692C194.559 21.2928 194.835 21.2353 195.138 21.6262L195.837 22.5874C196.08 22.8874 196.141 23.0971 195.923 23.3643C194.652 25.0886 192.466 26.0001 189.738 25.9801C185.441 25.9486 181.938 22.905 181.972 18.3619C182.005 14.0292 185.374 10.7959 189.669 10.8274C194.209 10.8601 197.006 14.228 196.979 17.7243C196.969 19.1589 196.073 19.8698 194.723 19.8601H194.722Z" fill="#112950"/>
<mask id="mask2_5961_7561" style="mask-type:alpha" maskUnits="userSpaceOnUse" x="43" y="27" width="16" height="7">
<path d="M43.8286 27.0791H58.7544V33.3296H43.8286V27.0791Z" fill="white"/>
</mask>
<g mask="url(#mask2_5961_7561)">
<path fill-rule="evenodd" clip-rule="evenodd" d="M54.9993 27.0791C54.8767 27.0791 54.7647 27.1536 54.7243 27.267C54.2241 28.6343 52.9039 29.8161 51.2546 29.804C49.6271 29.7924 48.3535 28.6167 47.8608 27.267C47.8203 27.1543 47.7084 27.0791 47.5852 27.0791H44.1248C43.9394 27.0791 43.7982 27.2433 43.8343 27.4203C44.5099 30.8343 47.5895 33.3033 51.2359 33.3294C54.9228 33.3561 58.0652 30.8803 58.7489 27.4203C58.7844 27.2433 58.6438 27.0791 58.4596 27.0791H54.9993Z" fill="#112950"/>
</g>
<path fill-rule="evenodd" clip-rule="evenodd" d="M51.263 21.57C53.476 21.5858 55.1091 19.8409 55.1234 17.8125C55.1396 15.7228 53.5332 13.9555 51.3221 13.9397C49.1098 13.9234 47.4766 15.667 47.4617 17.7567C47.4449 19.7858 49.0513 21.5543 51.263 21.57ZM51.2331 25.4464C46.8719 25.4143 43.2852 22.0573 43.3176 17.6967C43.3518 13.2755 46.9914 10.0009 51.3526 10.0325C55.712 10.064 59.3005 13.3912 59.2663 17.8125C59.2339 22.1731 55.5944 25.4779 51.2331 25.4464Z" fill="#112950"/>
<path fill-rule="evenodd" clip-rule="evenodd" d="M55.5801 10.1182C55.297 10.1182 55.0668 10.3424 55.0668 10.6194V11.8412H55.0469C55.0469 11.8412 59.2831 20.3557 59.2831 17.7994V10.6194C59.2831 10.3424 59.0529 10.1182 58.7685 10.1182H55.5801Z" fill="#112950"/>
</g>
<defs>
<clipPath id="clip0_5961_7561">
<rect width="205.308" height="34" fill="white" transform="translate(0.0585938 0.0185547)"/>
</clipPath>
</defs>
</svg>
