<svg width="247" height="24" viewBox="0 0 247 24" fill="none" xmlns="http://www.w3.org/2000/svg">
<path fill-rule="evenodd" clip-rule="evenodd" d="M136.35 5.87672L136.35 5.87783C136.363 6.0046 136.375 6.12287 136.388 6.22975C136.498 7.00075 136.318 6.99806 135.509 6.98594C135.396 6.98425 135.272 6.98239 135.134 6.98239C135.075 6.96771 134.998 6.95303 134.905 6.93555C134.207 6.80355 132.663 6.51136 131.998 4.84991C131.245 3.09375 132.123 0.710388 132.249 0.710388C132.301 0.710388 132.332 0.797659 132.377 0.926704V0.926714V0.926725V0.92674V0.926759V0.926782V0.926811V0.926819C132.44 1.1072 132.531 1.36914 132.751 1.58847C133.402 2.24027 133.678 2.3276 134.229 2.50225C134.314 2.52927 134.406 2.55838 134.507 2.59199C136.075 3.15219 136.243 4.81319 136.35 5.87672ZM136.89 9.99294C138.521 7.86046 141.155 7.60958 142.535 8.73854C144.04 9.8675 144.166 11.7491 143.915 13.2544C143.538 15.8886 141.531 17.7702 136.388 21.7843C131.245 17.8957 129.238 16.0141 128.862 13.2544C128.736 11.8745 128.987 9.99294 130.367 8.86398C131.872 7.73502 134.632 8.11134 136.137 10.1184C136.263 8.73854 136.639 6.48062 138.897 4.59902C139.023 4.47358 139.273 4.47358 139.399 4.59902C139.524 4.72446 139.524 4.97534 139.399 5.10078C137.392 6.7315 136.89 8.73854 136.89 9.99294ZM10.6975 20.7808C10.8229 20.9062 10.9483 21.1571 10.9483 21.2825C10.9483 21.5334 10.8229 21.6589 10.6975 21.7843C10.572 21.9097 10.4466 22.0352 10.1957 22.0352H1.16402C0.913137 22.0352 0.787697 21.9097 0.662257 21.7843C0.536817 21.6589 0.411377 21.5334 0.411377 21.2825V5.4771C0.411377 5.22622 0.536817 5.10078 0.662257 4.97534C0.787697 4.8499 1.03858 4.72446 1.16402 4.72446H10.1957C10.4466 4.72446 10.572 4.8499 10.6975 4.97534C10.8229 5.10078 10.9483 5.35166 10.9483 5.4771C10.9483 5.72798 10.8229 5.85342 10.6975 5.97886C10.572 6.1043 10.3211 6.22974 10.1957 6.22974H1.91666V12.3763H9.06674C9.31762 12.3763 9.44306 12.5017 9.5685 12.6272C9.69394 12.7526 9.81938 13.0035 9.81938 13.1289C9.81938 13.3798 9.69394 13.5053 9.5685 13.6307C9.44306 13.7561 9.19218 13.8816 9.06674 13.8816H1.91666V20.6553H10.1957C10.4466 20.5299 10.572 20.6553 10.6975 20.7808ZM28.7608 5.4771C28.7608 5.22622 28.6354 5.10078 28.5099 4.97534C28.259 4.72446 28.1336 4.72446 27.8827 4.72446C27.7573 4.72446 27.6318 4.72446 27.5064 4.8499C27.4437 4.91262 27.4123 4.97534 27.381 5.03806C27.3496 5.10078 27.3183 5.1635 27.2555 5.22622L21.3598 19.5264L15.5896 5.35166C15.4642 4.97534 15.2133 4.8499 14.837 4.8499C14.5861 4.8499 14.4606 4.97534 14.3352 5.10078C14.2098 5.22622 14.0843 5.35166 14.0843 5.60254C14.0843 5.66526 14.1157 5.72798 14.147 5.7907C14.1784 5.85342 14.2098 5.91614 14.2098 5.97886L20.7327 21.6589C20.7327 21.7843 20.8581 21.9097 20.9835 22.0352C21.109 22.1606 21.2344 22.1606 21.3598 22.1606C21.4853 22.1606 21.6107 22.1606 21.7362 22.0352C21.7989 21.9725 21.8303 21.9097 21.8616 21.847C21.893 21.7843 21.9243 21.7216 21.987 21.6589L28.6354 5.85342C28.7608 5.72798 28.7608 5.60254 28.7608 5.4771ZM42.8101 20.7808C42.9356 20.9062 43.061 21.1571 43.061 21.2825C43.061 21.5334 42.9356 21.6589 42.8101 21.7843C42.6847 21.9097 42.4338 22.0352 42.3084 22.0352H33.2767C33.0258 22.0352 32.9004 21.9097 32.7749 21.7843C32.6495 21.6589 32.524 21.408 32.524 21.2825V5.4771C32.524 5.22622 32.6495 5.10078 32.7749 4.97534C32.9004 4.8499 33.1512 4.72446 33.2767 4.72446H42.3084C42.5592 4.72446 42.6847 4.8499 42.8101 4.97534C42.9356 5.10078 43.061 5.35166 43.061 5.4771C43.061 5.72798 42.9356 5.85342 42.8101 5.97886C42.6847 6.1043 42.4338 6.22974 42.3084 6.22974H34.0293V12.3763H41.1794C41.4303 12.3763 41.5557 12.5017 41.6812 12.6272C41.8066 12.7526 41.932 13.0035 41.932 13.1289C41.932 13.3798 41.8066 13.5053 41.6812 13.6307C41.5557 13.7561 41.3048 13.8816 41.1794 13.8816H34.0293V20.6553H42.3084C42.5592 20.5299 42.6847 20.6553 42.8101 20.7808ZM60.9989 21.2825C60.9989 21.408 60.9989 21.5334 60.8735 21.6589C60.8256 21.7068 60.796 21.7547 60.7707 21.7956C60.7297 21.8618 60.7001 21.9097 60.6226 21.9097C60.4972 22.0352 60.3717 22.0352 60.2463 22.0352C60.1208 22.0352 59.9954 22.0352 59.87 21.9097C59.3682 21.6589 58.9919 21.1571 58.741 20.6553C58.4901 20.0281 58.3647 19.1501 58.3647 17.7702C58.3647 16.6413 57.9884 15.7632 57.3612 15.3869C56.734 14.8851 55.9813 14.6342 55.1032 14.6342H49.5839V21.2825C49.5839 21.5334 49.4584 21.6589 49.333 21.7843C49.2076 21.9097 49.0821 22.0352 48.8312 22.0352C48.6476 22.0352 48.5311 21.968 48.3835 21.8827L48.3835 21.8827L48.3832 21.8826L48.3832 21.8825C48.3292 21.8514 48.2711 21.8178 48.204 21.7843C48.0786 21.6589 48.0786 21.5334 48.0786 21.2825V5.4771C48.0786 5.22622 48.204 5.10078 48.3295 4.97534C48.4549 4.8499 48.7058 4.72446 48.8312 4.72446H55.4796C56.3576 4.72446 57.2357 4.97534 57.9884 5.35166C58.741 5.72798 59.3682 6.35518 59.7445 6.98238C60.1208 7.73502 60.3717 8.48766 60.3717 9.36574C60.3717 10.3693 60.1208 11.3728 59.4936 12.1254C58.9919 12.8781 58.2392 13.5053 57.3612 13.7561C58.1138 14.007 58.6156 14.5088 59.1173 15.136C59.6191 15.7632 59.87 16.6413 59.87 17.5193C59.87 18.5229 59.9954 19.2755 60.1208 19.6518C60.2463 20.0281 60.4972 20.4045 60.748 20.5299C60.796 20.6736 60.8439 20.7808 60.8848 20.8723C60.951 21.0204 60.9989 21.1275 60.9989 21.2825ZM55.4795 13.2544C56.1068 13.2544 56.6085 13.0035 57.1103 12.6272C57.612 12.2508 57.9883 11.8745 58.2392 11.2473C58.4901 10.7456 58.741 9.99293 58.741 9.36573C58.741 8.48765 58.3647 7.60957 57.7375 6.98237C57.1103 6.35517 56.2322 6.10429 55.2287 6.10429H49.4584V13.2544H55.4795ZM76.5534 5.85342L71.0341 13.3798V21.2825C71.0341 21.5334 70.9086 21.6589 70.7832 21.7843C70.6578 21.9097 70.5323 22.0352 70.2814 22.0352C70.0306 22.0352 69.9051 21.9097 69.7797 21.7843C69.6542 21.6589 69.5288 21.408 69.5288 21.2825V13.5053L64.0094 5.97886C63.884 5.85342 63.7586 5.60254 63.7586 5.4771C63.7586 5.35166 63.884 5.10078 64.0094 4.97534C64.1349 4.8499 64.3858 4.72446 64.5112 4.72446C64.7621 4.72446 65.013 4.8499 65.1384 5.10078L70.2814 12.1254L75.299 5.10078C75.4245 4.8499 75.6754 4.72446 75.9262 4.72446C76.1771 4.72446 76.3026 4.8499 76.428 4.97534C76.5534 5.10078 76.6789 5.35166 76.6789 5.4771C76.6789 5.4771 76.6789 5.60254 76.5534 5.85342ZM91.9826 5.85342C93.1115 6.60606 93.8642 7.73502 94.3659 8.98942C94.8677 10.2438 95.1186 11.7491 95.1186 13.3798C95.1186 15.0105 94.8677 16.5158 94.3659 17.7702C93.8642 19.0246 92.9861 20.1536 91.9826 20.9062C90.8536 21.6589 89.5992 22.0352 87.9685 22.0352H81.6965C81.4456 22.0352 81.3202 21.9097 81.1947 21.7843C81.0693 21.6589 80.9438 21.408 80.9438 21.2825V5.4771C80.9438 5.22622 81.0693 5.10078 81.1947 4.97534C81.3202 4.8499 81.571 4.72446 81.6965 4.72446H87.9685C89.5992 4.72446 90.8536 5.10078 91.9826 5.85342ZM92.108 18.5229C93.1115 17.143 93.6133 15.5123 93.6133 13.3798C93.6133 12 93.3624 10.871 92.9861 9.74205C92.6097 8.61309 91.9825 7.86045 91.1045 7.10781C90.2264 6.48061 89.0974 6.10429 87.843 6.10429H82.5745V20.5299H87.843C89.7246 20.5299 91.2299 19.9027 92.108 18.5229ZM112.053 21.7843C112.178 21.6589 112.304 21.5335 112.304 21.2826C112.304 21.2826 112.304 21.1571 112.178 21.0317L105.656 5.10081C105.656 4.97538 105.53 4.84994 105.405 4.72449C105.279 4.59906 105.154 4.59906 105.028 4.59906C104.652 4.59906 104.401 4.72449 104.276 5.10081L97.7528 21.0317V21.2826V21.408C97.8007 21.5038 97.8304 21.5814 97.8556 21.6476C97.8966 21.7547 97.9262 21.8322 98.0037 21.9098C98.1291 22.0352 98.2546 22.0352 98.5055 22.0352C98.7563 22.0352 99.0072 21.9098 99.1327 21.5335L101.014 17.0176H109.042L110.924 21.5335C110.924 21.6589 111.049 21.7843 111.175 21.9098C111.3 22.0352 111.426 22.0352 111.551 22.0352C111.802 22.0352 111.928 22.0352 112.053 21.7843ZM108.415 15.5123H101.516L104.903 7.10787L108.415 15.5123ZM120.583 13.3798L126.102 5.85342C126.139 5.78001 126.176 5.71734 126.206 5.66541L126.206 5.66526C126.28 5.53982 126.316 5.4771 126.228 5.4771C126.228 5.35166 126.102 5.10078 125.977 4.97534C125.851 4.8499 125.726 4.72446 125.475 4.72446C125.224 4.72446 124.973 4.8499 124.848 5.10078L119.83 12.1254L114.687 5.10078C114.562 4.8499 114.311 4.72446 114.06 4.72446C113.935 4.72446 113.684 4.8499 113.558 4.97534C113.433 5.10078 113.307 5.35166 113.307 5.4771C113.307 5.60254 113.433 5.85342 113.558 5.97886L119.078 13.5053V21.2825C119.078 21.408 119.203 21.6589 119.328 21.7843C119.454 21.9097 119.579 22.0352 119.83 22.0352C119.956 22.0352 120.207 21.9097 120.332 21.7843C120.457 21.6589 120.583 21.5334 120.583 21.2825V13.3798ZM245.396 21.1571C245.019 20.9062 244.768 20.4045 244.768 19.9027V6.85694C244.768 6.22974 245.145 5.72798 245.396 5.60254C245.521 5.4771 245.647 5.35166 245.647 5.22622C245.647 4.97534 245.396 4.72446 245.145 4.72446H241.256C241.005 4.72446 240.754 4.97534 240.754 5.22622C240.754 5.35166 240.88 5.60254 241.005 5.60254C241.382 5.85342 241.632 6.35518 241.632 6.85694V12.2509H233.855V6.98238C233.855 6.35518 234.232 5.85342 234.482 5.60254C234.608 5.4771 234.733 5.35166 234.733 5.22622C234.733 4.97534 234.482 4.72446 234.232 4.72446H230.217C229.967 4.72446 229.716 4.97534 229.716 5.22622C229.716 5.35166 229.841 5.60254 229.967 5.60254C230.217 5.85342 230.594 6.22974 230.594 6.85694V19.9027C230.594 20.4045 230.217 20.9062 229.967 21.1571C229.841 21.2825 229.716 21.408 229.716 21.5334C229.716 21.7843 229.967 22.0352 230.217 22.0352H234.232C234.482 22.0352 234.733 21.7843 234.733 21.5334C234.733 21.408 234.608 21.1571 234.482 21.1571C234.106 20.9062 233.855 20.4045 233.855 19.7773V14.3833H241.632V19.7773C241.632 20.279 241.256 20.7808 241.005 21.0317C240.88 21.1571 240.754 21.2825 240.754 21.408C240.754 21.6589 241.005 21.9097 241.256 21.9097H245.27C245.521 21.9097 245.772 21.6589 245.772 21.408C245.647 21.408 245.521 21.2825 245.396 21.1571ZM178.975 18.9619C179.038 18.9305 179.101 18.8992 179.163 18.8992C179.414 18.8992 179.54 19.0246 179.665 19.5264V21.408C179.665 21.7843 179.289 22.1606 178.913 22.1606H167.874C167.623 22.1606 167.372 21.9097 167.372 21.6589C167.372 21.5334 167.497 21.408 167.623 21.2825C167.874 21.0317 168.25 20.5299 168.25 19.9027V6.98238C168.25 6.35518 167.999 5.85342 167.623 5.60254C167.497 5.60254 167.372 5.35166 167.372 5.22622C167.372 4.97534 167.623 4.72446 167.874 4.72446H178.787C179.163 4.72446 179.54 5.10078 179.54 5.4771V7.3587C179.54 7.60958 179.289 7.86046 179.038 7.86046C178.913 7.86046 178.787 7.73502 178.662 7.60958C178.411 7.3587 177.909 6.98238 177.407 6.98238H171.386V12.2509H177.282C177.658 12.2509 177.909 12.5017 177.909 12.8781V13.8816C177.909 14.2579 177.658 14.5088 177.282 14.5088H171.386V19.7773H177.407C178.034 19.6518 178.536 19.4009 178.787 19.0246C178.85 19.0246 178.913 18.9933 178.975 18.9619ZM163.358 21.1571C162.982 20.9062 162.731 20.4045 162.731 19.9027V6.85694C162.731 6.22974 163.107 5.72798 163.358 5.60254C163.483 5.4771 163.609 5.35166 163.609 5.22622C163.609 4.97534 163.358 4.72446 163.107 4.72446H159.093C158.842 4.72446 158.591 4.97534 158.591 5.22622C158.591 5.35166 158.717 5.60254 158.842 5.60254C159.218 5.85342 159.469 6.35518 159.469 6.85694V12.2509H151.692V6.98238C151.692 6.35518 152.068 5.85342 152.319 5.60254C152.445 5.4771 152.57 5.35166 152.57 5.22622C152.57 4.97534 152.319 4.72446 152.068 4.72446H148.054C147.803 4.72446 147.552 4.97534 147.552 5.22622C147.552 5.35166 147.678 5.60254 147.803 5.60254C148.054 5.85342 148.431 6.22974 148.431 6.85694V19.9027C148.431 20.4045 148.054 20.9062 147.803 21.1571C147.678 21.2825 147.552 21.408 147.552 21.5334C147.552 21.7843 147.803 22.0352 148.054 22.0352H152.068C152.319 22.0352 152.57 21.7843 152.57 21.5334C152.57 21.408 152.445 21.1571 152.319 21.1571C151.943 20.9062 151.692 20.4045 151.692 19.7773V14.3833H159.469V19.7773C159.469 20.279 159.093 20.7808 158.842 21.0317C158.717 21.1571 158.591 21.2825 158.591 21.408C158.591 21.6589 158.842 21.9097 159.093 21.9097H163.107C163.358 21.9097 163.609 21.6589 163.609 21.408L163.358 21.1571ZM212.719 18.9619C212.781 18.9305 212.844 18.8992 212.907 18.8992C213.158 18.8992 213.409 19.0246 213.158 19.2755V21.2825C213.158 21.6589 212.781 22.0352 212.405 22.0352H201.743C201.492 22.0352 201.241 21.7843 201.241 21.5334C201.241 21.408 201.366 21.2825 201.492 21.1571C201.743 20.9062 202.119 20.4045 202.119 19.7773V6.98238C202.119 6.35518 201.868 5.85342 201.492 5.60254C201.366 5.60254 201.241 5.35166 201.241 5.22622C201.241 4.97534 201.492 4.72446 201.743 4.72446H205.757C206.008 4.72446 206.258 4.97534 206.258 5.22622C206.258 5.35166 206.133 5.4771 206.008 5.60254C205.757 5.85342 205.38 6.35518 205.38 6.98238V19.7773H211.151C211.778 19.7773 212.28 19.4009 212.53 19.0246C212.593 19.0246 212.656 18.9933 212.719 18.9619ZM226.705 4.72446H214.287C213.91 4.72446 213.534 5.10078 213.534 5.4771V7.3587C213.534 7.60958 213.785 7.86046 214.036 7.86046C214.161 7.86046 214.412 7.73502 214.412 7.60958C214.663 7.3587 215.039 7.10782 215.541 6.98238H218.928V19.7773C218.928 20.4045 218.552 20.9062 218.175 21.0317C218.05 21.1571 217.924 21.2825 217.924 21.408C217.924 21.6589 218.175 21.9097 218.426 21.9097H222.44C222.691 21.9097 222.942 21.6589 222.942 21.408C222.942 21.2825 222.816 21.1571 222.691 21.0317C222.315 20.7808 222.064 20.279 222.064 19.7773V6.98238H225.451C225.952 6.98238 226.329 7.23326 226.58 7.60958C226.705 7.73502 226.831 7.86046 226.956 7.86046C227.207 7.86046 227.458 7.60958 227.458 7.3587V5.4771C227.458 5.10078 227.081 4.72446 226.705 4.72446ZM198.983 21.1571C198.607 20.9063 198.356 20.6554 198.105 20.2791L191.833 5.3517C191.707 5.10082 191.582 4.97538 191.456 4.84994C191.394 4.84994 191.331 4.81857 191.268 4.78721C191.206 4.75586 191.143 4.72449 191.08 4.72449C191.028 4.72449 190.955 4.70297 190.869 4.67776C190.747 4.6421 190.6 4.59906 190.453 4.59906C190.077 4.59906 189.7 4.72449 189.449 4.84994L189.073 5.22625L183.177 19.6519C182.927 20.4045 182.55 20.7808 182.048 21.0317C181.923 21.1571 181.798 21.2826 181.798 21.408C181.798 21.6589 182.048 21.9098 182.299 21.9098H186.188C186.439 21.9098 186.69 21.6589 186.69 21.408C186.69 21.2826 186.564 21.1571 186.439 21.0317L186.368 20.9849C186.032 20.7632 185.82 20.6232 185.937 20.1536L186.815 18.0211H194.216L195.094 20.2791C195.094 20.6554 194.843 20.9063 194.592 21.0317C194.467 21.1571 194.342 21.2826 194.342 21.5335C194.342 21.7843 194.592 21.9098 194.843 21.9098H198.857C199.108 21.9098 199.234 21.7843 199.359 21.5335C199.317 21.4916 199.29 21.4498 199.262 21.408C199.206 21.3244 199.15 21.2408 198.983 21.1571ZM187.693 16.0141L190.453 9.11488L193.213 16.0141H187.693Z" fill="#112950"/>
</svg>
