<svg width="38" height="38" viewBox="0 0 38 38" fill="none" xmlns="http://www.w3.org/2000/svg">
<path fill-rule="evenodd" clip-rule="evenodd" d="M10.4021 21.9545C8.4865 21.9545 7.44592 20.7641 7.44592 19.0771V19.0141C7.44592 17.2955 8.70723 16.1367 10.4021 16.1367C11.7344 16.1367 12.9168 16.7437 13.0272 18.21H11.4269C11.3481 17.6818 11.0091 17.4059 10.41 17.4059C9.61379 17.4059 9.13292 18.0208 9.13292 19.0377V19.1008C9.13292 20.0152 9.47189 20.7247 10.4494 20.7247C11.2377 20.7247 11.5373 20.3227 11.5688 19.8733H10.5125V18.746H13.1612V19.4398C13.1612 20.8745 12.2231 21.9545 10.4021 21.9545ZM15.5757 20.6145H15.9463C16.908 20.6145 17.3337 20.1099 17.3337 19.0615V18.9984C17.3337 17.9263 16.908 17.4691 15.9305 17.4691H15.5757V20.6145ZM13.9533 21.86V16.2235H16.0029C18.0052 16.2235 19.0222 17.2247 19.0222 18.9748V19.0378C19.0222 20.7958 17.9816 21.86 15.995 21.86H13.9533ZM19.8095 21.86V16.2235H21.9537C23.4988 16.2235 24.2162 16.9094 24.2162 18.1076V18.1391C24.2162 19.3216 23.42 19.9602 22.0247 19.9602H21.4177V21.86H19.8095ZM21.4173 18.8563H21.8824C22.4027 18.8563 22.6786 18.6119 22.6786 18.1468V18.1153C22.6786 17.6344 22.3949 17.4374 21.8903 17.4374H21.4173V18.8563ZM24.9496 21.86V16.2235H27.1569C28.6311 16.2235 29.4509 16.8227 29.4509 18.013V18.0445C29.4509 18.8486 29.0252 19.298 28.434 19.5266L29.782 21.86H28.0793L26.9362 19.8419H26.5578V21.86H24.9496ZM26.5575 18.7933H27.0778C27.6217 18.7933 27.8897 18.5646 27.8897 18.1074V18.0759C27.8897 17.6187 27.606 17.4374 27.0857 17.4374H26.5575V18.7933Z" fill="#112950"/>
<path fill-rule="evenodd" clip-rule="evenodd" d="M19.0615 2.09314L18.5032 0.375L17.9448 2.09314H16.1378L17.6001 3.15497L17.0417 4.87311L18.5032 3.8106L19.9651 4.87311L19.4067 3.15497L20.8686 2.09314H19.0615ZM19.0615 34.528L18.5032 32.8091L17.9448 34.528H16.1378L17.6001 35.5899L17.0417 37.3079L18.5032 36.2462L19.9651 37.3079L19.4067 35.5899L20.8686 34.528H19.0615ZM27.4034 3.24842L27.9614 4.96695H29.7685L28.3065 6.02945L28.8649 7.74759L27.4034 6.68509L25.9416 7.74759L26.4999 6.02945L25.0383 4.96695H26.8454L27.4034 3.24842ZM34.0336 10.9605L33.4756 9.24238L32.9168 10.9605H31.1101L32.5721 12.0227L32.0136 13.7409L33.4756 12.679L34.9371 13.7409L34.3787 12.0227L35.8407 10.9605H34.0336ZM33.6196 24.3809L34.1776 26.0997H35.9846L34.5227 27.1615L35.0814 28.8793L33.6196 27.8178L32.1576 28.8793L32.7161 27.1615L31.2541 26.0997H33.0612L33.6196 24.3809ZM4.30409 10.9605L3.74606 9.24238L3.18804 10.9605H1.38099L2.84254 12.0227L2.28422 13.7409L3.74606 12.679L5.20723 13.7409L4.6492 12.0227L6.11075 10.9605H4.30409ZM34.8851 16.4618L35.4431 18.18H37.2501L35.7883 19.2418L36.3466 20.9603L34.8851 19.8989L33.4232 20.9603L33.9819 19.2418L32.5197 18.18H34.3264L34.8851 16.4618ZM2.92339 18.18L2.36536 16.4618L1.80695 18.18H0L1.46184 19.2418L0.903429 20.9603L2.36536 19.8989L3.82691 20.9603L3.26821 19.2418L4.73005 18.18H2.92339ZM3.54808 24.3809L4.10611 26.0997H5.91277L4.45132 27.1615L5.00925 28.8793L3.54808 27.8178L2.08625 28.8793L2.64456 27.1615L1.18272 26.0997H2.98977L3.54808 24.3809ZM28.2236 32.3467L27.6656 30.6286L27.1073 32.3467H25.3002L26.7622 33.4092L26.2034 35.1274L27.6656 34.0656L29.1272 35.1274L28.5685 33.4092L30.0307 32.3467H28.2236ZM9.88778 3.24842L10.4457 4.96695H12.2528L10.7909 6.02945L11.3496 7.74759L9.88778 6.68509L8.42623 7.74759L8.98454 6.02945L7.5227 4.96695H9.32937L9.88778 3.24842ZM9.78826 32.2373L9.22995 30.5184L8.67154 32.2373H6.86487L8.32671 33.2988L7.7684 35.0169L9.22995 33.9557L10.6918 35.0169L10.1335 33.2988L11.5953 32.2373H9.78826Z" fill="#112950"/>
</svg>
