<svg width="135" height="38" viewBox="0 0 135 38" fill="none" xmlns="http://www.w3.org/2000/svg">
<g clip-path="url(#clip0_5961_7484)">
<path d="M12.5396 23.1965V20.7393H16.5702V29.1379C16.5702 31.4118 15.9106 33.2822 14.5549 34.7126C13.1991 36.1429 11.3304 36.8764 8.912 36.8764C7.33639 36.8764 6.01727 36.6564 4.84473 36.253C5.02794 36.1063 5.21115 35.9596 5.35772 35.8128C6.05392 35.116 6.45698 34.1625 6.45698 33.1355C6.45698 33.0622 6.45698 33.0255 6.45698 32.9522C7.07989 33.2456 7.84938 33.3923 8.76543 33.3923C9.82805 33.3923 10.7441 33.0255 11.4403 32.3287C12.1731 31.6319 12.5029 30.5683 12.5029 29.1379V26.3506V23.1965H12.5396Z" fill="#112950"/>
<path d="M20.638 26.974C19.0991 25.4703 18.3296 23.4898 18.3296 21.0326C18.3296 18.5753 19.0991 16.5948 20.6747 15.1278C22.2503 13.6241 24.1923 12.8906 26.5374 12.8906C28.8459 12.8906 30.8245 13.6241 32.4002 15.1278C33.9758 16.6315 34.7452 18.612 34.7452 21.0326C34.7452 23.4898 33.9391 25.4703 32.3635 26.974C30.7879 28.4777 28.8092 29.2479 26.5008 29.2479C24.1923 29.2479 22.177 28.4777 20.638 26.974ZM26.4641 25.837C27.6 25.837 28.5527 25.4336 29.3955 24.5901C30.2016 23.7465 30.6047 22.5729 30.6047 21.0692C30.6047 19.5289 30.2016 18.3553 29.3955 17.5484C28.5894 16.7415 27.6367 16.3014 26.4641 16.3014C25.3282 16.3014 24.3755 16.7049 23.5694 17.5484C22.7999 18.3553 22.3969 19.5655 22.3969 21.0692C22.3969 22.6096 22.7999 23.7832 23.5694 24.5901C24.3389 25.3969 25.3282 25.837 26.4641 25.837Z" fill="#112950"/>
<path d="M47.6432 24.4801C48.4859 23.6365 48.889 22.4996 48.889 21.0326C48.889 19.5655 48.4859 18.4286 47.6432 17.5851C46.8004 16.7415 45.8111 16.3381 44.6752 16.3381C43.5392 16.3381 42.5499 16.7415 41.7438 17.5851C40.901 18.3919 40.498 19.5655 40.498 20.9959C40.498 22.4629 40.901 23.5998 41.7438 24.4434C42.5866 25.2869 43.5759 25.6903 44.6752 25.6903C45.8111 25.727 46.8004 25.3236 47.6432 24.4801ZM38.5193 26.9373C37.0902 25.3969 36.394 23.4165 36.394 21.0326C36.394 18.6487 37.0902 16.6682 38.5193 15.1645C39.9483 13.6241 41.7438 12.8906 43.9057 12.8906C46.0676 12.8906 47.7531 13.8075 48.889 15.6046V13.1474H52.9196V29.1745C52.9196 31.4484 52.2601 33.3188 50.9043 34.7492C49.5485 36.1795 47.6798 36.913 45.2614 36.913C42.843 36.913 40.901 36.3996 39.472 35.4093C38.0429 34.4191 37.2368 32.9887 37.0536 31.1183H41.0109C41.2674 31.8151 41.7438 32.4019 42.44 32.8054C43.1362 33.2088 44.0522 33.4288 45.1149 33.4288C46.1775 33.4288 47.0935 33.0621 47.7897 32.3653C48.5226 31.6684 48.8524 30.6048 48.8524 29.1745V26.3505C47.6432 28.2943 45.9576 29.2479 43.8324 29.2479C41.7438 29.2479 39.9483 28.4777 38.5193 26.9373Z" fill="#112950"/>
<path d="M66.4769 19.75C66.4036 18.6864 66.0372 17.8429 65.3043 17.2194C64.5715 16.5959 63.7287 16.2658 62.7028 16.2658C61.6768 16.2658 60.834 16.5959 60.1744 17.2194C59.4782 17.8429 59.0752 18.6864 58.9653 19.75H66.4769ZM62.6661 29.2489C60.3577 29.2489 58.4523 28.4788 57.0232 26.9751C55.5575 25.4714 54.8247 23.4909 54.8247 20.997C54.8247 18.5397 55.5575 16.5592 57.0232 15.0556C58.4889 13.5885 60.3943 12.8184 62.7028 12.8184C65.0112 12.8184 66.9532 13.5519 68.4189 14.9822C69.9212 16.4125 70.6541 18.3563 70.6541 20.7769C70.6541 21.3271 70.6174 21.8405 70.5442 22.3173H58.9286C59.0385 23.3442 59.405 24.1877 60.0645 24.8112C60.7241 25.4347 61.6035 25.7648 62.6295 25.7648C64.0219 25.7648 65.0478 25.178 65.744 24.041H70.1045C69.6281 25.5447 68.7487 26.7917 67.4296 27.7452C66.1471 28.7722 64.5349 29.2489 62.6661 29.2489Z" fill="#112950"/>
<path d="M79.12 25.6176H81.062V28.9918H78.4971C76.8848 28.9918 75.6023 28.625 74.7229 27.8548C73.8435 27.1213 73.4038 25.8744 73.4038 24.1506V16.3754H71.6816V13.0747H73.3672V9.15039H77.4345V13.0747H80.9887V16.3754H77.4345V24.1506C77.4345 24.6641 77.5444 25.0308 77.8009 25.2509C78.0574 25.5076 78.4971 25.6176 79.12 25.6176Z" fill="#112950"/>
<path d="M84.7253 26.9385C83.2963 25.3981 82.6001 23.4177 82.6001 21.0338C82.6001 18.6499 83.2963 16.6694 84.7253 15.1657C86.1544 13.6253 87.9498 12.8918 90.1117 12.8918C92.3102 12.8918 93.9591 13.8087 95.095 15.6058V7.79395H99.1257V29.0657H95.095V26.3517C93.8859 28.2955 92.2003 29.2491 90.0751 29.2491C87.9132 29.2491 86.1544 28.4789 84.7253 26.9385ZM93.8492 24.4813C94.692 23.6377 95.095 22.5008 95.095 21.0338C95.095 19.5667 94.692 18.4298 93.8492 17.5863C93.0065 16.7427 92.0171 16.3393 90.8812 16.3393C89.7453 16.3393 88.756 16.7427 87.9498 17.5863C87.1071 18.3931 86.704 19.5667 86.704 20.9971C86.704 22.4641 87.1071 23.601 87.9498 24.4446C88.7926 25.2881 89.7819 25.6915 90.8812 25.6915C92.0171 25.7282 93.0065 25.3248 93.8492 24.4813Z" fill="#112950"/>
<path d="M103.34 26.974C101.801 25.4703 101.031 23.4898 101.031 21.0326C101.031 18.5753 101.801 16.5948 103.376 15.1278C104.952 13.6241 106.894 12.8906 109.239 12.8906C111.548 12.8906 113.526 13.6241 115.102 15.1278C116.677 16.6315 117.447 18.612 117.447 21.0326C117.447 23.4898 116.641 25.4703 115.065 26.974C113.49 28.4777 111.511 29.2479 109.202 29.2479C106.857 29.2479 104.915 28.4777 103.34 26.974ZM109.166 25.837C110.302 25.837 111.254 25.4336 112.097 24.5901C112.903 23.7465 113.306 22.5729 113.306 21.0692C113.306 19.5289 112.903 18.3553 112.097 17.5484C111.291 16.7415 110.338 16.3014 109.166 16.3014C107.993 16.3014 107.077 16.7049 106.271 17.5484C105.502 18.3553 105.099 19.5655 105.099 21.0692C105.099 22.6096 105.502 23.7832 106.271 24.5901C107.041 25.3969 108.067 25.837 109.166 25.837Z" fill="#112950"/>
<path d="M121.258 27.0107C119.792 25.507 119.059 23.5265 119.059 21.0692C119.059 18.612 119.792 16.6315 121.258 15.1278C122.723 13.6241 124.592 12.8906 126.9 12.8906C128.843 12.8906 130.455 13.3674 131.737 14.2843C133.056 15.2379 133.899 16.5582 134.339 18.2819H129.978C129.465 16.9616 128.439 16.3014 126.864 16.3014C125.691 16.3014 124.775 16.7415 124.116 17.5851C123.456 18.4286 123.126 19.6022 123.126 21.0692C123.126 22.5363 123.456 23.7099 124.116 24.5534C124.775 25.3969 125.691 25.837 126.864 25.837C128.403 25.837 129.429 25.1769 129.978 23.8199H134.339C133.862 25.4703 132.983 26.8273 131.664 27.7808C130.345 28.7711 128.733 29.2479 126.864 29.2479C124.592 29.2479 122.723 28.5143 121.258 27.0107Z" fill="#112950"/>
<path d="M8.83991 16.3034C8.69335 16.3034 8.54678 16.3034 8.36357 16.3034C7.22766 16.3034 6.27497 16.7068 5.46884 17.5504C4.69936 18.3572 4.2963 19.5675 4.2963 21.0712C4.2963 21.8781 4.40622 22.5749 4.62608 23.1984L1.73135 26.0957C0.705372 24.7387 0.192383 23.0517 0.192383 21.0345C0.192383 18.5773 0.961867 16.5968 2.53748 15.1298C4.11309 13.6261 6.05512 12.8926 8.40021 12.8926C8.54678 12.8926 8.69335 12.8926 8.83991 12.8926V10.9121L11.0751 12.7092L13.3102 14.5063L11.0751 16.3034L8.83991 18.1005V16.3034V16.3034Z" fill="#112950"/>
<path d="M8.36361 25.8368C9.49951 25.8368 10.4522 25.4334 11.295 24.5899C12.1011 23.7463 12.5042 22.5727 12.5042 21.069C12.5042 19.8587 12.2477 18.8685 11.7347 18.0983L14.4828 15.3477C15.9119 16.8147 16.6081 18.7218 16.6081 21.0323C16.6081 23.4896 15.802 25.4701 14.2263 26.9738C12.6507 28.4774 10.6721 29.2476 8.36361 29.2476C6.0918 29.2476 4.22305 28.5508 2.68408 27.1205L5.35895 24.4432C5.3956 24.4798 5.43224 24.5532 5.50552 24.5899C6.27501 25.3967 7.2277 25.8368 8.36361 25.8368Z" fill="#112950"/>
<path fill-rule="evenodd" clip-rule="evenodd" d="M2.68404 30.6416C4.07644 30.6416 5.17571 31.7785 5.17571 33.1355C5.17571 34.5292 4.0398 35.6295 2.68404 35.6295C1.29165 35.6295 0.192383 34.4925 0.192383 33.1355C0.192383 31.7419 1.32829 30.6416 2.68404 30.6416Z" fill="#112950"/>
</g>
<defs>
<clipPath id="clip0_5961_7484">
<rect width="134.476" height="29.3403" fill="white" transform="translate(0.192383 7.79395)"/>
</clipPath>
</defs>
</svg>
