<svg width="120" height="38" viewBox="0 0 120 38" fill="none" xmlns="http://www.w3.org/2000/svg">
<path d="M119.426 10.2677L117.099 14.9373C114.443 14.7485 112.732 13.6373 112.732 13.6373L110.978 16.96V30.0962L105.492 31.2535L105.492 13.9793L102.952 12.8486L105.166 8.40723L110.978 10.9773V12.3606C110.978 12.8253 110.953 13.2868 110.953 13.2868C110.97 13.296 111.187 12.7796 111.376 12.3977L113.355 8.40723C113.355 8.40723 116.036 9.99912 119.426 10.2677Z" fill="#112950"/>
<path d="M45.6302 13.1526H42.4208L44.3997 8.87392H45.6302V7.23639L51.1324 4.28516V8.87408H54.6784L52.7079 13.1527H51.1326V25.0229C52.3057 25.9396 54.5328 26.581 54.5328 26.5576L52.1855 31.253C52.1855 31.253 48.0328 30.0589 45.6304 27.9545V13.1526H45.6302Z" fill="#112950"/>
<path d="M70.0789 35.3938L64.5934 38V14.3805L62.7074 13.5041L61.3423 16.0523V30.0583L55.8562 31.2538L55.8565 6.10543C55.8565 4.55715 55.4471 2.69345 55.4471 2.69345L60.6449 0C60.6449 0 61.3428 1.72289 61.3422 4.47023L61.3416 11.6738C61.3416 12.2375 61.3137 12.5904 61.3137 12.5904C61.3371 12.5975 61.5451 12.0947 61.7382 11.7063L63.3743 8.40744L70.0788 11.3799V35.3938H70.0789Z" fill="#112950"/>
<path d="M14.4495 13.2969L19.5549 9.50875C22.6143 10.1798 25.9939 14.1271 25.9939 18.8048C25.9939 23.4576 25.0888 25.7115 25.0888 25.7115L17.7734 31.0811C17.7734 31.0811 16.2541 31.254 14.3371 31.254C4.03458 31.2538 0.881287 23.8693 0.881287 18.1685C0.881287 14.5273 1.958 12.7418 1.958 12.7418L7.31192 8.9195L6.80469 7.13586L15.1516 1.04492C19.6946 3.03448 25.597 3.84896 25.597 3.84896L19.8644 8.04443C19.8644 8.04443 15.9924 7.40346 12.727 5.8259C12.4485 5.68976 12.1719 5.53057 12.1719 5.53057C12.1559 5.54257 12.2584 5.84272 12.3468 6.14412L14.4495 13.2969ZM7.8269 10.6916C7.8269 10.6916 7.72362 11.0165 7.53385 11.498C7.2183 12.36 6.76936 13.9224 6.76936 15.8394C6.76936 23.7866 11.4586 27.3496 17.3644 27.3496C18.75 27.3496 19.3284 27.0989 19.3284 27.0989C19.3284 27.0989 20.1531 24.6948 20.1531 21.5075C20.1531 16.7533 18.1348 14.598 16.8098 14.1218L15.0474 15.3567L16.8098 21.6216L11.8937 25.18L8.03347 11.4695C7.92068 11.0636 7.8635 10.6958 7.8635 10.6958L7.8269 10.6916Z" fill="#112950"/>
<path d="M101.839 26.5986L99.5194 31.2535C99.5194 31.2535 93.39 29.9875 89.4708 26.9428V11.3511L99.3754 8.40723L103.82 19.3528L94.9567 21.9675V24.1285C97.653 25.8582 101.839 26.5986 101.839 26.5986ZM97.9132 18.796L95.5943 13.1136C95.233 12.232 94.9451 11.3974 94.9451 11.3974C94.9182 11.405 94.9565 12.2958 94.9565 13.2902V19.6675L97.9132 18.796Z" fill="#112950"/>
<path d="M79.1489 31.0595C79.1489 31.0595 75.438 30.078 72.8911 28.1663V12.8038L78.9078 8.40723L86.6566 11.8491V30.076L81.2719 31.2537V27.7483C81.2719 27.4559 81.2951 26.8149 81.2951 26.8149C81.2951 26.8149 81.0283 27.3855 80.8814 27.6747L79.1489 31.0595ZM81.2789 26.3467V14.796L78.3836 13.5077V25.1456C79.6409 26.1062 81.2789 26.3467 81.2789 26.3467Z" fill="#112950"/>
<path d="M41.8918 26.2698L35.0815 31.2535C35.0815 31.2535 30.8635 30.2289 28.1267 28.1621V12.8038L34.1434 8.40723L41.8918 11.8491V26.2698ZM36.5077 26.5338V14.796L33.6124 13.5077V25.3322C33.6124 25.3324 34.6632 26.1621 36.5077 26.5338Z" fill="#112950"/>
</svg>
