<svg width="37" height="40" viewBox="0 0 37 40" fill="none" xmlns="http://www.w3.org/2000/svg">
<g clip-path="url(#clip0_5591_5750)">
<path d="M19.0581 36.3281C18.9444 36.4467 18.8989 36.5208 18.7776 36.6393L18.9292 36.8024C19.1012 36.9817 19.2224 37.2018 19.2809 37.4409C19.3394 37.6799 19.3332 37.9298 19.2628 38.1658C19.2628 38.1658 19.4221 38.0843 19.5131 37.8027C19.5583 37.5919 19.556 37.3739 19.5062 37.164C19.4564 36.9541 19.3605 36.7574 19.2249 36.5875C19.1748 36.4978 19.1191 36.4112 19.0581 36.3281Z" fill="#112950"/>
<path d="M19.8617 30.5469C19.5755 30.7478 19.2767 30.9309 18.967 31.0952C19.2634 31.2491 19.5473 31.425 19.8162 31.6213C19.8921 31.6658 19.5584 32.1548 19.2248 32.3623C18.8912 32.5698 18.4666 32.9181 18.133 33.1996C17.7326 33.4722 17.4092 33.8393 17.1928 34.2667C17.1012 34.499 17.0909 34.7545 17.1636 34.9931C17.2364 35.2318 17.3879 35.4401 17.5947 35.5856C17.7539 35.7116 18.0117 35.9932 18.1482 36.1118C18.1482 36.0377 18.3832 35.9043 18.4515 35.7561C17.6932 35.1485 17.2459 34.4075 18.55 33.7406C18.9064 33.4886 19.3082 33.2515 19.7101 32.9403C19.9281 32.7776 20.1287 32.5939 20.3091 32.392C20.4527 32.2589 20.5541 32.0882 20.6012 31.9003C20.6482 31.7124 20.6389 31.5152 20.5744 31.3323C20.5087 31.1583 20.4076 30.999 20.2773 30.864C20.147 30.729 19.9902 30.6212 19.8162 30.5469" fill="#112950"/>
<path d="M20.9157 24.8151C20.8626 24.8151 19.7026 25.2893 19.2021 25.519L19.9224 25.7265C20.0549 25.7603 20.1843 25.8049 20.3091 25.8599C20.2798 25.8999 20.2439 25.9349 20.203 25.9636C20.0207 26.1232 19.8099 26.2488 19.5812 26.3341C19.0429 26.5861 18.4743 26.8306 17.9283 27.0751C17.3824 27.3196 16.8213 27.4456 16.2299 28.2311C16.1075 28.4437 16.0591 28.6895 16.0919 28.9313C16.1247 29.1732 16.237 29.3981 16.4119 29.5723C16.6305 29.8186 16.8862 30.0309 17.1701 30.2021L17.4431 30.3651C17.7388 30.1354 18.08 30.0243 18.3833 29.8242C18.1482 29.6908 17.9132 29.5649 17.7009 29.4167C17.2459 29.1499 16.9427 28.6757 17.0943 28.7349C17.4751 28.4223 17.9053 28.1721 18.3681 27.9939C18.9064 27.7568 19.4599 27.5345 20.0286 27.253C20.374 27.124 20.6945 26.9386 20.9764 26.7046C21.1483 26.5952 21.2881 26.4441 21.3821 26.2659C21.4762 26.0878 21.5212 25.8888 21.5128 25.6885C21.5044 25.4882 21.4428 25.2935 21.3342 25.1235C21.2255 24.9535 21.0734 24.814 20.893 24.7188" fill="#112950"/>
<path d="M21.9016 18.9283C21.5949 18.7792 21.2782 18.6505 20.9538 18.543C20.3148 18.8823 19.6508 19.1745 18.9673 19.4173C19.3085 19.5507 19.6649 19.6767 20.0515 19.8101C20.461 19.9378 20.8634 20.0862 21.2571 20.2547L21.5452 20.3955C21.4087 20.4473 21.2571 20.4918 21.113 20.5362C20.6354 20.6622 20.1198 20.7585 19.5966 20.8475C18.3665 20.9123 17.1577 21.1883 16.0254 21.6626C15.6308 21.8339 15.2941 22.1114 15.0549 22.4628C14.9693 22.6072 14.9156 22.7675 14.8973 22.9335C14.879 23.0994 14.8965 23.2672 14.9488 23.4261C15.0485 23.6636 15.2013 23.8763 15.3961 24.0486C15.6765 24.2731 15.9848 24.4624 16.3136 24.6117C16.6651 24.5207 17.0077 24.3992 17.3371 24.2486L17.5419 24.2116L18.1181 23.9819L17.6632 23.8337C17.1614 23.6798 16.6897 23.4443 16.2681 23.1371C16.3851 23.0467 16.5122 22.9696 16.6472 22.9074C17.6712 22.5468 18.7445 22.337 19.8317 22.285C20.4037 22.2117 20.9709 22.1053 21.5301 21.9664C21.8178 21.8895 22.1013 21.798 22.3793 21.6922C22.6215 21.6179 22.8408 21.4853 23.017 21.3067C23.1932 21.128 23.3206 20.9089 23.3877 20.6696C23.6076 19.7656 22.1366 19.0246 21.9016 18.9283Z" fill="#112950"/>
<path d="M19.3614 33.375C19.1946 33.5158 18.9444 33.7529 18.8534 33.8048C20.6201 34.8051 18.4364 35.7017 18.0194 36.5835C17.8852 36.754 17.7906 36.9511 17.7421 37.1609C17.6937 37.3708 17.6926 37.5884 17.7389 37.7987C17.8299 38.0803 17.9739 38.1692 17.9815 38.1618C17.917 37.9276 17.9123 37.6815 17.9678 37.445C18.0233 37.2086 18.1374 36.9891 18.2999 36.8058C18.7175 36.3655 19.1687 35.9567 19.6496 35.5832C19.8491 35.4317 19.9956 35.2236 20.0689 34.9873C20.1422 34.7511 20.1388 34.4984 20.059 34.2642C19.8807 33.9161 19.621 33.614 19.3008 33.3824" fill="#112950"/>
<path d="M20.173 27.4727C20.173 27.4727 19.3314 27.9098 18.9447 28.0803C19.378 28.2418 19.7823 28.4694 20.1427 28.7546C20.2867 28.7175 19.991 29.1695 19.5361 29.4363C19.0812 29.7031 18.6035 29.9698 18.141 30.2292C17.6785 30.4885 16.9961 30.4811 16.6625 31.3332C16.6079 31.5147 16.6067 31.7076 16.6589 31.8897C16.7112 32.0719 16.8149 32.236 16.9582 32.3632C17.1385 32.5652 17.3392 32.7489 17.5572 32.9116L17.7846 33.082L18.4746 32.6744L18.0424 32.3632C17.7088 32.1409 17.3752 31.6222 17.4434 31.6222C17.7954 31.3978 18.1657 31.202 18.5504 31.0368C19.0357 30.7849 19.5437 30.57 20.0669 30.244C20.3525 30.0751 20.6085 29.8624 20.8251 29.6141C21.0023 29.4415 21.1167 29.2169 21.151 28.9747C21.1852 28.7325 21.1373 28.486 21.0146 28.2729C20.7948 27.952 20.5015 27.6856 20.1578 27.4949" fill="#112950"/>
<path d="M21.803 21.9883C21.4163 22.1291 19.8772 22.4255 19.5284 22.4996C19.9158 22.5696 20.2927 22.6866 20.6505 22.8478C20.7854 22.91 20.9126 22.9871 21.0296 23.0775C20.607 23.3832 20.1356 23.6185 19.6345 23.7741C19.0962 23.9667 18.5048 24.1075 17.8982 24.2928C17.5949 24.3817 17.2992 24.4706 16.9884 24.5744C16.6775 24.6781 16.2301 24.6633 15.8738 25.3154C15.7503 25.5703 15.7244 25.86 15.801 26.132C15.8775 26.4039 16.0513 26.64 16.2908 26.7973C16.5169 26.9908 16.7728 27.1484 17.049 27.2642C17.4812 27.0789 17.9285 26.9233 18.3607 26.7455L18.4745 26.6788L17.7162 26.3305C17.4886 26.2464 17.2781 26.1235 17.0945 25.9674C17.0548 25.9345 17.0192 25.8972 16.9884 25.8563C17.1127 25.8001 17.2422 25.7554 17.375 25.7229C17.6632 25.634 17.9513 25.5525 18.247 25.4784C18.8308 25.3154 19.4374 25.182 20.0667 24.9745C20.7414 24.7805 21.3738 24.4665 21.9319 24.0482C22.1267 23.876 22.2796 23.6633 22.3793 23.4258C22.4315 23.2669 22.449 23.0991 22.4307 22.9332C22.4125 22.7672 22.3588 22.6069 22.2731 22.4625C22.1565 22.2824 22.0105 22.1222 21.8409 21.9883" fill="#112950"/>
<path d="M23.0314 12.9727C22.6306 12.7639 22.1883 12.6426 21.7348 12.6171C21.424 12.5726 20.6127 12.3725 20.3397 12.5578C20.0668 12.743 20.3397 13.4396 20.5672 13.6471C21.2201 14.1395 21.9641 14.5044 22.7584 14.7215C23.039 14.8178 23.7517 15.2106 23.1754 15.5959C22.6251 15.9404 22.0439 16.2355 21.4391 16.4777C21.0221 16.6629 20.1198 17.0556 18.8536 17.5743C18.2167 17.8263 17.4888 18.1227 16.6927 18.4042C16.2383 18.5553 15.7927 18.7309 15.3583 18.9303C15.1156 19.0415 13.6371 19.7306 13.9101 20.6124C13.976 20.8531 14.103 21.0736 14.2792 21.2537C14.4555 21.4337 14.6754 21.5674 14.9185 21.6424L15.4644 21.8202C15.4962 21.7845 15.5317 21.7522 15.5706 21.7239C16.0712 21.3228 16.6344 21.0026 17.2386 20.7754C16.8595 20.7013 16.4804 20.6272 16.1468 20.5383C16.0027 20.4938 15.8511 20.4494 15.7146 20.3975L16.0027 20.2567C16.3965 20.0883 16.7989 19.9399 17.2083 19.8121C18.0499 19.5231 18.793 19.2342 19.4374 18.9822C20.734 18.4709 21.659 18.0782 22.0912 17.893C23.0206 17.5418 23.8612 16.9983 24.5554 16.2998C24.7446 16.0584 24.8675 15.7738 24.9126 15.473C24.9577 15.1721 24.9235 14.865 24.8132 14.5807C24.4345 13.8525 23.8028 13.2798 23.0314 12.9653" fill="#112950"/>
<path d="M18.3 0.5C17.9296 0.5 17.5675 0.607343 17.2596 0.808454C16.9516 1.00957 16.7116 1.29541 16.5698 1.62985C16.4281 1.96429 16.391 2.33229 16.4632 2.68732C16.5355 3.04236 16.7139 3.36848 16.9758 3.62445C17.2377 3.88041 17.5714 4.05473 17.9347 4.12535C18.298 4.19597 18.6745 4.15972 19.0167 4.0212C19.3589 3.88267 19.6514 3.64808 19.8572 3.3471C20.063 3.04611 20.1728 2.69225 20.1728 2.33026C20.1708 1.84544 19.9729 1.38104 19.6221 1.03823C19.2713 0.695408 18.7961 0.501951 18.3 0.5" fill="#112950"/>
<path d="M18.8991 4.42167H17.6556C17.6186 4.4154 17.5806 4.41711 17.5443 4.42669C17.508 4.43627 17.4743 4.45349 17.4456 4.47714C17.4168 4.50079 17.3937 4.5303 17.3778 4.56359C17.362 4.59689 17.3538 4.63318 17.3538 4.66991C17.3538 4.70664 17.362 4.74292 17.3778 4.77622C17.3937 4.80952 17.4168 4.83903 17.4456 4.86267C17.4743 4.88632 17.508 4.90354 17.5443 4.91312C17.5806 4.9227 17.6186 4.92442 17.6556 4.91814H18.8991C18.9361 4.92442 18.9741 4.9227 19.0104 4.91312C19.0466 4.90354 19.0803 4.88632 19.1091 4.86267C19.1379 4.83903 19.161 4.80952 19.1768 4.77622C19.1927 4.74292 19.2009 4.70664 19.2009 4.66991C19.2009 4.63318 19.1927 4.59689 19.1768 4.56359C19.161 4.5303 19.1379 4.50079 19.1091 4.47714C19.0803 4.45349 19.0466 4.43627 19.0104 4.42669C18.9741 4.41711 18.9361 4.4154 18.8991 4.42167Z" fill="#112950"/>
<path d="M18.3 5.18359C18.0725 5.18359 17.8829 5.25769 17.8829 5.58373L17.9512 17.6842L18.3758 17.4619C18.4405 17.432 18.5095 17.412 18.5805 17.4026H18.6563L18.7018 5.62078C18.7018 5.29474 18.5198 5.22064 18.2848 5.22064" fill="#112950"/>
<path d="M18.6715 36.8086L18.4213 36.9494V39.2909C18.4316 39.3494 18.4628 39.4024 18.5093 39.4406C18.5558 39.4789 18.6145 39.4998 18.6753 39.4998C18.736 39.4998 18.7948 39.4789 18.8413 39.4406C18.8877 39.4024 18.9189 39.3494 18.9293 39.2909V36.9049C18.8796 36.8996 18.8311 36.8871 18.7852 36.8679C18.7411 36.8564 18.698 36.8415 18.6563 36.8234" fill="#112950"/>
<path d="M18.2998 24.072C18.5078 23.9915 18.7284 23.9464 18.9519 23.9386V22.6641C18.7321 22.7058 18.5086 22.7257 18.2847 22.7233L18.2998 24.072Z" fill="#112950"/>
<path d="M18.7019 31.3164C18.5654 31.3683 18.4365 31.4276 18.3 31.472V32.6798L18.3455 32.7243V32.7613C18.462 32.6921 18.5868 32.6373 18.7171 32.5983H18.8005V31.3683H18.7171H18.6185" fill="#112950"/>
<path d="M18.3001 34.3922V35.6222L18.3759 35.6963L18.4366 35.7408C18.5572 35.6701 18.7007 35.6463 18.8384 35.6741V34.1328H18.6185C18.5048 34.2291 18.3987 34.3329 18.2773 34.4218" fill="#112950"/>
<path d="M18.8383 28.4068C18.7642 28.3754 18.6972 28.3301 18.6411 28.2734L18.2924 28.3772V29.7999C18.3755 29.8226 18.4513 29.866 18.5122 29.9259C18.6254 29.8874 18.7423 29.8601 18.861 29.8443V28.4365H18.8004L18.8383 28.4068Z" fill="#112950"/>
<path d="M18.3 26.6425C18.3391 26.6766 18.3724 26.7166 18.3985 26.761C18.4026 26.7806 18.4026 26.8007 18.3985 26.8203C18.5424 26.7656 18.6892 26.7186 18.8383 26.6795H18.9066V25.5977C18.6943 25.6643 18.482 25.7162 18.2697 25.7755L18.3 26.6425Z" fill="#112950"/>
<path d="M18.5879 19.8648H18.368L18.2316 19.9166V21.08C18.4211 21.0281 18.6107 20.9837 18.7926 20.9244C18.8353 20.9173 18.8789 20.9173 18.9215 20.9244V19.8203C18.813 19.8504 18.7007 19.8654 18.5879 19.8648Z" fill="#112950"/>
<path d="M15.6235 7.79739C14.8653 7.44171 15.5477 6.93783 15.8131 6.47841C16.1522 5.94111 16.3162 5.3157 16.2831 4.68521C16.1595 4.33329 15.9379 4.02203 15.6433 3.78641C15.3486 3.5508 14.9925 3.40016 14.6151 3.35141C14.2499 3.30709 13.8793 3.33899 13.5277 3.44501C13.1762 3.55103 12.8516 3.72875 12.5755 3.96644C11.9071 4.41503 11.1931 4.79495 10.4449 5.10016C7.77599 6.15238 3.74229 7.84926 0.861084 8.11601C1.19304 8.54147 1.60774 8.89861 2.08138 9.16693C2.55502 9.43525 3.07824 9.60945 3.62098 9.67951C3.56791 10.1834 4.53842 10.7095 4.94027 10.8429C5.50241 11.0307 6.11744 10.9961 6.65383 10.7465C6.81632 10.9836 7.0261 11.1861 7.27061 11.342C7.51513 11.4979 7.78933 11.6039 8.07679 11.6538C8.36425 11.7036 8.65904 11.6962 8.94349 11.6319C9.22795 11.5677 9.4962 11.448 9.73218 11.2801C9.79284 11.7395 10.6269 12.0211 10.9984 12.0729C11.5772 12.1495 12.1664 12.0727 12.7044 11.8506C13.1062 11.7617 13.273 12.0137 13.7052 12.11C14.1527 12.2334 14.6319 12.1802 15.0397 11.9618C15.2444 11.858 15.1686 11.7988 15.3809 11.8136C15.5932 11.8284 15.7069 11.9766 15.8585 11.9988C16.2831 12.0581 16.5637 11.7543 16.7987 11.4653C17.118 10.9775 17.3728 10.4522 17.5569 9.90181V7.90854C16.9215 7.99055 16.276 7.95536 15.6538 7.8048" fill="#112950"/>
<path d="M23.9334 3.96644C23.6573 3.72875 23.3327 3.55103 22.9812 3.44501C22.6296 3.33899 22.259 3.30709 21.8938 3.35141C21.5168 3.39896 21.1612 3.54928 20.8675 3.78516C20.5738 4.02104 20.3541 4.33296 20.2333 4.68521C20.1941 5.3153 20.3557 5.94178 20.6958 6.47841C20.9612 6.93783 21.6133 7.44171 20.8854 7.79739C20.288 7.94067 19.6691 7.97832 19.0581 7.90854V10.05C19.2261 10.5507 19.4579 11.0287 19.7481 11.4727C19.8385 11.6367 19.9733 11.7732 20.1378 11.8673C20.3023 11.9614 20.4901 12.0095 20.6807 12.0062C20.8323 12.0062 21.0295 11.8358 21.1584 11.821C21.2873 11.8062 21.2948 11.8654 21.4996 11.9692C21.9073 12.1876 22.3865 12.2408 22.834 12.1174C23.2662 12.0211 23.4406 11.7691 23.8348 11.858C24.373 12.0798 24.9621 12.1565 25.5408 12.0803C25.9124 11.9988 26.754 11.7469 26.807 11.2875C27.043 11.4555 27.3113 11.5751 27.5957 11.6394C27.8802 11.7036 28.175 11.711 28.4624 11.6612C28.7499 11.6114 29.0241 11.5053 29.2686 11.3494C29.5131 11.1935 29.7229 10.991 29.8854 10.754C30.4102 11.003 31.0127 11.0454 31.5686 10.8725C31.9781 10.7391 32.9486 10.213 32.8879 9.70915C33.4307 9.63909 33.9539 9.46489 34.4275 9.19657C34.9012 8.92825 35.3159 8.5711 35.6478 8.14565C32.7666 7.8789 28.7329 6.18202 26.064 5.1298C25.3166 4.82296 24.6027 4.44312 23.9334 3.99608" fill="#112950"/>
<path d="M13.7045 15.7693C13.1359 15.3839 13.841 15.0283 14.1216 14.8949C14.9177 14.684 15.6645 14.3241 16.3204 13.8353C16.5554 13.6278 16.9194 13.0053 16.5478 12.746C16.1763 12.4866 15.456 12.746 15.1452 12.8053C14.694 12.8299 14.2539 12.9514 13.8562 13.161C13.0837 13.4767 12.4501 14.0488 12.0668 14.7763C11.9578 15.0596 11.9243 15.3653 11.9694 15.6647C12.0145 15.9641 12.1367 16.2474 12.3246 16.488C13.0193 17.1895 13.8631 17.7333 14.7964 18.0812L15.9109 18.5554C16.5653 18.2936 17.2056 17.9993 17.8292 17.6736C16.6692 17.1994 15.8351 16.8437 15.4484 16.6659C14.8421 16.4218 14.2586 16.1268 13.7045 15.7841" fill="#112950"/>
</g>
<defs>
<clipPath id="clip0_5591_5750">
<rect width="35.25" height="39" fill="white" transform="translate(0.861084 0.5)"/>
</clipPath>
</defs>
</svg>
