<svg width="33" height="34" viewBox="0 0 33 34" fill="none" xmlns="http://www.w3.org/2000/svg">
<g clip-path="url(#clip0_5591_5744)">
<g clip-path="url(#clip1_5591_5744)">
<path fill-rule="evenodd" clip-rule="evenodd" d="M20.4885 12.2367C20.5358 11.8909 20.696 11.5704 20.9443 11.325C21.0551 11.1919 21.1947 11.0857 21.3527 11.0146C21.5107 10.9435 21.6828 10.9094 21.8559 10.9148C22.0086 10.9031 22.1614 10.9355 22.2961 11.0082C22.4308 11.081 22.5417 11.191 22.6156 11.325C22.7259 11.6166 22.7418 11.9355 22.6612 12.2367C22.5943 12.5627 22.4362 12.863 22.2054 13.1027C22.0912 13.2467 21.9456 13.3626 21.7796 13.4417C21.6137 13.5207 21.4319 13.5607 21.2482 13.5585C21.0933 13.5741 20.9376 13.5377 20.8056 13.4552C20.6736 13.3727 20.5728 13.2487 20.5188 13.1027C20.4555 12.9679 20.4201 12.8217 20.4149 12.6728C20.4097 12.524 20.4347 12.3756 20.4885 12.2367V12.2367ZM21.2482 12.2367C21.1772 12.6824 21.2279 12.9052 21.4001 12.9052C21.628 12.9052 21.7799 12.6773 21.8559 12.2215C21.9319 11.7657 21.9471 11.5377 21.7192 11.5377C21.4913 11.5377 21.3545 11.7657 21.2633 12.2367H21.2482ZM18.4221 10.9604L17.7991 13.513H18.6196L18.8019 12.6925C18.8168 12.5823 18.8475 12.4748 18.8931 12.3734V12.1455L19.2729 13.513H20.0782L20.7164 10.9604H19.9567L19.7288 11.7201C19.7138 11.8303 19.6831 11.9377 19.6376 12.0391V12.2671L19.2577 10.9452L18.4221 10.9604ZM14.3197 12.8596C14.2285 12.8596 14.1829 12.814 14.1829 12.7685L14.4108 11.8568H13.6511L13.4232 12.9508C13.3321 13.1331 13.5144 13.6345 14.1525 13.6345C14.5324 13.6345 15.1098 13.4978 15.2009 12.9508L15.4288 11.8568H14.6843L14.4564 12.7685C14.4716 12.8292 14.426 12.8748 14.3349 12.8748L14.3197 12.8596ZM11.7671 11.7201H12.3597L11.9646 13.513H12.8307L13.2865 11.7353H14.426L14.6084 10.9756H11.9494L11.7671 11.7201ZM14.7299 11.7201H15.4592L15.7783 13.4978H16.5988L17.8751 10.9452H16.9331L16.3861 12.3126L16.2493 10.9452H14.9274L14.7299 11.7201ZM25.7152 11.6289L25.3961 12.814C25.7152 12.814 25.8519 12.7229 25.9887 12.0543C26.0495 11.7808 25.9634 11.6441 25.7304 11.6441L25.7152 11.6289ZM24.1806 12.5254C24.3055 12.7441 24.4122 12.9728 24.4997 13.2091L25.0922 10.9756H25.8519C26.5813 10.9756 26.9003 11.477 26.7636 12.1607C26.5357 13.1635 26.1254 13.5282 25.2442 13.5282H23.7248C23.6336 13.2091 23.4969 12.89 23.4057 12.6165L23.2234 13.5282H22.4029L23.0866 10.9756H23.9983C24.1979 10.9813 24.3879 11.0632 24.5291 11.2044C24.6704 11.3457 24.7522 11.5356 24.758 11.7353C24.7777 11.9153 24.7294 12.0961 24.6225 12.2423C24.5157 12.3885 24.3581 12.4895 24.1806 12.5254V12.5254ZM23.6792 11.6593C23.6666 11.7895 23.6359 11.9174 23.588 12.0391H23.7704C23.8207 12.0249 23.8654 11.9953 23.8981 11.9545C23.9308 11.9136 23.9499 11.8635 23.9527 11.8112C23.9532 11.7931 23.95 11.7751 23.9433 11.7583C23.9367 11.7415 23.9266 11.7262 23.9138 11.7134C23.901 11.7006 23.8857 11.6905 23.8689 11.6838C23.8521 11.6771 23.834 11.674 23.8159 11.6745L23.6792 11.6593ZM20.5796 8.27103C20.6252 8.31661 20.6708 8.27103 20.6708 8.22545C21.043 7.48167 21.616 6.85694 22.3249 6.42193C23.0338 5.98693 23.8503 5.75903 24.682 5.76402C25.8353 5.76197 26.9426 6.21609 27.7624 7.02732C28.5822 7.83855 29.0478 8.94105 29.0579 10.0943C29.0837 11.1339 28.7451 12.1498 28.1007 12.966C28.0551 13.0116 28.0551 13.0571 28.1007 13.0571C28.1462 13.0571 28.1462 13.1027 28.1918 13.0571C28.6185 12.5584 28.9332 11.9739 29.1145 11.343C29.2959 10.7122 29.3396 10.0498 29.2428 9.40054C29.1461 8.75133 28.911 8.13047 28.5536 7.57993C28.1962 7.0294 27.7247 6.56203 27.1711 6.20942C26.6175 5.85681 25.9946 5.62719 25.3446 5.53607C24.6945 5.44496 24.0325 5.49449 23.4033 5.6813C22.774 5.86811 22.1922 6.18785 21.6972 6.61891C21.2022 7.04996 20.8056 7.58228 20.534 8.17987C20.534 8.22545 20.534 8.27103 20.5796 8.27103ZM16.5228 33.25C13.3089 33.2545 10.1658 32.3059 7.49097 30.524C4.81617 28.7422 2.72981 26.2072 1.49573 23.2397C0.261644 20.2721 -0.0647414 17.0052 0.557847 13.8521C1.18044 10.6991 2.72404 7.80144 4.99345 5.52565C7.26286 3.24986 10.1562 1.69814 13.3075 1.06671C16.4588 0.435278 19.7266 0.752498 22.6976 1.97825C25.6686 3.20401 28.2094 5.28325 29.9987 7.95304C31.7881 10.6228 32.7455 13.7633 32.75 16.9772C32.747 21.2842 31.0379 25.4146 27.9966 28.4644C24.9554 31.5142 20.8298 33.2349 16.5228 33.25V33.25ZM16.5228 0.932319C13.3494 0.932319 10.2473 1.87334 7.60875 3.63637C4.97019 5.3994 2.91368 7.90527 1.69928 10.8371C0.484877 13.7689 0.167135 16.995 0.78623 20.1074C1.40533 23.2198 2.93345 26.0787 5.17737 28.3226C7.42129 30.5666 10.2802 32.0947 13.3926 32.7138C16.505 33.3329 19.7311 33.0151 22.6629 31.8007C25.5947 30.5863 28.1006 28.5298 29.8636 25.8913C31.6267 23.2527 32.5677 20.1506 32.5677 16.9772C32.5507 12.7271 30.8548 8.65586 27.8495 5.65054C24.8442 2.64522 20.7729 0.949322 16.5228 0.932319V0.932319Z" fill="#333D99"/>
<path d="M25.0011 16.9784C25.0011 18.6552 24.5038 20.2944 23.5722 21.6886C22.6406 23.0829 21.3165 24.1696 19.7673 24.8113C18.2181 25.453 16.5134 25.6209 14.8688 25.2937C13.2242 24.9666 11.7135 24.1591 10.5278 22.9734C9.34206 21.7877 8.53459 20.277 8.20745 18.6324C7.88032 16.9878 8.04821 15.2831 8.68991 13.7339C9.33161 12.1847 10.4183 10.8606 11.8125 9.92895C13.2068 8.99735 14.846 8.5001 16.5228 8.5001V1.48047C13.4576 1.48047 10.4613 2.3894 7.91264 4.09234C5.36402 5.79527 3.37762 8.21571 2.20462 11.0476C1.03162 13.8794 0.724707 16.9956 1.3227 20.0019C1.92069 23.0082 3.39672 25.7696 5.56414 27.937C7.73156 30.1045 10.493 31.5805 13.4993 32.1785C16.5056 32.7765 19.6217 32.4696 22.4536 31.2966C25.2855 30.1236 27.7059 28.1372 29.4088 25.5885C31.1118 23.0399 32.0207 20.0436 32.0207 16.9784H25.0011Z" fill="#333D99"/>
<path d="M6.22504 20.9844C6.3357 21.1421 6.43351 21.3086 6.51753 21.482C6.63875 21.6852 6.6794 21.9264 6.63148 22.1581C6.60399 22.2428 6.55853 22.3206 6.49822 22.3862C6.43791 22.4517 6.36417 22.5035 6.28202 22.538C6.20211 22.5818 6.11433 22.6094 6.02372 22.6192C5.9331 22.629 5.84145 22.6207 5.75403 22.5949C5.63299 22.5474 5.52262 22.4762 5.42936 22.3855C5.3361 22.2949 5.26182 22.1866 5.21084 22.0669C5.17436 21.994 5.14509 21.9177 5.12348 21.839L4.28401 22.2531L4.15106 21.9796L6.22504 20.9844ZM5.34379 21.7441C5.3649 21.8241 5.39417 21.9017 5.43116 21.9758C5.59069 22.3025 5.84899 22.424 6.13768 22.2835C6.42637 22.1429 6.45295 21.8846 6.30481 21.5883C6.26522 21.5013 6.21686 21.4186 6.16047 21.3414L5.34379 21.7441Z" fill="white"/>
<path d="M5.37799 24.3421L7.22406 22.9062L7.42538 23.1683L6.95437 24.4826C6.85777 24.7556 6.74358 25.0221 6.6125 25.2803V25.2803C6.84042 25.0676 7.06073 24.9005 7.34562 24.6612L8.10532 24.061L8.28005 24.2889L6.43777 25.7209L6.25165 25.4816L6.73026 24.1674C6.83438 23.8876 6.95358 23.6137 7.08732 23.3469V23.3469C6.867 23.5406 6.65049 23.7267 6.32762 23.9546L5.56792 24.5662L5.37799 24.3421Z" fill="white"/>
<path d="M8.37119 26.1201L8.21545 26.2873L7.5925 25.6985L7.74444 25.5352L8.37119 26.1201Z" fill="white"/>
<path d="M9.78805 27.1774L9.02835 26.657L8.56114 27.3408L9.39301 27.9181L9.24867 28.1233L8.16989 27.3636L9.50317 25.4453L10.5364 26.2012L10.392 26.4063L9.60573 25.8593L9.18409 26.4671L9.94379 26.9837L9.78805 27.1774Z" fill="white"/>
<path d="M10.3844 28.7945L11.2923 26.6445L11.5962 26.7737L11.8279 28.1525C11.8759 28.4378 11.9064 28.7258 11.919 29.0148V29.0148C12.017 28.7101 12.1311 28.4109 12.2609 28.1184L12.6407 27.2143L12.9028 27.3283L11.9912 29.4782L11.7101 29.3605L11.4898 27.9778C11.4394 27.685 11.4064 27.3895 11.391 27.0928C11.2923 27.3738 11.1897 27.6321 11.0378 27.993L10.6579 28.9122L10.3844 28.7945Z" fill="white"/>
<path d="M14.6843 27.7599L14.3045 30.0618L14.0006 29.9972L14.3804 27.6953L14.6843 27.7599Z" fill="white"/>
<path d="M15.1174 29.8366C15.2776 29.9399 15.4624 29.9989 15.6529 30.0075C15.9606 30.0075 16.1467 29.8594 16.1543 29.6277C16.1619 29.396 16.0404 29.282 15.7289 29.1491C15.3491 29.0047 15.1211 28.7996 15.1325 28.4691C15.14 28.3782 15.1658 28.2897 15.2086 28.2091C15.2513 28.1285 15.31 28.0574 15.381 28.0002C15.4521 27.943 15.5341 27.9008 15.622 27.8763C15.7099 27.8518 15.8018 27.8454 15.8922 27.8576C16.0718 27.8566 16.2486 27.9024 16.405 27.9905L16.3139 28.2336C16.1851 28.1552 16.039 28.1096 15.8884 28.1007C15.5694 28.1007 15.444 28.2754 15.4364 28.4349C15.4364 28.6552 15.5694 28.7654 15.8884 28.9022C16.2683 29.0655 16.4734 29.263 16.462 29.6049C16.4506 29.9467 16.1733 30.2696 15.6226 30.2544C15.4148 30.2494 15.2119 30.1905 15.0338 30.0835L15.1174 29.8366Z" fill="white"/>
<path d="M19.5768 28.6632C19.7211 29.4533 19.3185 29.9585 18.7335 30.0687C18.5864 30.0934 18.4358 30.0872 18.2912 30.0505C18.1467 30.0139 18.0113 29.9475 17.8938 29.8557C17.7762 29.7639 17.6791 29.6486 17.6085 29.5172C17.5379 29.3858 17.4955 29.2412 17.4838 29.0925C17.4402 28.9444 17.4279 28.789 17.4475 28.6359C17.4672 28.4829 17.5185 28.3356 17.5982 28.2034C17.6778 28.0712 17.7841 27.9571 17.9103 27.8682C18.0364 27.7793 18.1796 27.7176 18.3309 27.687C18.9576 27.5731 19.4514 27.9795 19.5768 28.6632ZM17.7991 29.0431C17.8903 29.5331 18.2359 29.9243 18.7031 29.837C19.1704 29.7496 19.3603 29.271 19.2653 28.7468C19.1818 28.291 18.8551 27.8579 18.3613 27.9491C17.8675 28.0403 17.7231 28.5227 17.7991 29.0279V29.0431Z" fill="white"/>
<path d="M21.3887 27.157L21.1342 27.5368L20.9708 27.3393L21.2937 26.8835L21.5254 26.7695L22.532 28.7865L22.2661 28.9157L21.3887 27.157Z" fill="white"/>
<path d="M23.4209 27.8591C23.5972 27.8444 23.7664 27.7828 23.9109 27.6806C23.9673 27.6516 24.0167 27.6107 24.0559 27.5609C24.095 27.511 24.123 27.4532 24.1377 27.3916C24.1525 27.3299 24.1538 27.2658 24.1416 27.2035C24.1293 27.1413 24.1037 27.0825 24.0666 27.0311C24.0213 26.9787 23.9656 26.9363 23.903 26.9066C23.8405 26.8768 23.7724 26.8604 23.7032 26.8582C23.6339 26.8561 23.565 26.8683 23.5007 26.8941C23.4365 26.92 23.3782 26.9588 23.3297 27.0083L23.193 27.107L23.0562 26.9209L23.193 26.8221C23.3753 26.693 23.5348 26.4423 23.3791 26.2182C23.3502 26.1778 23.3127 26.1442 23.2695 26.1197C23.2262 26.0953 23.1781 26.0805 23.1286 26.0766C23.0791 26.0726 23.0293 26.0795 22.9826 26.0967C22.936 26.1139 22.8937 26.1411 22.8587 26.1764C22.7307 26.2728 22.6342 26.405 22.5814 26.5563L22.3877 26.4233C22.4645 26.2278 22.5964 26.0589 22.7675 25.9371C22.8245 25.8819 22.8924 25.8392 22.9669 25.8119C23.0414 25.7846 23.1208 25.7733 23.2 25.7786C23.2791 25.784 23.3563 25.806 23.4264 25.8431C23.4965 25.8802 23.5581 25.9316 23.607 25.9941C23.6769 26.0936 23.7121 26.2133 23.7073 26.3347C23.7025 26.4562 23.6579 26.5728 23.5804 26.6664V26.6664C23.7062 26.5975 23.8527 26.5769 23.9926 26.6083C24.1324 26.6398 24.256 26.7212 24.3401 26.8373C24.3957 26.9209 24.433 27.0151 24.4497 27.1141C24.4663 27.213 24.462 27.3143 24.4369 27.4114C24.4118 27.5085 24.3666 27.5992 24.3041 27.6777C24.2416 27.7561 24.1633 27.8206 24.0742 27.8667C23.91 27.9919 23.7139 28.0683 23.5083 28.0871L23.4209 27.8591Z" fill="white"/>
<path d="M26.0001 26.1764L25.5632 25.7471L24.8301 26.5068L24.6858 26.3663L24.3667 24.6418L24.5984 24.4062L25.5936 25.3901L25.8177 25.166L25.9849 25.3331L25.7645 25.5572L26.2014 25.9864L26.0001 26.1764ZM25.3923 25.58L24.8567 25.0596C24.7731 24.976 24.6934 24.8887 24.6136 24.8013C24.6592 24.9456 24.6896 25.052 24.72 25.1811L24.8757 26.1118L25.3923 25.58Z" fill="white"/>
<path d="M26.3381 24.9776C26.2292 24.8981 26.148 24.7865 26.1057 24.6584C26.0635 24.5303 26.0624 24.3922 26.1026 24.2635C26.0109 24.3246 25.9032 24.3572 25.7931 24.3572C25.6829 24.3572 25.5752 24.3246 25.4835 24.2635C25.4161 24.2102 25.3602 24.1437 25.3192 24.0681C25.2783 23.9925 25.2532 23.9093 25.2454 23.8237C25.2375 23.7381 25.2472 23.6518 25.2738 23.57C25.3004 23.4883 25.3433 23.4127 25.3999 23.3481C25.4376 23.277 25.4896 23.2145 25.5527 23.1645C25.6158 23.1146 25.6886 23.0783 25.7664 23.058C25.8442 23.0376 25.9255 23.0336 26.0049 23.0463C26.0844 23.059 26.1603 23.088 26.228 23.1316C26.3209 23.1995 26.3912 23.2937 26.4298 23.4021C26.4684 23.5105 26.4735 23.628 26.4445 23.7393C26.5496 23.6505 26.6811 23.599 26.8185 23.5929C26.956 23.5867 27.0916 23.6261 27.2042 23.7051C27.278 23.7636 27.3391 23.8365 27.3839 23.9193C27.4287 24.0021 27.4562 24.0932 27.4647 24.187C27.4733 24.2808 27.4626 24.3753 27.4335 24.4648C27.4044 24.5544 27.3574 24.6371 27.2954 24.7079C27.2539 24.7921 27.1953 24.8666 27.1232 24.9266C27.0511 24.9866 26.9671 25.0307 26.8769 25.0561C26.7866 25.0816 26.692 25.0877 26.5992 25.0742C26.5063 25.0607 26.4174 25.0278 26.3381 24.9776V24.9776ZM25.624 24.0128C25.8064 24.142 26.0039 24.0736 26.209 23.9027C26.2468 23.8142 26.2546 23.7159 26.2313 23.6226C26.208 23.5294 26.1548 23.4463 26.0798 23.3861C26.0405 23.3547 25.9949 23.3323 25.9461 23.3202C25.8972 23.3081 25.8464 23.3067 25.797 23.3161C25.7476 23.3255 25.7008 23.3454 25.6598 23.3745C25.6188 23.4036 25.5846 23.4413 25.5594 23.4848C25.5264 23.5226 25.5017 23.5669 25.4869 23.6149C25.4722 23.6629 25.4677 23.7134 25.4738 23.7632C25.4799 23.8131 25.4964 23.861 25.5223 23.904C25.5482 23.947 25.5828 23.9841 25.624 24.0128V24.0128ZM27.0257 23.9786C26.8054 23.8191 26.585 23.8989 26.3381 24.0964C26.2943 24.1961 26.2846 24.3076 26.3108 24.4134C26.3369 24.5192 26.3972 24.6134 26.4825 24.6813C26.529 24.7175 26.5828 24.7434 26.6401 24.7571C26.6974 24.7709 26.7571 24.7722 26.815 24.7611C26.8729 24.7499 26.9277 24.7266 26.9758 24.6925C27.024 24.6584 27.0643 24.6145 27.094 24.5636C27.1293 24.5213 27.1555 24.4722 27.1712 24.4194C27.1869 24.3666 27.1917 24.3112 27.1853 24.2564C27.1789 24.2017 27.1615 24.1489 27.134 24.1011C27.1066 24.0534 27.0697 24.0117 27.0257 23.9786Z" fill="white"/>
<path d="M26.8661 21.3643L26.4863 22.124L26.9725 22.4544C26.99 22.396 27.0116 22.3389 27.037 22.2835C27.1086 22.1302 27.2201 21.999 27.3599 21.9037C27.4562 21.8379 27.5687 21.7996 27.6851 21.7929C27.8016 21.7862 27.9176 21.8114 28.0209 21.8657C28.1181 21.9124 28.2046 21.9787 28.275 22.0604C28.3453 22.1422 28.3981 22.2376 28.4298 22.3407C28.4616 22.4438 28.4716 22.5523 28.4594 22.6595C28.4472 22.7666 28.413 22.8701 28.3589 22.9634C28.2756 23.1437 28.1442 23.2975 27.9791 23.4079L27.8043 23.2369C27.9423 23.1396 28.0534 23.009 28.1272 22.8571C28.1602 22.798 28.181 22.7328 28.1884 22.6655C28.1957 22.5982 28.1895 22.5301 28.17 22.4653C28.1505 22.4004 28.1182 22.3402 28.0749 22.2881C28.0317 22.236 27.9784 22.1931 27.9183 22.162C27.6524 22.0404 27.3827 22.124 27.1852 22.5418C27.1421 22.6372 27.104 22.7349 27.0712 22.8343L26.1634 22.2341L26.6344 21.2617L26.8661 21.3643Z" fill="white"/>
<path d="M10.4224 17.2036H10.0425V17.082H10.9542V17.2188H10.5743V18.2976H10.4148L10.4224 17.2036Z" fill="#333D99"/>
<path d="M11.2656 17.0822V17.8115C11.2656 18.085 11.3872 18.1914 11.5505 18.1914C11.7139 18.1914 11.8506 18.0698 11.8506 17.8115V17.0822H12.014V17.8001C12.014 18.18 11.8126 18.3319 11.5467 18.3319C11.2808 18.3319 11.1061 18.1876 11.1061 17.8077V17.0822H11.2656ZM11.3036 16.9037C11.3036 16.8795 11.3132 16.8563 11.3303 16.8392C11.3474 16.8221 11.3706 16.8125 11.3948 16.8125C11.4066 16.8125 11.4183 16.8149 11.4291 16.8195C11.44 16.8241 11.4498 16.8309 11.458 16.8394C11.4661 16.8479 11.4725 16.858 11.4766 16.8691C11.4808 16.8801 11.4827 16.8919 11.4822 16.9037C11.4849 16.9169 11.4847 16.9306 11.4815 16.9438C11.4783 16.9569 11.4722 16.9692 11.4636 16.9797C11.4551 16.9902 11.4443 16.9987 11.432 17.0045C11.4198 17.0103 11.4064 17.0133 11.3929 17.0133C11.3794 17.0133 11.366 17.0103 11.3538 17.0045C11.3415 16.9987 11.3307 16.9902 11.3222 16.9797C11.3136 16.9692 11.3075 16.9569 11.3043 16.9438C11.3011 16.9306 11.3009 16.9169 11.3036 16.9037V16.9037ZM11.6417 16.9037C11.6417 16.8795 11.6513 16.8563 11.6684 16.8392C11.6855 16.8221 11.7087 16.8125 11.7329 16.8125C11.757 16.8125 11.7802 16.8221 11.7973 16.8392C11.8144 16.8563 11.824 16.8795 11.824 16.9037C11.824 16.9278 11.8144 16.951 11.7973 16.9681C11.7802 16.9852 11.757 16.9948 11.7329 16.9948C11.7198 16.9945 11.707 16.9913 11.6953 16.9856C11.6836 16.9798 11.6732 16.9716 11.6649 16.9616C11.6567 16.9515 11.6506 16.9397 11.6473 16.9271C11.6439 16.9145 11.6433 16.9013 11.6455 16.8885L11.6417 16.9037Z" fill="#333D99"/>
<path d="M12.5078 18.2976L12.1051 17.082H12.2761L12.4698 17.6898C12.5209 17.8406 12.564 17.994 12.5989 18.1494V18.1494C12.6331 18.0051 12.6863 17.8493 12.7395 17.6898L12.9484 17.082H13.1193L12.6825 18.2976H12.5078Z" fill="#333D99"/>
<path d="M13.6397 18.2976V17.082H13.8145L14.1943 17.705C14.2747 17.8274 14.3483 17.9542 14.4146 18.0848C14.4146 17.9177 14.3956 17.7696 14.3956 17.5796V17.082H14.5438V18.2976H14.3842L14.0044 17.6746C13.9197 17.5415 13.8436 17.4033 13.7765 17.2606V17.2606C13.7765 17.4163 13.7765 17.5644 13.7765 17.7696V18.2976H13.6397Z" fill="#333D99"/>
<path d="M15.9074 17.6737C15.9171 17.7548 15.9095 17.8369 15.8851 17.9148C15.8607 17.9927 15.82 18.0645 15.7658 18.1255C15.7116 18.1866 15.6451 18.2354 15.5706 18.2688C15.4962 18.3023 15.4155 18.3195 15.3339 18.3195C15.2556 18.3184 15.1784 18.3009 15.1073 18.2682C15.0362 18.2355 14.9726 18.1884 14.9208 18.1297C14.8689 18.0711 14.8299 18.0023 14.8062 17.9277C14.7825 17.8531 14.7746 17.7743 14.7831 17.6965C14.7747 17.616 14.783 17.5346 14.8077 17.4575C14.8323 17.3804 14.8727 17.3093 14.9262 17.2486C14.9798 17.1879 15.0454 17.139 15.1188 17.1049C15.1922 17.0709 15.2719 17.0524 15.3529 17.0508C15.4316 17.0508 15.5095 17.0675 15.5814 17.0997C15.6533 17.132 15.7175 17.179 15.7699 17.2379C15.8222 17.2967 15.8616 17.366 15.8853 17.4411C15.909 17.5162 15.9166 17.5955 15.9074 17.6737V17.6737ZM14.9502 17.6927C14.9502 17.9548 15.0946 18.1903 15.3301 18.1903C15.5656 18.1903 15.7099 17.9586 15.7099 17.6813C15.7099 17.404 15.5846 17.1799 15.3301 17.1799C15.0756 17.1799 14.9502 17.423 14.9502 17.6927V17.6927Z" fill="#333D99"/>
<path d="M16.0974 17.0839C16.1978 17.0676 16.2995 17.06 16.4012 17.0611C16.5284 17.0484 16.6557 17.0836 16.7583 17.1599C16.7898 17.1903 16.8145 17.227 16.8309 17.2675C16.8472 17.3081 16.8549 17.3517 16.8533 17.3954C16.8536 17.4654 16.8312 17.5337 16.7894 17.5899C16.7476 17.646 16.6887 17.6871 16.6215 17.7069V17.7069C16.6711 17.7282 16.7141 17.7622 16.7462 17.8056C16.7782 17.849 16.7981 17.9002 16.8039 17.9538C16.8236 18.0695 16.8554 18.1828 16.8988 18.2919H16.7317C16.6966 18.1969 16.6699 18.099 16.6519 17.9994C16.6139 17.8284 16.5494 17.7639 16.405 17.7601H16.2569V18.2919H16.0974V17.0839ZM16.2569 17.6461H16.4164C16.5874 17.6461 16.6937 17.5512 16.6937 17.4106C16.6937 17.2701 16.5798 17.1827 16.4126 17.1827C16.3609 17.176 16.3086 17.176 16.2569 17.1827V17.6461Z" fill="#333D99"/>
<path d="M17.0394 17.0836C17.1515 17.0693 17.2644 17.0617 17.3775 17.0608C17.5566 17.0467 17.7344 17.101 17.8751 17.2127C17.9345 17.269 17.981 17.3376 18.0111 17.4137C18.0413 17.4898 18.0545 17.5716 18.0498 17.6534C18.0535 17.741 18.0396 17.8285 18.0089 17.9107C17.9783 17.9929 17.9315 18.0681 17.8713 18.132C17.7204 18.2599 17.5255 18.324 17.3281 18.3105C17.2141 18.3105 17.1192 18.3105 17.0394 18.3105V17.0836ZM17.1989 18.1738C17.252 18.1781 17.3054 18.1781 17.3585 18.1738C17.4289 18.1815 17.5001 18.1734 17.567 18.15C17.6338 18.1267 17.6946 18.0886 17.7449 18.0387C17.7951 17.9888 17.8336 17.9283 17.8574 17.8617C17.8813 17.795 17.8899 17.7238 17.8827 17.6534C17.8884 17.5876 17.8792 17.5213 17.8559 17.4596C17.8326 17.3978 17.7956 17.3421 17.7479 17.2965C17.7001 17.2509 17.6427 17.2166 17.5799 17.1962C17.5171 17.1758 17.4505 17.1698 17.3851 17.1785C17.3231 17.1729 17.2609 17.1729 17.1989 17.1785V18.1738Z" fill="#333D99"/>
<path d="M18.6538 17.0833C18.7543 17.0681 18.8559 17.0605 18.9576 17.0605C19.0817 17.0495 19.2053 17.0862 19.3033 17.1631C19.3396 17.1945 19.3684 17.2337 19.3875 17.2777C19.4066 17.3218 19.4154 17.3696 19.4135 17.4176C19.4172 17.5151 19.3831 17.6103 19.3185 17.6835C19.2672 17.7297 19.2072 17.7653 19.1419 17.7881C19.0767 17.811 19.0076 17.8206 18.9387 17.8164C18.8958 17.8225 18.8523 17.8225 18.8095 17.8164V18.3102H18.65L18.6538 17.0833ZM18.8133 17.6759C18.8575 17.6805 18.9021 17.6805 18.9462 17.6759C19.1362 17.6759 19.2539 17.5847 19.2539 17.4138C19.2539 17.2428 19.14 17.1745 18.9614 17.1745C18.9122 17.1689 18.8625 17.1689 18.8133 17.1745V17.6759Z" fill="#333D99"/>
<path d="M20.42 17.8431C20.4254 17.9035 20.418 17.9644 20.3981 18.0218C20.3782 18.0791 20.3464 18.1316 20.3048 18.1757C20.2631 18.2199 20.2126 18.2547 20.1565 18.2779C20.1004 18.3011 20.0401 18.3121 19.9794 18.3103C19.9211 18.311 19.8632 18.2995 19.8095 18.2767C19.7558 18.2539 19.7075 18.2201 19.6675 18.1776C19.6275 18.1352 19.5968 18.0848 19.5772 18.0299C19.5577 17.9749 19.5498 17.9164 19.554 17.8583C19.5497 17.7976 19.5582 17.7367 19.579 17.6795C19.5998 17.6224 19.6324 17.5702 19.6747 17.5265C19.717 17.4828 19.768 17.4485 19.8244 17.4258C19.8808 17.4031 19.9414 17.3926 20.0022 17.3948C20.0596 17.3952 20.1162 17.4073 20.1688 17.4304C20.2213 17.4535 20.2685 17.487 20.3077 17.529C20.3468 17.5709 20.3769 17.6204 20.3962 17.6744C20.4156 17.7284 20.4237 17.7858 20.42 17.8431V17.8431ZM19.7173 17.8431C19.7173 18.0368 19.8275 18.1849 19.987 18.1849C20.1466 18.1849 20.2529 18.0406 20.2529 17.8393C20.2529 17.6379 20.1807 17.5012 19.9908 17.5012C19.8009 17.5012 19.7173 17.6911 19.7173 17.8431Z" fill="#333D99"/>
<path d="M20.6214 17.0039H20.7809V18.2992H20.6214V17.0039Z" fill="#333D99"/>
<path d="M21.0278 18.137C21.092 18.1763 21.1653 18.1986 21.2405 18.2015C21.3583 18.2015 21.4115 18.1408 21.4115 18.0686C21.4115 17.9964 21.3659 17.9508 21.2481 17.9053C21.1304 17.8597 21.0126 17.7609 21.0126 17.6546C21.0144 17.6172 21.0239 17.5807 21.0404 17.5472C21.057 17.5136 21.0802 17.4838 21.1086 17.4596C21.1371 17.4354 21.1703 17.4173 21.206 17.4064C21.2418 17.3955 21.2794 17.3921 21.3165 17.3963C21.3892 17.4032 21.4593 17.4266 21.5216 17.4646L21.4798 17.5824C21.4262 17.5494 21.3643 17.5323 21.3013 17.533C21.2063 17.533 21.1532 17.5862 21.1532 17.6508C21.1532 17.7153 21.2063 17.7571 21.3203 17.8027C21.4342 17.8483 21.552 17.9356 21.552 18.0686C21.552 18.2015 21.4304 18.3345 21.2215 18.3345C21.1341 18.3366 21.0476 18.3157 20.9708 18.2737L21.0278 18.137Z" fill="#333D99"/>
<path d="M21.9204 17.8206L21.9964 17.7218L22.2585 17.4141H22.4522L22.1104 17.794L22.4902 18.3144H22.2965L21.9888 17.889L21.9091 17.9839V18.3144H21.7495V17.0039H21.9091L21.9204 17.8206Z" fill="#333D99"/>
<path d="M23.0942 18.2997V18.1895C23.0626 18.2307 23.0217 18.2639 22.9748 18.2863C22.9279 18.3088 22.8765 18.3198 22.8245 18.3187C22.7897 18.3213 22.7547 18.3167 22.7218 18.305C22.6889 18.2934 22.6588 18.275 22.6334 18.251C22.608 18.2271 22.5879 18.1981 22.5744 18.1659C22.5609 18.1337 22.5542 18.0991 22.5548 18.0642C22.5548 17.8514 22.7447 17.7337 23.0866 17.7375C23.0902 17.71 23.0876 17.6821 23.0788 17.6558C23.07 17.6295 23.0554 17.6056 23.036 17.5858C23.0166 17.566 22.9929 17.5509 22.9668 17.5417C22.9407 17.5324 22.9128 17.5292 22.8853 17.5324C22.8032 17.5329 22.7229 17.5566 22.6536 17.6007L22.6004 17.464C22.6869 17.4101 22.7872 17.3824 22.8891 17.3842C22.9384 17.3795 22.9881 17.3865 23.0342 17.4047C23.0803 17.4228 23.1214 17.4515 23.1544 17.4885C23.1873 17.5255 23.211 17.5697 23.2237 17.6176C23.2363 17.6655 23.2375 17.7156 23.2272 17.7641V18.0945C23.223 18.1654 23.223 18.2364 23.2272 18.3073L23.0942 18.2997ZM23.0714 17.8438C22.8967 17.8438 22.6916 17.8704 22.6916 18.0452C22.6905 18.0654 22.6936 18.0856 22.7009 18.1046C22.7081 18.1235 22.7193 18.1407 22.7336 18.155C22.748 18.1694 22.7652 18.1805 22.7841 18.1878C22.803 18.195 22.8233 18.1982 22.8435 18.1971C22.8902 18.1987 22.9361 18.1851 22.9745 18.1584C23.0128 18.1317 23.0415 18.0933 23.0562 18.049C23.0597 18.0327 23.0597 18.0159 23.0562 17.9996L23.0714 17.8438Z" fill="#333D99"/>
<path d="M13.3586 20.0668C13.4442 20.1196 13.5429 20.1473 13.6435 20.1466C13.8068 20.1466 13.9018 20.063 13.9018 19.9376C13.9018 19.8123 13.8334 19.7553 13.6663 19.6945C13.4992 19.6338 13.3434 19.516 13.3434 19.3451C13.3456 19.2962 13.358 19.2483 13.3797 19.2045C13.4014 19.1606 13.4319 19.1218 13.4694 19.0903C13.5069 19.0589 13.5505 19.0356 13.5975 19.0219C13.6445 19.0082 13.6938 19.0045 13.7423 19.0108C13.836 19.006 13.9293 19.027 14.012 19.0716L13.9702 19.2007C13.8982 19.1607 13.8171 19.1398 13.7347 19.14C13.5675 19.14 13.503 19.2425 13.503 19.3261C13.503 19.4097 13.5789 19.497 13.7499 19.5616C13.9208 19.6262 14.0613 19.7439 14.0613 19.9414C14.0613 20.139 13.9208 20.2947 13.6321 20.2947C13.5218 20.2965 13.413 20.269 13.3168 20.2149L13.3586 20.0668Z" fill="#333D99"/>
<path d="M14.2741 19.6634C14.2741 19.5494 14.2741 19.4583 14.2741 19.3747H14.4184V19.5266C14.45 19.4726 14.4957 19.4282 14.5505 19.3981C14.6054 19.368 14.6674 19.3533 14.7299 19.3557C14.7851 19.3579 14.8392 19.3716 14.8889 19.3958C14.9385 19.42 14.9826 19.4542 15.0183 19.4964C15.054 19.5385 15.0806 19.5876 15.0963 19.6406C15.1121 19.6935 15.1166 19.7491 15.1098 19.8039C15.1178 19.8621 15.1135 19.9214 15.097 19.9778C15.0806 20.0342 15.0525 20.0865 15.0145 20.1313C14.9765 20.1761 14.9295 20.2124 14.8765 20.2378C14.8236 20.2632 14.7658 20.2772 14.7071 20.2788C14.6536 20.2814 14.6003 20.2702 14.5524 20.2463C14.5045 20.2223 14.4636 20.1864 14.4336 20.142V20.6206H14.2741V19.6634ZM14.4336 19.8989C14.4316 19.9216 14.4316 19.9445 14.4336 19.9673C14.4479 20.0208 14.4795 20.0681 14.5235 20.1018C14.5674 20.1354 14.6213 20.1536 14.6767 20.1534C14.8477 20.1534 14.9464 20.0167 14.9464 19.8115C14.9464 19.6064 14.8515 19.4849 14.6805 19.4849C14.6238 19.486 14.569 19.506 14.525 19.5418C14.4809 19.5776 14.4501 19.6271 14.4374 19.6824C14.4356 19.7039 14.4356 19.7255 14.4374 19.747L14.4336 19.8989Z" fill="#333D99"/>
<path d="M15.2731 20.1649C15.2739 20.1431 15.2811 20.1221 15.2938 20.1044C15.3065 20.0867 15.3242 20.0732 15.3446 20.0656C15.365 20.0579 15.3872 20.0565 15.4084 20.0615C15.4296 20.0665 15.4489 20.0777 15.4637 20.0936C15.4786 20.1095 15.4884 20.1295 15.4919 20.151C15.4954 20.1725 15.4925 20.1945 15.4835 20.2144C15.4744 20.2342 15.4597 20.2509 15.4412 20.2624C15.4227 20.2738 15.4012 20.2796 15.3795 20.2788C15.3648 20.2789 15.3503 20.2759 15.3369 20.2701C15.3235 20.2643 15.3114 20.2557 15.3014 20.2451C15.2914 20.2344 15.2838 20.2217 15.2789 20.2079C15.274 20.1941 15.2721 20.1795 15.2731 20.1649Z" fill="#333D99"/>
<path d="M15.9606 20.1686L16.3405 19.6444L16.4544 19.5076H15.9948V19.3633H16.671V19.4658L16.2911 19.9786C16.2569 20.028 16.2189 20.0698 16.1809 20.1154H16.6975V20.2445H15.9606V20.1686Z" fill="#333D99"/>
<path d="M18.008 19.8116C18.0134 19.872 18.0059 19.933 17.9861 19.9903C17.9662 20.0476 17.9344 20.1001 17.8927 20.1443C17.8511 20.1884 17.8006 20.2233 17.7445 20.2464C17.6884 20.2696 17.628 20.2807 17.5674 20.2788C17.5092 20.2795 17.4515 20.2681 17.398 20.2452C17.3445 20.2224 17.2963 20.1886 17.2566 20.146C17.2169 20.1035 17.1866 20.0531 17.1675 19.9981C17.1484 19.9431 17.141 19.8848 17.1458 19.8268C17.1415 19.7671 17.1498 19.7072 17.1699 19.6508C17.19 19.5945 17.2216 19.5429 17.2626 19.4993C17.3037 19.4558 17.3533 19.4212 17.4083 19.3978C17.4634 19.3744 17.5227 19.3627 17.5826 19.3634C17.6407 19.3622 17.6985 19.3731 17.7522 19.3955C17.8059 19.4179 17.8543 19.4513 17.8943 19.4935C17.9344 19.5357 17.9652 19.5858 17.9848 19.6405C18.0043 19.6953 18.0123 19.7536 18.008 19.8116V19.8116ZM17.3053 19.8116C17.3053 20.0053 17.4192 20.1535 17.575 20.1535C17.7307 20.1535 17.8447 20.0091 17.8447 19.8078C17.8447 19.6065 17.7687 19.4697 17.5788 19.4697C17.3889 19.4697 17.3053 19.6521 17.3053 19.8192V19.8116Z" fill="#333D99"/>
<path d="M18.1713 20.1648C18.1703 20.1499 18.1723 20.1349 18.1774 20.1209C18.1825 20.1068 18.1905 20.094 18.2009 20.0832C18.2113 20.0725 18.2239 20.064 18.2378 20.0585C18.2516 20.0529 18.2665 20.0503 18.2815 20.0509C18.2963 20.0502 18.311 20.0528 18.3248 20.0584C18.3385 20.064 18.3508 20.0725 18.3609 20.0834C18.371 20.0942 18.3787 20.1071 18.3833 20.1211C18.388 20.1352 18.3895 20.1501 18.3878 20.1648C18.3908 20.1807 18.3903 20.1971 18.3862 20.2128C18.3822 20.2285 18.3747 20.2431 18.3644 20.2555C18.354 20.268 18.3411 20.278 18.3264 20.2849C18.3118 20.2918 18.2958 20.2954 18.2796 20.2954C18.2634 20.2954 18.2474 20.2918 18.2328 20.2849C18.2181 20.278 18.2051 20.268 18.1948 20.2555C18.1845 20.2431 18.177 20.2285 18.1729 20.2128C18.1689 20.1971 18.1683 20.1807 18.1713 20.1648V20.1648Z" fill="#333D99"/>
<path d="M19.3869 19.8116C19.3923 19.872 19.3848 19.933 19.3649 19.9903C19.3451 20.0476 19.3133 20.1001 19.2716 20.1443C19.23 20.1884 19.1795 20.2233 19.1234 20.2464C19.0673 20.2696 19.0069 20.2807 18.9463 20.2788C18.8881 20.2795 18.8304 20.2681 18.7769 20.2452C18.7234 20.2224 18.6752 20.1886 18.6355 20.146C18.5958 20.1035 18.5655 20.0531 18.5464 19.9981C18.5273 19.9431 18.5199 19.8848 18.5246 19.8268C18.5198 19.767 18.5276 19.7068 18.5475 19.6502C18.5674 19.5936 18.599 19.5418 18.6401 19.4981C18.6813 19.4544 18.7312 19.4199 18.7865 19.3967C18.8419 19.3735 18.9015 19.3621 18.9615 19.3634C19.0196 19.3622 19.0774 19.3731 19.1311 19.3955C19.1848 19.4179 19.2332 19.4513 19.2732 19.4935C19.3133 19.5357 19.3441 19.5858 19.3636 19.6405C19.3832 19.6953 19.3911 19.7536 19.3869 19.8116V19.8116ZM18.6842 19.8116C18.6842 20.0053 18.7981 20.1535 18.9539 20.1535C19.1096 20.1535 19.2236 20.0091 19.2236 19.8078C19.2236 19.6065 19.1476 19.4697 18.9577 19.4697C18.7677 19.4697 18.6842 19.6521 18.6842 19.8192V19.8116Z" fill="#333D99"/>
<path d="M19.5502 20.1649C19.551 20.1431 19.5582 20.1221 19.5709 20.1044C19.5836 20.0867 19.6013 20.0732 19.6217 20.0656C19.6421 20.0579 19.6643 20.0565 19.6855 20.0615C19.7067 20.0665 19.726 20.0777 19.7408 20.0936C19.7557 20.1095 19.7655 20.1295 19.769 20.151C19.7725 20.1725 19.7696 20.1945 19.7606 20.2144C19.7515 20.2342 19.7368 20.2509 19.7183 20.2624C19.6998 20.2738 19.6783 20.2796 19.6566 20.2788C19.6419 20.2789 19.6274 20.2759 19.614 20.2701C19.6006 20.2643 19.5885 20.2557 19.5785 20.2451C19.5685 20.2344 19.5609 20.2217 19.556 20.2079C19.5511 20.1941 19.5492 20.1795 19.5502 20.1649V20.1649Z" fill="#333D99"/>
</g>
</g>
<defs>
<clipPath id="clip0_5591_5744">
<rect width="32.5" height="32.5" fill="white" transform="translate(0.25 0.75)"/>
</clipPath>
<clipPath id="clip1_5591_5744">
<rect width="32.5" height="32.5" fill="white" transform="translate(0.25 0.75)"/>
</clipPath>
</defs>
</svg>
