<svg width="37" height="30" viewBox="0 0 37 30" fill="none" xmlns="http://www.w3.org/2000/svg">
<g clip-path="url(#clip0_5591_5747)">
<path d="M0.75 9.02754C0.75791 8.89175 0.777684 8.75564 0.770433 8.62052C0.761864 8.46167 0.802731 8.403 0.97872 8.40531C1.80725 8.41586 2.63579 8.41058 3.46465 8.40993C5.31946 8.40861 7.17427 8.40828 9.02875 8.40235C9.16387 8.40202 9.17871 8.46035 9.17838 8.57042C9.17541 9.40423 9.1764 10.2384 9.17739 11.0722C9.17739 11.2037 9.18035 11.3355 9.18958 11.4667C9.19815 11.5886 9.15003 11.6288 9.02809 11.6275C8.49584 11.6222 7.96359 11.6295 7.43134 11.6226C7.28534 11.6206 7.23096 11.6585 7.23129 11.8153C7.2359 13.9661 7.23557 16.1169 7.23162 18.2673C7.23162 18.4116 7.27413 18.4555 7.41881 18.4535C7.99424 18.4459 8.56999 18.4505 9.16124 18.4505V21.6279H8.97998C6.31311 21.6279 3.64625 21.6259 0.97905 21.6322C0.804049 21.6325 0.769445 21.5768 0.770763 21.418C0.777025 20.4962 0.776695 19.5744 0.770763 18.6529C0.769774 18.5 0.805367 18.4433 0.970481 18.4469C1.48593 18.4578 2.00203 18.4476 2.5178 18.4532C2.64732 18.4545 2.70335 18.4235 2.70302 18.2805C2.6994 16.1132 2.69973 13.9463 2.70269 11.7791C2.70269 11.6585 2.66776 11.6166 2.54417 11.6183C1.946 11.6258 1.34817 11.6258 0.75 11.6285V9.02786L0.75 9.02754Z" fill="#0053C7"/>
<path d="M18.6294 0.105469C18.9237 0.128539 19.218 0.151938 19.5126 0.174678C21.3674 0.31837 23.1329 0.794596 24.8097 1.59808C26.3986 2.35906 27.8039 3.37709 29.0365 4.63341C29.6831 5.29287 30.2657 6.00573 30.7855 6.76934C30.8125 6.80921 30.8362 6.8514 30.8616 6.89292C30.6174 7.01388 30.302 6.94401 30.1623 6.74396C29.3901 5.63826 28.462 4.68119 27.4064 3.84409C27.2739 3.73896 27.1711 3.75049 27.0376 3.83157C26.6725 4.05337 26.302 4.2666 25.9316 4.4795C25.7615 4.57738 25.7332 4.65582 25.8528 4.81599C25.9965 5.00845 26.1639 5.18345 26.3053 5.37724C26.6711 5.8795 27.0284 6.38836 27.3922 6.89952C27.0768 7.04123 26.8518 6.96873 26.6646 6.72583C26.22 6.14876 25.7629 5.58124 25.3137 5.00747C25.2349 4.90695 25.1601 4.88684 25.0332 4.93331C24.2778 5.20949 23.5188 5.47446 22.7608 5.74339C22.7256 5.75592 22.691 5.76976 22.6102 5.80008C22.7625 6.17908 22.9111 6.54984 23.0713 6.94895C22.8963 6.94895 22.7447 6.95752 22.5947 6.94368C22.5512 6.93972 22.5001 6.87908 22.4761 6.83228C22.3508 6.58873 22.2305 6.34288 22.1142 6.09504C22.0585 5.97607 21.9896 5.94575 21.8538 5.97738C20.9449 6.18897 20.0218 6.30003 19.0908 6.35408C18.9757 6.36067 18.8604 6.38704 18.7467 6.37946C18.6033 6.36957 18.5628 6.44241 18.5572 6.56204C18.5545 6.62235 18.5549 6.68266 18.5545 6.74297C18.5536 6.94829 18.5374 6.96378 18.3291 6.9595C18.3182 6.9595 18.3074 6.95719 18.2965 6.95653C18.1067 6.94642 18.0138 6.8469 18.018 6.65794C18.0236 6.40648 17.9847 6.36496 17.7326 6.35606C16.6793 6.31882 15.6365 6.19523 14.606 5.97343C14.5051 5.95168 14.4521 5.97277 14.4106 6.06142C14.3015 6.29443 14.1782 6.5215 14.082 6.75978C14.0134 6.92984 13.908 6.99674 13.7313 6.97927C13.6473 6.9707 13.5616 6.97795 13.4383 6.97795C13.4848 6.85074 13.5135 6.75945 13.551 6.67178C13.6526 6.43548 13.7583 6.20116 13.8608 5.96519C13.9027 5.86896 13.8842 5.81293 13.7699 5.77305C13.0102 5.5094 12.2529 5.23915 11.4968 4.96528C11.3996 4.93002 11.3357 4.93496 11.2701 5.01801C10.8357 5.56839 10.3717 6.09834 9.97325 6.67376C9.76958 6.96807 9.54877 7.02409 9.22151 6.96312C9.26204 6.88798 9.29269 6.81317 9.3385 6.7489C9.77024 6.14217 10.2043 5.53675 10.639 4.93166C10.6772 4.87827 10.7263 4.83279 10.7649 4.77973C10.8288 4.69207 10.8166 4.62681 10.7138 4.56914C10.2791 4.32526 9.84571 4.07841 9.41661 3.8253C9.3006 3.75675 9.21722 3.79564 9.13714 3.87013C8.59961 4.37008 8.041 4.84993 7.53478 5.37988C7.11227 5.82249 6.74744 6.32112 6.36745 6.80295C6.2844 6.90841 6.20827 6.96708 6.0715 6.95258C5.9578 6.94071 5.84212 6.95027 5.70007 6.95027C5.73237 6.88963 5.75083 6.84679 5.7762 6.80856C7.63167 4.0448 10.1281 2.10265 13.2607 0.980472C14.3937 0.574444 15.5631 0.319029 16.7587 0.186872C17.0745 0.151938 17.3935 0.148313 17.7109 0.128539C17.7649 0.125243 17.8183 0.113378 17.872 0.105469C18.1245 0.105469 18.3769 0.105469 18.6294 0.105469V0.105469ZM18.0117 4.22606H18.0141C18.0141 4.18223 18.0141 4.13839 18.0141 4.09456C18.0111 3.65591 18.0088 3.21758 18.0052 2.77893C18.0042 2.656 17.9897 2.56833 17.8196 2.55812C17.5092 2.53933 17.2 2.48858 16.8919 2.44178C16.7759 2.42398 16.6951 2.44837 16.6243 2.54493C16.4397 2.79672 16.2331 3.03368 16.0624 3.29437C15.6517 3.92154 15.2523 4.55662 14.8571 5.19367C14.7325 5.39438 14.7718 5.47611 15.0021 5.51731C15.4484 5.59739 15.8949 5.68638 16.3455 5.7312C16.8503 5.78162 17.3602 5.78558 17.8674 5.81326C17.9857 5.81952 18.015 5.76712 18.0141 5.65704C18.0094 5.18016 18.0121 4.70327 18.0121 4.22639L18.0117 4.22606ZM21.7428 5.43129C21.7151 5.36373 21.7022 5.32253 21.6825 5.28496C21.166 4.30812 20.554 3.39489 19.8636 2.53274C19.7957 2.44804 19.7268 2.42629 19.6237 2.44408C19.3597 2.48956 19.094 2.52878 18.8284 2.56372C18.5592 2.59898 18.5565 2.59536 18.5562 2.87186C18.5552 3.66151 18.5539 4.45115 18.5572 5.2408C18.5582 5.4359 18.5766 5.63101 18.5882 5.84424C19.6596 5.80172 20.7017 5.71406 21.7431 5.43195L21.7428 5.43129ZM21.2254 1.8591C21.1838 1.8736 21.1423 1.88613 21.1028 1.90293C20.9113 1.98368 20.7198 2.06409 20.5293 2.14714C20.3662 2.21833 20.3612 2.25228 20.4578 2.4019C21.0553 3.32568 21.6525 4.24979 22.245 5.17686C22.3027 5.26717 22.3515 5.28364 22.4563 5.26057C23.1751 5.10073 23.8599 4.844 24.5329 4.55167C24.7326 4.46467 24.7521 4.39183 24.585 4.24682C24.0765 3.80553 23.5818 3.34282 23.0393 2.94701C22.5199 2.568 21.9474 2.26117 21.3971 1.92534C21.347 1.89469 21.2857 1.88217 21.2257 1.85976L21.2254 1.8591ZM14.1466 5.31891C14.1901 5.27145 14.255 5.21872 14.2972 5.15215C14.807 4.34833 15.3126 3.54155 15.8224 2.73773C15.8897 2.63161 15.9829 2.54164 16.0465 2.4342C16.0927 2.35609 16.1665 2.24568 16.031 2.18307C15.8079 2.08024 15.5785 1.99027 15.3482 1.90458C15.3001 1.88678 15.2269 1.89272 15.1814 1.91743C13.9907 2.55614 12.9334 3.37742 11.9523 4.30021C11.8205 4.42446 11.8432 4.5263 12.0136 4.5899C12.4898 4.76721 12.9664 4.94353 13.4459 5.11161C13.6621 5.18741 13.8859 5.24245 14.1466 5.31858V5.31891ZM18.2566 0.656836C17.8786 0.656836 17.4976 0.624868 17.1239 0.664087C16.4885 0.73066 15.8574 0.840406 15.2252 0.938287C15.1788 0.945538 15.1106 1.00025 15.1056 1.03946C15.1 1.08429 15.1419 1.15778 15.1841 1.1825C15.449 1.33542 15.7097 1.50152 15.9905 1.6195C17.0105 2.04893 18.0757 2.1455 19.1639 1.9817C19.9232 1.86734 20.642 1.62807 21.286 1.197C21.3401 1.16108 21.3654 1.08264 21.4043 1.02398C21.3499 0.99003 21.2992 0.937299 21.2402 0.924775C20.2568 0.716488 19.2631 0.605424 18.2569 0.656836H18.2566ZM14.2642 1.17788C14.2543 1.19041 14.2441 1.2026 14.2342 1.21512C14.1535 1.22831 14.0701 1.23259 13.993 1.25665C13.8529 1.30048 13.7175 1.35948 13.5784 1.40726C12.3392 1.83241 11.1732 2.40487 10.0863 3.13651C10.0141 3.18495 9.94392 3.24065 9.88592 3.30492C9.81473 3.38401 9.82165 3.46509 9.9225 3.52144C10.3045 3.73599 10.6854 3.95186 11.0694 4.16278C11.1897 4.2287 11.2922 4.21716 11.4036 4.1084C11.686 3.83321 11.9793 3.56857 12.2792 3.3125C12.9848 2.71005 13.7366 2.16955 14.5325 1.69201C14.6146 1.6429 14.7058 1.56842 14.6413 1.49097C14.5381 1.36771 14.3921 1.28038 14.2642 1.17755V1.17788ZM25.311 4.18124C25.3832 4.15388 25.4366 4.14103 25.4827 4.115C25.8443 3.90934 26.2051 3.70238 26.5644 3.4931C26.7147 3.40576 26.7173 3.32535 26.5713 3.22483C25.2998 2.35213 23.9446 1.65543 22.4517 1.23885C22.2487 1.18217 22.1168 1.24479 21.9817 1.35849C21.8674 1.45472 21.8796 1.57369 22.0097 1.64884C23.1645 2.31654 24.1977 3.14079 25.1462 4.07545C25.193 4.12126 25.2586 4.14795 25.3113 4.18091L25.311 4.18124Z" fill="#0053C7"/>
<path d="M36.8611 15.1059C36.8404 16.3622 36.6228 17.574 36.0833 18.7213C35.5168 19.9258 34.5822 20.7326 33.3736 21.227C31.9664 21.8027 30.4939 22.0173 28.9792 21.8828C27.3995 21.7428 25.9518 21.2375 24.7119 20.2234C23.948 19.5986 23.4658 18.7763 23.1488 17.8529C22.7688 16.7465 22.6913 15.6049 22.7767 14.4468C22.8307 13.7141 22.9085 12.9832 23.1517 12.2855C23.6365 10.8934 24.4842 9.79985 25.8351 9.14962C26.8149 8.67767 27.8474 8.38634 28.9363 8.30032C30.6036 8.16882 32.2043 8.4015 33.7068 9.16379C34.5858 9.60969 35.3451 10.2 35.877 11.0496C36.2063 11.5756 36.3984 12.1569 36.5582 12.7492C36.7662 13.5197 36.8496 14.3087 36.8611 15.1056V15.1059ZM27.5815 14.9039C27.6019 15.6681 27.6161 16.4265 27.7706 17.1795C27.9318 17.9639 28.3836 18.4263 29.1674 18.574C29.6255 18.66 30.0783 18.6514 30.536 18.5525C31.3906 18.3683 31.8573 17.872 31.9374 17.0045C31.9838 16.5029 32.0221 15.9997 32.0333 15.4964C32.0521 14.6587 32.0504 13.8232 31.8817 12.9927C31.7245 12.2186 31.2802 11.7736 30.5189 11.6072C29.9923 11.4922 29.4781 11.5288 28.9617 11.6619C28.2416 11.8475 27.831 12.3131 27.7416 13.0395C27.6658 13.6581 27.6335 14.2823 27.5818 14.9042L27.5815 14.9039Z" fill="#0053C7"/>
<path d="M12.8942 20.7261V21.6169H9.99108V16.8125C10.0405 16.8099 10.0929 16.8046 10.145 16.8046C10.9241 16.8039 11.7032 16.8023 12.4826 16.8079C12.5452 16.8082 12.6378 16.8455 12.6659 16.8946C13.1727 17.7781 13.9637 18.284 14.9033 18.5948C15.8923 18.9221 16.8906 18.9494 17.8951 18.6739C18.0639 18.6278 18.2329 18.5694 18.3064 18.3806C18.3733 18.2086 18.3133 18.0619 18.1743 17.9795C17.9696 17.8579 17.7521 17.7458 17.5257 17.6756C16.0832 17.2301 14.6347 16.8036 13.1922 16.3577C12.0321 15.9991 11.0589 15.369 10.3836 14.3345C10.0484 13.8213 9.89814 13.2502 9.87837 12.6405C9.85464 11.9016 9.96076 11.1897 10.2913 10.5187C10.7125 9.66384 11.427 9.14147 12.272 8.77499C13.3112 8.32447 14.406 8.21868 15.5245 8.29712C16.2535 8.3482 16.9779 8.44806 17.6624 8.70875C18.0695 8.86365 18.4481 9.09204 18.8393 9.28813C18.8835 9.31021 18.9234 9.34218 18.9692 9.35866C19.0766 9.39755 19.1514 9.38403 19.1468 9.24133C19.1419 9.08248 19.1481 8.9233 19.1465 8.76412C19.1455 8.6781 19.1745 8.63328 19.2701 8.63361C20.1425 8.6369 21.0148 8.6369 21.8872 8.63855C21.8974 8.63855 21.9079 8.64481 21.9439 8.65635C21.9439 8.70051 21.9439 8.75258 21.9439 8.80498C21.9445 10.1819 21.9429 11.5589 21.9495 12.9358C21.9501 13.0844 21.902 13.1213 21.7623 13.1203C20.9667 13.1151 20.1711 13.1197 19.3755 13.1144C19.3083 13.1141 19.2131 13.0871 19.1785 13.0386C18.5391 12.1405 17.6295 11.6801 16.5943 11.4073C15.9612 11.2405 15.3182 11.196 14.6716 11.2336C14.4752 11.2451 14.2606 11.3275 14.0968 11.4396C13.7824 11.6544 13.8048 12.0404 14.1456 12.2127C14.4353 12.359 14.7524 12.4586 15.0658 12.5509C16.4038 12.9453 17.7504 13.3108 19.0832 13.7221C20.4661 14.1489 21.5326 14.9933 22.0955 16.3445C22.8522 18.1618 22.0668 20.3982 20.1705 21.2946C19.1409 21.7814 18.055 21.9459 16.9262 21.8994C15.8241 21.8539 14.7705 21.6061 13.7643 21.1592C13.5399 21.0593 13.3303 20.9258 13.1121 20.8112C13.0524 20.7798 12.9862 20.7614 12.8939 20.7258L12.8942 20.7261Z" fill="#0053C7"/>
<path d="M5.72952 23.0669C5.92165 23.0669 6.08611 23.0531 6.24562 23.0741C6.30494 23.0821 6.36361 23.1638 6.40612 23.2234C7.19412 24.3354 8.10538 25.3304 9.17186 26.1826C9.30863 26.2921 9.42068 26.3046 9.57064 26.213C9.93975 25.9872 10.3171 25.7743 10.6908 25.5558C10.8744 25.4487 10.8836 25.3633 10.7541 25.189C10.2743 24.5427 9.79771 23.8935 9.32181 23.2442C9.28754 23.1974 9.26612 23.1414 9.22327 23.061C9.4131 23.061 9.57525 23.0524 9.73542 23.0666C9.77991 23.0705 9.82408 23.1368 9.85901 23.1816C10.3313 23.7926 10.8032 24.4043 11.2722 25.0183C11.3632 25.1376 11.4538 25.1517 11.5968 25.0984C12.3449 24.8192 13.097 24.5513 13.8494 24.2833C14.0458 24.2135 14.0511 24.2181 13.9641 24.0233C13.8619 23.7933 13.7519 23.5668 13.649 23.3371C13.6138 23.2587 13.5897 23.1753 13.5485 23.06C13.7252 23.06 13.8755 23.0527 14.0238 23.0649C14.062 23.0682 14.1058 23.1282 14.1289 23.1717C14.2574 23.4133 14.3909 23.6535 14.5013 23.9037C14.5629 24.0437 14.642 24.0658 14.7798 24.0427C15.2761 23.9597 15.7728 23.8753 16.2721 23.8144C16.8155 23.7478 17.3616 23.6974 17.9077 23.6598C18.061 23.6492 18.0962 23.579 18.1018 23.4604C18.1055 23.3843 18.0903 23.3078 18.0873 23.2313C18.0857 23.1885 18.0867 23.1091 18.0953 23.1078C18.2422 23.087 18.3905 23.0676 18.5382 23.0705C18.5669 23.0712 18.6077 23.1661 18.6173 23.2221C18.6305 23.3022 18.6262 23.3866 18.6179 23.4683C18.6048 23.5978 18.6634 23.6384 18.7864 23.6479C19.2886 23.6875 19.7925 23.7198 20.2918 23.7844C20.8613 23.8582 21.4278 23.9564 21.9927 24.0605C22.1259 24.0849 22.1789 24.053 22.231 23.9409C22.3464 23.6927 22.4788 23.4525 22.5932 23.2037C22.644 23.0936 22.7079 23.0448 22.8312 23.0583C22.9336 23.0695 23.0381 23.0606 23.1927 23.0606C23.0332 23.4568 22.8849 23.8262 22.7293 24.2125C23.016 24.308 23.286 24.3918 23.5516 24.4877C24.0868 24.6811 24.6204 24.8785 25.152 25.0812C25.2568 25.1211 25.3237 25.1102 25.3916 25.0216C25.8487 24.4264 26.3147 23.8374 26.7629 23.2356C26.8595 23.1058 26.9481 23.0385 27.1089 23.058C27.2114 23.0705 27.3166 23.0603 27.4524 23.0603C27.4122 23.1325 27.3838 23.1875 27.3522 23.2402C26.9478 23.9076 26.492 24.5378 25.9789 25.1257C25.9429 25.1669 25.9044 25.2068 25.8734 25.2519C25.818 25.3327 25.8217 25.4075 25.9139 25.4602C26.3658 25.7186 26.8166 25.978 27.2704 26.2327C27.3848 26.297 27.4767 26.2317 27.5667 26.1596C28.2624 25.6013 28.8876 24.9711 29.4548 24.2846C29.7514 23.9257 30.0319 23.5527 30.3097 23.1786C30.3773 23.0877 30.4442 23.0478 30.5529 23.0596C30.6709 23.0725 30.7899 23.0778 30.9448 23.089C29.9544 24.6211 28.7627 25.9216 27.3265 26.9954C24.9819 28.748 22.3398 29.7136 19.4261 29.9176C12.979 30.3688 8.03946 26.7686 5.72919 23.0672L5.72952 23.0669ZM18.6242 24.1884C18.6242 24.3835 18.6236 24.5569 18.6242 24.7302C18.6288 25.6023 18.6324 26.4743 18.6433 27.3463C18.644 27.3941 18.6984 27.4772 18.7373 27.4834C19.0988 27.5414 19.462 27.5906 19.8261 27.6294C19.8832 27.6357 19.9688 27.5962 20.0048 27.5494C20.688 26.6684 21.3082 25.7463 21.8316 24.7605C21.8985 24.6343 21.8767 24.571 21.7274 24.5496C20.9968 24.4451 20.2678 24.3278 19.5361 24.2326C19.2501 24.1953 18.9584 24.2032 18.6245 24.1887L18.6242 24.1884ZM18.0798 24.2023C18.0191 24.1983 17.9868 24.1937 17.9545 24.1947C16.9783 24.226 16.0088 24.3143 15.0566 24.5453C14.881 24.5879 14.8615 24.6238 14.9439 24.7783C15.4636 25.7529 16.0625 26.676 16.7651 27.5293C16.8136 27.5882 16.9243 27.6344 16.9994 27.6265C17.3142 27.5932 17.6263 27.5332 17.9404 27.4907C18.0672 27.4736 18.1091 27.4198 18.1081 27.2883C18.1018 26.4216 18.1061 25.5548 18.1038 24.6884C18.1035 24.5305 18.0883 24.3726 18.0794 24.2026L18.0798 24.2023ZM11.8644 25.5637C11.9485 25.6952 11.9735 25.7565 12.017 25.7987C12.1587 25.9355 12.3057 26.0673 12.4537 26.1978C13.2934 26.9397 14.1856 27.6083 15.1717 28.1462C15.2715 28.2006 15.3552 28.2151 15.462 28.1643C15.6795 28.0618 15.9016 27.9686 16.1251 27.8799C16.2368 27.8358 16.2566 27.7837 16.1854 27.6855C15.5236 26.7709 14.9073 25.8277 14.3622 24.8383C14.3345 24.7879 14.2245 24.7408 14.1678 24.7546C13.4279 24.9349 12.7134 25.1913 12.0216 25.5097C11.9729 25.5321 11.9191 25.5449 11.8644 25.5634V25.5637ZM21.3685 28.1818C21.416 28.1607 21.4684 28.1446 21.5135 28.1165C21.9888 27.8236 22.4742 27.5454 22.9346 27.231C23.5829 26.7881 24.1768 26.2762 24.7153 25.7028C24.827 25.5841 24.8168 25.535 24.6748 25.4734C24.0018 25.1807 23.3156 24.9293 22.5958 24.7741C22.4709 24.747 22.4264 24.7872 22.3655 24.8831C21.794 25.7845 21.2159 26.6816 20.6408 27.5807C20.6092 27.6304 20.5845 27.6848 20.5601 27.7389C20.5212 27.8249 20.5374 27.8733 20.6402 27.9063C20.8063 27.9597 20.9645 28.0371 21.1273 28.1014C21.2031 28.1314 21.2822 28.1535 21.3682 28.1821L21.3685 28.1818ZM18.5632 29.445C19.517 29.4216 20.4632 29.3333 21.3952 29.1207C21.4456 29.1092 21.5307 29.0598 21.5274 29.0397C21.5172 28.9787 21.4865 28.8983 21.4381 28.8699C21.1784 28.719 20.92 28.5598 20.6445 28.4428C19.723 28.0519 18.7583 27.9429 17.766 28.0388C16.9088 28.1218 16.105 28.3654 15.3743 28.8284C15.3094 28.8696 15.229 28.9444 15.2234 29.0093C15.2119 29.1435 15.3519 29.1217 15.432 29.1382C16.4645 29.3518 17.5086 29.452 18.5632 29.4447V29.445ZM22.3618 28.8887L22.3918 28.8597C22.4287 28.8502 22.4663 28.8426 22.5026 28.831C22.7946 28.7394 23.0902 28.6574 23.3779 28.5535C24.563 28.1254 25.6757 27.5566 26.7 26.82C26.8796 26.6908 26.8707 26.6038 26.6802 26.497C26.346 26.3095 26.0118 26.122 25.677 25.9355C25.4186 25.7914 25.3945 25.7993 25.1754 25.9925C24.625 26.4779 24.0871 26.9792 23.5134 27.4357C23.0688 27.7896 22.5764 28.0833 22.1104 28.4105C22.0616 28.4448 22.0066 28.5644 22.0227 28.5822C22.1252 28.6943 22.2468 28.7885 22.3618 28.8887ZM11.3183 25.8465C11.2425 25.8751 11.1727 25.8926 11.1117 25.9262C10.762 26.1197 10.4133 26.3155 10.066 26.5132C9.90054 26.6074 9.89757 26.7383 10.0587 26.8503C11.346 27.7461 12.7404 28.4174 14.2522 28.8406C14.384 28.8775 14.6559 28.745 14.7096 28.6195C14.7488 28.5278 14.7178 28.4672 14.6321 28.4165C13.4651 27.7267 12.4016 26.9037 11.4521 25.9351C11.4162 25.8985 11.3655 25.8768 11.3187 25.8461L11.3183 25.8465Z" fill="#0053C7"/>
</g>
<defs>
<clipPath id="clip0_5591_5747">
<rect width="36.1111" height="29.7917" fill="white" transform="translate(0.75 0.105469)"/>
</clipPath>
</defs>
</svg>
