<svg width="75" height="34" viewBox="0 0 75 34" fill="none" xmlns="http://www.w3.org/2000/svg">
<path d="M66.8062 17.0844C66.8062 19.7506 66.8062 22.393 66.8062 25.0591C66.8062 26.2494 66.5682 26.3922 65.4493 25.9161C65.3779 25.8923 65.3065 25.8685 65.2351 25.8209C63.8068 24.8687 62.5927 24.9639 60.974 25.8447C55.8797 28.6299 49.2143 25.2972 47.7384 19.4173C46.81 15.6323 47.7384 12.2996 50.6426 9.68107C53.4516 7.15774 56.7843 6.5388 60.3789 7.75286C60.6407 7.84808 60.9502 7.8957 61.1406 8.08614C62.4499 9.46683 63.783 8.89551 65.1637 8.20516C66.592 7.51482 66.7824 7.65764 66.7824 9.22878C66.8062 11.8711 66.8062 14.4659 66.8062 17.0844ZM62.1166 16.9416C62.1404 14.2278 59.8552 11.9664 57.0938 11.9664C54.3562 11.9664 52.0947 14.204 52.0709 16.9416C52.0471 19.6792 54.38 21.9883 57.1652 21.9645C59.9266 21.9645 62.1166 19.7268 62.1166 16.9416Z" fill="#112950"/>
<path d="M17.6015 26.7752C12.0311 26.7752 7.65097 22.4665 7.65097 16.9438C7.62717 11.4924 12.0787 7.15989 17.6729 7.18369C23.029 7.2075 27.3377 11.6114 27.3139 17.0628C27.2901 22.3475 22.8624 26.799 17.6015 26.7752ZM17.5539 11.9685C14.7687 11.9447 12.4596 14.2062 12.4596 16.9914C12.4596 19.7051 14.7211 21.9428 17.4824 21.9666C20.1962 21.9904 22.5053 19.7051 22.5053 16.9914C22.5053 14.2538 20.3152 12.0161 17.5539 11.9685Z" fill="#112950"/>
<path d="M37.335 19.5363C38.3587 17.2272 39.2871 15.1324 40.1917 13.0613C40.8344 11.6092 41.4771 10.1571 42.0722 8.70502C42.3579 8.03848 42.7626 7.72902 43.5005 7.75282C44.786 7.80043 46.0953 7.77663 47.6188 7.77663C47.4046 8.39556 47.2856 8.80024 47.1189 9.18113C43.8338 16.6559 40.5487 24.1069 37.2874 31.5817C36.8113 32.6529 36.1448 33.2242 34.9307 33.1766C34.1452 33.129 33.3358 33.1528 32.5502 33.1766C31.6456 33.2004 31.4076 32.9147 31.8123 32.034C32.6217 30.2724 33.4548 28.5108 34.1452 26.7016C34.3832 26.0351 34.4308 25.1067 34.1452 24.4878C32.0265 19.4887 29.7889 14.5373 27.5988 9.58581C27.3845 9.10971 27.2179 8.63361 26.9561 7.99087C28.6224 7.70521 30.1697 7.58619 31.6695 8.03849C32.0979 8.15751 32.455 8.80025 32.6693 9.27635C34.0023 12.2282 35.2878 15.2038 36.5971 18.1794C36.8351 18.5365 37.0256 18.9174 37.335 19.5363Z" fill="#112950"/>
<path d="M69.8543 13.4434C69.8543 9.68221 69.8781 5.89721 69.8305 2.13601C69.8066 1.1362 70.1637 0.779127 71.1397 0.874347C71.8777 0.945762 72.6633 0.945762 73.4012 0.874347C74.4962 0.755322 74.7105 1.23142 74.7105 2.25504C74.6867 9.82504 74.6867 17.395 74.7105 24.965C74.7105 25.941 74.4486 26.3457 73.425 26.2505C72.6394 26.1791 71.8301 26.1791 71.0445 26.2505C70.1161 26.3219 69.8066 25.9649 69.8066 25.0126C69.8781 21.1324 69.8543 17.2998 69.8543 13.4434Z" fill="#112950"/>
<path d="M5.17482 13.7047C5.17482 17.4659 5.15102 21.2271 5.19863 24.9883C5.19863 25.8928 4.96058 26.2261 4.00838 26.2261C0.390013 26.2499 0.390017 26.2737 0.390017 22.6792C0.390017 15.8709 0.413821 9.03888 0.366211 2.23064C0.366211 1.18322 0.651873 0.778528 1.69929 0.897553C2.79433 1.01658 4.29404 0.611892 4.88917 1.18321C5.46049 1.73073 5.17482 3.25425 5.17482 4.34928C5.19863 7.44394 5.17482 10.5624 5.17482 13.7047Z" fill="#112950"/>
</svg>
