<svg width="95" height="50" viewBox="0 0 95 50" fill="none" xmlns="http://www.w3.org/2000/svg">
<path fill-rule="evenodd" clip-rule="evenodd" d="M40.4537 34.4246V23.705H42.1804C43.3315 23.705 43.4754 25.1438 43.4754 25.1438C44.1229 24.1366 45.1301 23.4891 46.425 23.4891C48.0078 23.4891 48.9431 24.2086 49.4467 25.2158C50.2381 24.2086 51.3892 23.4891 52.828 23.4891C55.0583 23.4891 56.3533 24.9999 56.3533 27.518V34.4246H53.2597V27.7338C53.2597 26.5827 52.3964 26.0072 51.605 26.0072C50.7417 26.0072 49.9503 26.5827 49.9503 27.8777V34.4965H46.8567V27.7338C46.8567 26.6547 46.0653 26.0791 45.274 26.0791C44.4106 26.0791 43.6193 26.6547 43.5473 27.7338V34.4246H40.4537Z" fill="#112950"/>
<path fill-rule="evenodd" clip-rule="evenodd" d="M62.9001 23.4891C66.4973 23.4891 67.9362 26.0791 67.9362 29.3885H68.08V29.7482H60.7418C60.9576 31.5468 62.0368 32.1943 63.2598 32.1943C64.4109 32.1943 65.2743 31.6907 65.7779 30.8993L67.7923 32.3382C66.6412 33.849 65.4901 34.6404 63.044 34.6404C59.8785 34.6404 57.5763 32.3382 57.5763 29.0288C57.5763 26.0072 59.5907 23.4891 62.9001 23.4891ZM62.8281 26.0072C61.8209 26.0072 60.9576 26.6547 60.6698 27.8777H64.9145C64.6987 26.6547 63.7634 26.0072 62.8281 26.0072Z" fill="#112950"/>
<path fill-rule="evenodd" clip-rule="evenodd" d="M73.4039 34.7124C74.6269 34.7124 75.778 34.0649 76.6413 33.0577C76.6413 33.7771 77.2169 34.4246 78.0802 34.4965H79.663V18.4531H76.5694V24.8561C75.778 23.9928 74.6269 23.5611 73.4758 23.5611C70.4542 23.5611 68.7995 26.223 68.7995 29.1008C68.7995 31.9785 70.3823 34.7124 73.4039 34.7124ZM74.1953 26.223C75.6341 26.223 76.5694 27.3741 76.5694 29.0288C76.5694 30.5396 75.5622 31.9065 74.1953 31.9785C72.6125 31.9785 71.8211 30.6835 71.8211 29.1007C71.8211 27.518 72.6125 26.223 74.1953 26.223Z" fill="#112950"/>
<path fill-rule="evenodd" clip-rule="evenodd" d="M84.6271 20.3956C84.6271 19.3884 83.7638 18.597 82.8285 18.597C81.8932 18.597 81.0299 19.3884 81.0299 20.3956C81.0299 21.4028 81.8932 22.1942 82.8285 22.1942C83.8357 22.1942 84.6271 21.4028 84.6271 20.3956ZM81.2457 23.705V34.4246H84.3393V25.5036C84.3393 24.4963 83.5479 23.705 82.5407 23.705H81.2457Z" fill="#112950"/>
<path fill-rule="evenodd" clip-rule="evenodd" d="M87.145 30.8274C87.8645 31.6907 89.0875 32.0504 90.0947 32.0504C90.7422 32.0504 91.2458 31.7626 91.2458 31.4029C91.2458 30.8274 90.6703 30.6115 89.807 30.3238C88.1523 29.8202 86.0659 28.8849 86.0659 26.7266C86.0659 24.6402 88.0803 23.4891 89.8789 23.4891C91.5336 23.4891 92.6127 24.0647 93.62 25.0719L91.8933 26.9424C91.4617 26.4388 90.5983 26.0072 89.9508 26.0072C89.3753 26.0072 88.9436 26.2949 88.9436 26.6547C88.9436 27.1583 89.5911 27.446 90.5264 27.7338C92.1811 28.2374 94.2675 29.2446 94.2675 31.259C94.2675 33.2735 92.5408 34.7123 90.0947 34.7123C88.1523 34.7123 86.5695 34.1368 85.4184 32.9137L87.145 30.8274Z" fill="#112950"/>
<path fill-rule="evenodd" clip-rule="evenodd" d="M62.4684 22.1942L63.5476 18.3812H66.2815C66.2815 18.3812 65.9217 19.3884 65.4901 20.3236C64.9145 21.4747 63.6915 22.1942 62.4684 22.1942Z" fill="#112950"/>
<path fill-rule="evenodd" clip-rule="evenodd" d="M16.6404 12.7696C26.6405 12.7696 34.6982 20.8273 34.6982 30.8274C34.6982 40.8276 26.6405 48.9572 16.6404 48.9572V12.7696Z" fill="#112950"/>
<path fill-rule="evenodd" clip-rule="evenodd" d="M32.2521 16.6545C32.2521 21.4028 29.1586 24.2805 26.4966 25.7194C24.4822 26.7986 21.9642 28.8849 21.9642 32.8418V41.7628H16.6404V32.2663V10.1077C16.6404 4.42413 23.475 1.54639 27.5758 5.50328L27.6477 5.57522C30.4535 8.38102 32.2521 12.3379 32.2521 16.6545Z" fill="white"/>
<path fill-rule="evenodd" clip-rule="evenodd" d="M16.6404 41.7628C7.86332 41.7628 0.740906 34.6404 0.740906 25.8633C0.740906 17.0862 7.86332 9.96381 16.6404 9.96381V41.7628Z" fill="#112950"/>
<path fill-rule="evenodd" clip-rule="evenodd" d="M27.288 18.8128C22.1081 23.4172 17.8634 22.2661 16.6404 29.3166V1.04279C20.957 1.04279 24.8419 2.76943 27.6477 5.57523C31.8924 9.8199 31.0291 15.5034 27.288 18.8128Z" fill="#112950"/>
<path fill-rule="evenodd" clip-rule="evenodd" d="M16.6404 9.96381V20.6114C19.5901 20.6114 21.9642 18.2373 21.9642 15.2876C21.9642 12.3379 19.5901 9.96381 16.6404 9.96381Z" fill="white"/>
<path fill-rule="evenodd" clip-rule="evenodd" d="M16.6404 29.3166C16.6404 25.7914 13.7626 22.9136 10.2374 22.9136H3.69055V29.3166V29.4605H16.7123V29.3166H16.6404Z" fill="white"/>
</svg>
