<svg width="142" height="32" viewBox="0 0 142 32" fill="none" xmlns="http://www.w3.org/2000/svg">
<path fill-rule="evenodd" clip-rule="evenodd" d="M140.967 12.0559V14.553H137.863V20.6675C137.863 21.461 138.003 21.9978 138.283 22.3245C138.587 22.6746 139.007 22.8146 139.614 22.8146C139.777 22.8146 139.987 22.7912 140.22 22.7212C140.5 22.6512 140.664 22.5579 140.85 22.4412L140.967 22.3478V24.845L140.944 24.8683C140.757 24.9616 140.43 25.0783 139.987 25.1717C139.567 25.2417 139.123 25.3117 138.703 25.3117C136.136 25.3117 134.853 23.9348 134.853 21.2043V14.553H130.279V24.985H127.221V14.5297H125.098V12.0559H127.221V10.2589C127.221 9.34875 127.431 8.55526 127.828 7.85513C128.225 7.13167 128.762 6.5949 129.485 6.19816C130.208 5.84809 131.002 5.63806 131.912 5.63806C132.636 5.63806 133.196 5.73141 133.616 5.87143L133.686 5.89477V8.53193L133.569 8.46191C133.079 8.25187 132.636 8.15852 132.216 8.15852C131.609 8.15852 131.119 8.34523 130.792 8.71863C130.465 9.09203 130.279 9.67547 130.279 10.4223V12.0559H134.853V9.13871L134.923 9.11537L137.817 8.25187L137.91 8.22854V12.0559H140.967ZM61.8524 7.1083C62.2025 6.78158 62.6226 6.59488 63.136 6.59488C63.6728 6.59488 64.1162 6.78158 64.4196 7.1083C64.7697 7.45837 64.9564 7.87845 64.9564 8.36854C64.9564 8.85863 64.7697 9.27871 64.4196 9.60544C64.0929 9.90883 63.6494 10.0955 63.136 10.0955C62.6226 10.0955 62.2025 9.93216 61.8524 9.60544C61.5024 9.27871 61.3157 8.85863 61.3157 8.36854C61.3157 7.85511 61.5024 7.43503 61.8524 7.1083ZM49.7869 18.2871L48.9467 20.6675H48.8767C48.7367 20.1307 48.48 19.3139 48.0599 18.3337L43.5557 7.01497H39.1449V25.055H42.0621V13.9229C42.0621 13.2228 42.0621 12.4293 42.0388 11.4491C42.0222 11.101 41.9938 10.8118 41.9704 10.5731C41.9609 10.4757 41.9522 10.3867 41.9454 10.3056H42.0154C42.1554 11.0057 42.3188 11.5191 42.4355 11.8459L47.8498 25.0083H49.9036L55.2712 11.7292C55.3605 11.4972 55.4497 11.0877 55.5389 10.6783L55.5391 10.6777C55.5665 10.5519 55.5939 10.4262 55.6213 10.3056H55.6913C55.6213 11.6358 55.5746 12.826 55.5513 13.5495V24.985H58.6552V6.96829H54.4077L49.7869 18.2871ZM61.5957 12.0559H64.6296V24.985H61.5957V12.0559ZM75.3883 11.9392C74.8282 11.8225 74.2447 11.7525 73.6846 11.7525C72.3077 11.7525 71.0475 12.0559 69.9973 12.6627C68.9471 13.2695 68.1069 14.1096 67.5702 15.1598C67.0101 16.2333 66.73 17.4702 66.73 18.8938C66.73 20.1307 67.0101 21.2276 67.5468 22.2311C68.0836 23.2113 68.8304 24.0048 69.8339 24.5416C70.7908 25.0783 71.911 25.3584 73.1712 25.3584C74.6181 25.3584 75.855 25.055 76.8352 24.4949L76.8586 24.4715V21.671L76.7419 21.7644C76.2985 22.0911 75.785 22.3712 75.2716 22.5345C74.7348 22.7212 74.2447 22.8146 73.8247 22.8146C72.6111 22.8146 71.6543 22.4645 70.9775 21.6944C70.2773 20.9476 69.9273 19.9207 69.9273 18.6371C69.9273 17.3069 70.2773 16.2567 71.0008 15.4865C71.7243 14.7164 72.6811 14.3197 73.848 14.3197C74.8282 14.3197 75.8317 14.6464 76.7419 15.2998L76.8586 15.3932V12.4293L76.8352 12.406L76.8005 12.3917C76.4126 12.2318 75.9775 12.0525 75.3883 11.9392ZM83.3464 12.5693C83.9532 12.0793 84.6533 11.8459 85.4002 11.8459C85.9136 11.8459 86.3337 11.9159 86.5437 12.0559L86.6137 12.0793V15.1132L86.497 15.0198C86.3337 14.9031 86.1003 14.8098 85.7736 14.7164C85.6569 14.7009 85.548 14.6827 85.4442 14.6654C85.2368 14.6308 85.0501 14.5997 84.8634 14.5997C84.0699 14.5997 83.4164 14.9498 82.903 15.6499C82.3896 16.3267 82.1562 17.2602 82.1562 18.3804V24.985H79.1223V12.0559H82.1562V14.3197H82.1796C82.4829 13.5962 82.833 12.9894 83.3464 12.5693ZM93.6617 11.7759C91.538 11.7759 89.8343 12.406 88.6441 13.6429C87.4305 14.8798 86.8471 16.5834 86.8471 18.7305C86.8471 20.7375 87.4539 22.3712 88.6208 23.5614C89.7877 24.7283 91.3746 25.3351 93.3583 25.3351C95.4354 25.3351 97.0923 24.705 98.2826 23.4447C99.4961 22.1845 100.08 20.5042 100.08 18.4271C100.08 16.3734 99.5195 14.7398 98.3759 13.5495C97.279 12.3593 95.6687 11.7759 93.6617 11.7759ZM93.545 22.7912C94.6419 22.7912 95.5287 22.4412 96.0888 21.7177C96.6722 20.9942 96.929 19.8974 96.9756 18.4971C96.9756 17.1202 96.6489 16.07 96.0421 15.3465C95.4354 14.623 94.5952 14.273 93.5217 14.273C92.4248 14.273 91.5613 14.6464 90.9312 15.3932C90.3244 16.14 89.9977 17.1902 89.9977 18.5671C89.9977 19.8974 90.3011 20.9476 90.9312 21.671C91.5613 22.4412 92.4481 22.7912 93.545 22.7912ZM106.847 17.4236C105.891 17.0268 105.284 16.7234 105.004 16.4667C104.77 16.2333 104.654 15.9066 104.654 15.4865C104.654 15.1365 104.794 14.7864 105.144 14.553C105.494 14.3197 105.891 14.203 106.474 14.203C106.987 14.203 107.524 14.2963 108.038 14.4363C108.551 14.5764 109.018 14.7864 109.391 15.0665L109.508 15.1598V12.3126L109.438 12.2893C109.088 12.1492 108.621 12.0092 108.061 11.8925C107.501 11.7992 106.987 11.7525 106.567 11.7525C105.12 11.7525 103.93 12.1026 102.997 12.8727C102.063 13.5962 101.62 14.5764 101.62 15.7199C101.62 16.3267 101.713 16.8635 101.923 17.3069C102.133 17.7503 102.437 18.1704 102.857 18.5204C103.277 18.8472 103.884 19.2206 104.724 19.5706C105.424 19.874 105.961 20.1074 106.287 20.2941C106.614 20.4808 106.824 20.6908 106.987 20.8542C107.104 21.0409 107.174 21.2743 107.174 21.5777C107.174 22.4412 106.521 22.8612 105.19 22.8612C104.677 22.8612 104.14 22.7679 103.51 22.5579C102.88 22.3478 102.297 22.0444 101.807 21.6944L101.69 21.601V24.5649L101.76 24.5882C102.203 24.7983 102.74 24.9383 103.393 25.1017C104.047 25.2183 104.63 25.3117 105.144 25.3117C106.707 25.3117 107.991 24.9616 108.901 24.1915C109.835 23.4447 110.325 22.4878 110.325 21.2509C110.325 20.3874 110.091 19.6173 109.578 19.0339C108.901 18.4738 108.061 17.8903 106.847 17.4236ZM113.312 13.6429C114.502 12.406 116.206 11.7759 118.33 11.7759C120.337 11.7759 121.947 12.3593 123.044 13.5495C124.187 14.7398 124.747 16.3734 124.747 18.4271C124.747 20.5042 124.164 22.1845 122.95 23.4447C121.76 24.705 120.103 25.3351 118.026 25.3351C116.043 25.3351 114.456 24.7283 113.289 23.5614C112.122 22.3712 111.515 20.7375 111.515 18.7305C111.515 16.5834 112.122 14.8798 113.312 13.6429ZM120.733 21.7177C120.173 22.4412 119.286 22.7912 118.19 22.7912C117.069 22.7912 116.206 22.4412 115.576 21.671C114.946 20.9476 114.642 19.8974 114.642 18.5671C114.642 17.1902 114.969 16.14 115.576 15.3932C116.206 14.6464 117.069 14.273 118.166 14.273C119.216 14.273 120.08 14.623 120.687 15.3465C121.293 16.07 121.62 17.1202 121.62 18.4971C121.62 19.8974 121.317 20.9942 120.733 21.7177Z" fill="#112950"/>
<path d="M0.0309448 0.947205H14.3369V15.2532H0.0309448V0.947205Z" fill="#112950"/>
<path d="M15.8305 0.947205H30.1365V15.2532H15.8305V0.947205Z" fill="#112950"/>
<path d="M0.0309448 16.7468H14.3369V31.0528H0.0309448V16.7468Z" fill="#112950"/>
<path d="M15.8305 16.7468H30.1365V31.0528H15.8305V16.7468Z" fill="#112950"/>
</svg>
