<svg width="112" height="46" viewBox="0 0 112 46" fill="none" xmlns="http://www.w3.org/2000/svg">
<path fill-rule="evenodd" clip-rule="evenodd" d="M22.7322 0.420776C10.2808 0.423365 0.15094 10.554 0.15094 23.0031C0.15094 35.4513 10.2808 45.5792 22.7322 45.5792C35.1797 45.5792 45.3077 35.4513 45.3093 23.0031C45.3077 10.554 35.1795 0.423166 22.7322 0.420776ZM22.7326 38.8772C13.9917 38.8639 6.86841 31.7412 6.85308 23.0013C6.86841 14.2618 13.9919 7.13865 22.7322 7.12312H22.7326C31.4685 7.13865 38.5907 14.2618 38.6094 23.0013C38.5905 31.7412 31.4685 38.8637 22.7326 38.8772ZM18.6199 16.5592L18.1204 14.0003H26.6885L21.6651 29.3834L21.6499 29.4266H26.3597L26.9681 32.1508H17.6959L22.8999 16.6038L22.9156 16.5592H18.6199ZM15.0012 18.6038H10.5867L10.9005 20.6883V27.4239H13.3768V25.3089H13.4097C13.4097 25.3089 14.855 25.3107 15.0012 25.3107C16.8107 25.3107 18.3309 23.7445 18.3309 21.9361C18.3309 20.1248 16.8107 18.6038 15.0012 18.6038ZM14.7807 23.3542L13.4097 23.357H13.3768V20.6927H13.4097L14.7807 20.6901C15.4749 20.6901 16.0873 21.3005 16.0873 21.9943C16.0871 22.6924 15.4749 23.3542 14.7807 23.3542ZM32.278 23.839C32.278 24.6625 31.6052 25.2826 30.8379 25.2826C30.0706 25.2826 29.3983 24.6625 29.3983 23.839C29.3983 23.7687 29.4009 18.8757 29.4015 18.3954L26.9014 18.8009V23.7211C26.9014 25.9329 28.6836 27.666 30.8381 27.666C32.9925 27.666 34.7752 25.9331 34.7752 23.7211V18.3956L32.2725 18.8011L32.278 23.839Z" fill="#112950"/>
<path fill-rule="evenodd" clip-rule="evenodd" d="M53.7765 26.8462L58.5904 19.4305H54.2078V18.462H60.0234V19.1399L55.2096 26.5556H60.0652V27.5379H53.7765V26.8462ZM62.006 18.462H64.2877C65.6976 18.462 66.7689 18.8494 67.5016 19.6241C68.2344 20.3989 68.6007 21.5104 68.6007 22.9585C68.6007 23.6779 68.508 24.3212 68.3225 24.8885C68.137 25.4557 67.8633 25.9353 67.5016 26.3273C67.1399 26.7193 66.6947 27.0191 66.166 27.2266C65.6373 27.4342 65.0298 27.5379 64.3434 27.5379H62.006V18.462ZM64.2043 26.5971C65.2802 26.5971 66.0825 26.2789 66.6112 25.6425C67.1399 25.0061 67.4042 24.1114 67.4042 22.9585C67.4042 21.8055 67.1399 20.9247 66.6112 20.3159C66.0825 19.7072 65.2802 19.4028 64.2043 19.4028H63.1747V26.5971H64.2043ZM71.8633 22.7648H73.3938C74.108 22.7648 74.6529 22.6195 75.0285 22.3289C75.4042 22.0384 75.592 21.598 75.592 21.0077C75.592 20.4081 75.4042 19.9885 75.0285 19.7487C74.6529 19.5088 74.108 19.3889 73.3938 19.3889H71.8633V22.7648ZM75.7033 27.5379L73.505 23.7056H71.8633V27.5379H70.6946V18.462H73.5607C74.0245 18.462 74.4511 18.5058 74.8407 18.5934C75.2302 18.681 75.5665 18.8263 75.8494 19.0292C76.1323 19.2321 76.3525 19.495 76.5102 19.8178C76.6679 20.1407 76.7467 20.5373 76.7467 21.0077C76.7467 21.7179 76.5612 22.2851 76.1902 22.7094C75.8192 23.1337 75.323 23.4242 74.7015 23.581L77.025 27.5379H75.7033ZM82.2632 27.704C81.6881 27.704 81.1618 27.5933 80.6841 27.3719C80.2064 27.1506 79.7937 26.8347 79.4458 26.4242C79.098 26.0138 78.829 25.5157 78.6389 24.93C78.4487 24.3443 78.3537 23.6871 78.3537 22.9585C78.3537 22.2298 78.4487 21.5773 78.6389 21.0008C78.829 20.4243 79.098 19.9355 79.4458 19.5342C79.7937 19.133 80.2064 18.8263 80.6841 18.6142C81.1618 18.402 81.6881 18.296 82.2632 18.296C82.829 18.296 83.3507 18.4044 83.8284 18.6211C84.3061 18.8379 84.7188 19.1468 85.0667 19.5481C85.4145 19.9493 85.6835 20.4381 85.8736 21.0146C86.0637 21.5911 86.1588 22.239 86.1588 22.9585C86.1588 23.6871 86.0637 24.3443 85.8736 24.93C85.6835 25.5157 85.4145 26.0138 85.0667 26.4242C84.7188 26.8347 84.3061 27.1506 83.8284 27.3719C83.3507 27.5933 82.829 27.704 82.2632 27.704ZM82.2632 26.694C82.6713 26.694 83.04 26.6064 83.3693 26.4311C83.6985 26.2559 83.9814 26.0046 84.218 25.6771C84.4545 25.3497 84.6377 24.9577 84.7675 24.5011C84.8974 24.0446 84.9623 23.5303 84.9623 22.9585C84.9623 22.3958 84.8974 21.8886 84.7675 21.4366C84.6377 20.9847 84.4545 20.6019 84.218 20.2883C83.9814 19.9747 83.6985 19.7326 83.3693 19.5619C83.04 19.3913 82.6713 19.306 82.2632 19.306C81.8551 19.306 81.4841 19.3913 81.1502 19.5619C80.8162 19.7326 80.531 19.9747 80.2945 20.2883C80.058 20.6019 79.8748 20.9847 79.745 21.4366C79.6151 21.8886 79.5502 22.3958 79.5502 22.9585C79.5502 23.5303 79.6151 24.0446 79.745 24.5011C79.8748 24.9577 80.058 25.3497 80.2945 25.6771C80.531 26.0046 80.8162 26.2559 81.1502 26.4311C81.4841 26.6064 81.8551 26.694 82.2632 26.694ZM87.2092 18.462H88.4057L89.3657 23.4012C89.4585 23.8993 89.5489 24.3881 89.637 24.8677C89.7251 25.3474 89.8156 25.8362 89.9083 26.3343H89.964C90.066 25.8362 90.1703 25.345 90.277 24.8608C90.3837 24.3766 90.4927 23.89 90.604 23.4012L91.87 18.462H92.9274L94.1935 23.4012C94.2955 23.8808 94.4022 24.365 94.5135 24.8539C94.6248 25.3427 94.7361 25.8362 94.8474 26.3343H94.9031C94.9958 25.8362 95.0839 25.345 95.1674 24.8608C95.2509 24.3766 95.3344 23.89 95.4178 23.4012L96.3778 18.462H97.5048L95.6126 27.5379H94.2074L92.83 22.073C92.7558 21.7225 92.6816 21.3789 92.6074 21.0423C92.5332 20.7056 92.4637 20.362 92.3987 20.0115H92.3431C92.2689 20.362 92.1924 20.7056 92.1135 21.0423C92.0347 21.3789 91.9582 21.7225 91.884 22.073L90.5205 27.5379H89.1431L87.2092 18.462ZM99.1813 18.462H100.35V27.5379H99.1813V18.462ZM102.945 18.462H108.204V19.4305H104.113V22.2805H107.564V23.2628H104.113V26.5556H108.343V27.5379H102.945V18.462Z" fill="#112950"/>
</svg>
