<svg width="24" height="24" viewBox="0 0 24 24" fill="none" xmlns="http://www.w3.org/2000/svg">
<path fill-rule="evenodd" clip-rule="evenodd" d="M10.8 16.5846C10.8 18 10.3304 19.1231 9.3913 19.9538C8.45217 20.7846 7.26262 21.2 5.82261 21.2C4.13216 21.2 2.73914 20.6462 1.64348 19.5385C0.547821 18.4308 0 16.8 0 14.6462C0 12.6154 0.297388 10.8769 0.892174 9.43077C1.48696 7.98461 2.20695 6.75385 3.05217 5.73846C3.8974 4.72307 4.77391 3.9077 5.68174 3.29231C6.58957 2.67692 7.38782 2.24616 8.07652 2L10.4243 5.23077C9.04695 5.9077 7.93566 6.81538 7.09043 7.95385C6.24521 9.09231 5.82261 10.5231 5.82261 12.2462C6.07304 12.1846 6.41739 12.1538 6.85565 12.1538C8.10783 12.1538 9.07826 12.5846 9.76696 13.4462C10.4557 14.3077 10.8 15.3538 10.8 16.5846ZM24 16.5846C24 18 23.5304 19.1231 22.5913 19.9538C21.6522 20.7846 20.4626 21.2 19.0226 21.2C17.3322 21.2 15.9391 20.6462 14.8435 19.5385C13.7478 18.4308 13.2 16.8 13.2 14.6462C13.2 12.6154 13.4974 10.8769 14.0922 9.43077C14.687 7.98461 15.407 6.75385 16.2522 5.73846C17.0974 4.72307 17.9739 3.9077 18.8817 3.29231C19.7896 2.67692 20.5878 2.24616 21.2765 2L23.6243 5.23077C22.2469 5.9077 21.1357 6.81538 20.2904 7.95385C19.4452 9.09231 19.0226 10.5231 19.0226 12.2462C19.273 12.1846 19.6174 12.1538 20.0557 12.1538C21.3078 12.1538 22.2783 12.5846 22.967 13.4462C23.6557 14.3077 24 15.3538 24 16.5846Z" fill="#0068FA"/>
</svg>
