<svg width="153" height="28" viewBox="0 0 153 28" fill="none" xmlns="http://www.w3.org/2000/svg">
<g clip-path="url(#clip0_5961_7471)">
<path fill-rule="evenodd" clip-rule="evenodd" d="M151.066 0.148438L150.114 2.79777L149.168 0.148438H148.109V3.84918H148.788V0.863104L149.822 3.84918H150.415L151.44 0.863104V3.84918H152.119V0.148438H151.066V0.148438ZM144.323 0.148438V0.766067H145.534V3.84918H146.27V0.766067H147.48V0.148438H144.323ZM79.2119 13.9957C79.2119 9.09896 82.5238 5.14784 87.4919 5.14784C90.7699 5.14784 93.3384 6.66755 94.6564 9.67303L92.6963 10.5511C91.6148 8.4911 90.0602 7.20785 87.4242 7.20785C84.0446 7.20785 81.51 9.97703 81.51 13.9957C81.51 18.0481 84.0446 20.7835 87.5256 20.7835C90.0265 20.7835 91.6148 19.5003 92.6963 17.4403L94.6564 18.3521C93.3384 21.1889 90.8714 22.8435 87.4919 22.8435C82.5238 22.8435 79.2119 18.8924 79.2119 13.9957V13.9957ZM96.2483 13.9957C96.2483 9.06518 99.6278 5.14784 104.393 5.14784C107.367 5.14784 109.597 6.83629 110.476 8.4234L110.78 5.55303H112.74V22.4384H110.78L110.476 19.5003C109.665 21.1213 107.435 22.8435 104.393 22.8435C99.6278 22.8435 96.2483 18.9262 96.2483 13.9957V13.9957ZM110.78 13.9957C110.78 9.90947 108.212 7.20785 104.731 7.20785C101.081 7.20785 98.5462 10.1797 98.5462 13.9957C98.5462 17.8118 101.081 20.7835 104.731 20.7835C108.212 20.7835 110.78 18.0819 110.78 13.9957ZM117.178 5.55288H119.104L119.374 8.18696C120.118 6.36355 121.706 5.14784 123.835 5.14784C125.086 5.14784 126.066 5.51925 126.843 6.05955L126.201 8.25466C125.39 7.64681 124.342 7.41022 123.498 7.41022C120.862 7.41022 119.408 9.53792 119.408 13.0838V22.4384H117.178V5.55288ZM135.583 22.8435C130.344 22.8435 127.337 18.96 127.337 14.0633C127.337 8.82873 130.682 5.14784 135.481 5.14784C140.551 5.14784 143.389 8.93007 143.389 13.6241C143.389 13.8944 143.389 14.2658 143.322 14.536H129.533C129.77 18.8587 132.473 20.7835 135.752 20.7835C138.489 20.7835 140.179 19.3652 141.024 17.4401L142.916 18.217C141.936 20.6484 139.571 22.8437 135.583 22.8437V22.8435ZM129.567 12.78H141.125C140.889 9.13273 138.557 7.2077 135.481 7.2077C132.44 7.2077 129.973 9.09896 129.567 12.7798" fill="#112950"/>
<mask id="mask0_5961_7471" style="mask-type:alpha" maskUnits="userSpaceOnUse" x="0" y="0" width="16" height="23">
<path d="M0.526367 0.148438H15.9295V22.6724H0.526367V0.148438Z" fill="white"/>
</mask>
<g mask="url(#mask0_5961_7471)">
<path fill-rule="evenodd" clip-rule="evenodd" d="M11.2784 10.6336C10.6433 10.6326 10.0201 10.806 9.47677 11.1347C8.93349 11.4635 8.49101 11.935 8.19762 12.4979C7.90427 11.935 7.46182 11.4635 6.91856 11.1347C6.3753 10.8059 5.75211 10.6326 5.11699 10.6336C3.20299 10.6336 1.65134 9.06888 1.65134 7.13881C1.65134 5.20829 3.20285 3.6437 5.11699 3.6437C6.45901 3.6437 7.62194 4.41318 8.19777 5.53807C8.77345 4.41318 9.93637 3.6437 11.2785 3.6437C13.1922 3.6437 14.744 5.20814 14.744 7.13881C14.744 9.06888 13.1922 10.6336 11.2784 10.6336ZM8.22831 0.148438C3.97482 0.148438 0.526367 3.62547 0.526367 7.91525V11.6203C0.526367 17.724 5.43337 22.6724 11.4861 22.6724H12.4639C11.7443 22.1272 11.1611 21.4225 10.7602 20.6139C10.3593 19.8053 10.1516 18.9147 10.1534 18.0123C10.1534 14.7953 12.7393 12.1871 15.9295 12.1871V7.9154C15.9295 3.62562 12.4815 0.148438 8.22831 0.148438Z" fill="#112950"/>
</g>
<path fill-rule="evenodd" clip-rule="evenodd" d="M11.3088 18.0121C11.3088 20.5861 13.3777 22.6726 15.9299 22.6726V13.352C13.3777 13.352 11.3088 15.4388 11.3088 18.0123V18.0121ZM11.2784 5.97363C10.6406 5.97363 10.1232 6.49511 10.1232 7.13867C10.1232 7.78237 10.6406 8.30371 11.2784 8.30371C11.9162 8.30371 12.4336 7.78222 12.4336 7.13867C12.4336 6.49511 11.9162 5.97363 11.2784 5.97363ZM5.11713 5.97363C4.47933 5.97363 3.96191 6.49511 3.96191 7.13867C3.96191 7.78237 4.47933 8.30371 5.11713 8.30371C5.75493 8.30371 6.27235 7.78222 6.27235 7.13867C6.27235 6.49511 5.75493 5.97363 5.11713 5.97363Z" fill="#112950"/>
<mask id="mask1_5961_7471" style="mask-type:alpha" maskUnits="userSpaceOnUse" x="48" y="0" width="29" height="23">
<path d="M48.0479 0.148438H76.0295V22.6824H48.0479V0.148438Z" fill="white"/>
</mask>
<g mask="url(#mask1_5961_7471)">
<path fill-rule="evenodd" clip-rule="evenodd" d="M67.1851 4.84148C62.3079 4.84148 58.3398 8.84296 58.3398 13.7619C58.3398 15.187 58.6812 16.5302 59.2732 17.7264C58.643 18.6058 57.6169 19.1782 56.4583 19.164C54.5709 19.1415 53.0736 17.5427 53.0736 15.6385V8.42207H55.9865C56.2111 8.42207 56.393 8.23836 56.393 8.0117V5.31392C56.393 5.0877 56.2111 4.90414 55.9865 4.90414H53.0736V0.592586C53.0736 0.347104 52.8765 0.148438 52.6332 0.148438H50.0254C49.7824 0.148438 49.5851 0.346956 49.5851 0.592586V4.90414H48.4553C48.2307 4.90414 48.0488 5.0877 48.0488 5.31407V8.01185C48.0488 8.23851 48.2307 8.42207 48.4555 8.42207H49.5852V15.5996C49.5852 19.4687 52.7241 22.7154 56.5603 22.6819C58.4837 22.6656 60.2198 21.8508 61.4643 20.5533C63.0082 21.8781 65.0039 22.6822 67.1852 22.6822C72.0626 22.6822 76.0304 18.6804 76.0304 13.7619C76.0304 8.84296 72.0626 4.84148 67.1852 4.84148H67.1851ZM67.1852 19.1644C64.2314 19.1644 61.828 16.7407 61.828 13.7619C61.828 10.7831 64.2315 8.3594 67.1852 8.3594C70.139 8.3594 72.5422 10.7831 72.5422 13.7619C72.5422 16.7407 70.139 19.1646 67.1852 19.1646" fill="#112950"/>
</g>
<path fill-rule="evenodd" clip-rule="evenodd" d="M45.2751 5.31422C45.2751 5.08755 45.0928 4.90384 44.8682 4.90384H42.1935C41.9689 4.90384 41.7865 5.08755 41.7865 5.31422V12.2086C41.7865 14.0938 40.2817 15.6313 38.4199 15.6635C36.5029 15.6967 34.9339 14.0809 34.9339 12.1474V5.31422C34.9339 5.08755 34.752 4.90384 34.5274 4.90384H31.8524C31.6278 4.90384 31.4459 5.08755 31.4459 5.31422V12.1198C31.4459 15.9591 34.4855 19.1444 38.2921 19.1816C39.565 19.1941 40.7569 18.852 41.7865 18.2561V20.9323C41.7865 22.8378 40.2495 24.3877 38.3603 24.3877C37.0883 24.3877 35.9766 23.6846 35.386 22.6438L34.9792 21.9055C34.9528 21.8589 34.9174 21.8181 34.8751 21.7853C34.8328 21.7525 34.7844 21.7284 34.7327 21.7144C34.681 21.7005 34.6271 21.6969 34.574 21.7039C34.5209 21.7109 34.4698 21.7283 34.4235 21.7553L32.1071 23.104C32.0134 23.1589 31.9452 23.2486 31.9172 23.3536C31.8893 23.4585 31.9039 23.5702 31.958 23.6644L32.3661 24.4018C33.5611 26.4935 35.7995 27.9058 38.3602 27.9058C42.1729 27.9058 45.2753 24.7775 45.2753 20.9323V8.74488H45.2751V5.31422ZM29.2317 19.1643H27.8943C26.2531 19.1643 24.9231 17.8227 24.9231 16.1677V8.42192H27.9883C28.1285 8.42192 28.2424 8.23836 28.2424 8.0117V5.31392C28.2424 5.08755 28.1285 4.90399 27.9883 4.90399H24.9231V0.558808C24.9231 0.332141 24.7407 0.148438 24.5161 0.148438H21.8415C21.6169 0.148438 21.4346 0.332141 21.4346 0.558808V16.1677C21.4346 19.7658 24.3265 22.6824 27.8941 22.6824H29.2317C29.4563 22.6824 29.6382 22.4987 29.6382 22.2721V19.5748C29.6382 19.3481 29.4563 19.1644 29.2317 19.1644" fill="#112950"/>
</g>
<defs>
<clipPath id="clip0_5961_7471">
<rect width="151.667" height="28" fill="white" transform="translate(0.526367)"/>
</clipPath>
</defs>
</svg>
